<?xml version="1.0" standalone="no"?>
<!DOCTYPE svg PUBLIC "-//W3C//DTD SVG 20010904//EN"
 "http://www.w3.org/TR/2001/REC-SVG-20010904/DTD/svg10.dtd">
<svg version="1.0" xmlns="http://www.w3.org/2000/svg"
 width="247.000000pt" height="341.000000pt" viewBox="0 0 247.000000 341.000000"
 preserveAspectRatio="xMidYMid meet">

<g transform="translate(0.000000,341.000000) scale(0.100000,-0.100000)"
fill="#000000" stroke="none">
<path d="M1000 2750 c0 -59 60 -130 123 -145 l27 -7 0 -359 0 -358 -107 -3
-108 -3 -3 -87 c-3 -84 -3 -86 -30 -93 -104 -26 -281 -150 -380 -265 -103
-120 -191 -319 -204 -460 l-3 -35 894 -3 894 -2 -7 48 c-17 130 -79 282 -160
397 -52 72 -165 181 -240 230 -29 20 -88 51 -132 70 l-79 34 -3 86 -3 85 -110
0 -109 0 2 357 3 356 30 10 c51 17 87 48 107 94 33 74 35 73 -197 73 -199 0
-205 -1 -205 -20z"/>
<path d="M310 825 l0 -55 895 0 895 0 0 55 0 55 -895 0 -895 0 0 -55z"/>
<path d="M995 710 c-13 -21 -17 -107 -6 -147 22 -83 97 -140 196 -150 94 -10
193 38 226 110 21 46 26 146 9 178 -10 18 -23 19 -215 19 -122 0 -206 -4 -210
-10z"/>
</g>
</svg>