<?xml version="1.0" standalone="no"?>
<!DOCTYPE svg PUBLIC "-//W3C//DTD SVG 20010904//EN"
 "http://www.w3.org/TR/2001/REC-SVG-20010904/DTD/svg10.dtd">
<svg version="1.0" xmlns="http://www.w3.org/2000/svg"
 width="70.000000pt" height="70.000000pt" viewBox="0 0 823.000000 463.000000"
 preserveAspectRatio="xMidYMid meet">

<g transform="translate(0.000000,463.000000) scale(0.100000,-0.100000)"
fill="#4ea7d4" stroke="none">
<path d="M3600 4407 c-14 -7 -26 -20 -28 -28 -4 -20 27 -34 42 -19 5 5 14 10
20 10 5 0 -1 -9 -14 -20 -13 -11 -31 -18 -39 -15 -9 3 -40 -10 -68 -29 -29
-19 -61 -37 -72 -41 -11 -3 -47 -36 -80 -72 -44 -48 -62 -76 -68 -107 -5 -22
-13 -41 -19 -41 -6 0 -19 -8 -29 -18 -16 -17 -17 -25 -6 -90 7 -40 17 -88 22
-108 14 -55 12 -62 -32 -138 -25 -44 -39 -79 -36 -91 3 -11 1 -20 -4 -20 -25
0 -98 -175 -143 -345 -7 -25 2 110 12 193 9 67 2 80 -18 32 -7 -17 -17 -33
-22 -36 -6 -4 -5 3 2 15 6 12 10 26 8 31 -4 12 -154 -118 -150 -130 1 -6 -8
-8 -21 -5 -17 5 -62 -13 -156 -61 -73 -37 -148 -68 -167 -69 -44 -2 -65 -21
-58 -50 4 -17 0 -24 -17 -28 -12 -3 -31 -1 -42 4 -10 6 -34 8 -52 5 -35 -7
-138 -71 -168 -104 -17 -19 -16 -21 40 -52 49 -28 69 -33 133 -35 42 -2 95
-10 120 -20 31 -12 69 -17 120 -16 89 2 140 -13 226 -70 68 -44 168 -87 358
-153 69 -25 142 -57 163 -73 31 -24 36 -25 29 -8 -4 11 -10 34 -13 50 -3 22 2
16 21 -23 31 -65 32 -72 6 -72 -11 0 -20 -3 -20 -7 0 -3 40 -47 88 -97 48 -50
103 -118 121 -151 68 -125 103 -287 105 -485 1 -108 -1 -118 -27 -165 -58
-103 -107 -141 -203 -154 -39 -6 -93 -6 -124 -2 -41 6 -47 9 -21 10 19 0 74 9
124 18 88 17 89 18 142 75 67 72 89 133 81 221 -21 203 -30 259 -48 317 -41
129 -73 178 -199 302 -114 113 -118 118 -98 132 21 14 21 14 -3 30 -13 9 -85
36 -159 62 -74 25 -206 80 -294 124 -157 77 -218 100 -262 100 -21 0 -19 -4
17 -41 50 -51 92 -139 88 -182 -3 -31 -5 -29 -35 35 -36 76 -100 151 -152 176
-51 24 -206 24 -244 0 -14 -10 -38 -18 -52 -18 l-26 0 17 30 c10 16 14 33 10
37 -13 14 -176 4 -209 -12 -16 -8 -40 -15 -51 -15 -47 0 -140 -65 -115 -81 7
-4 3 -10 -12 -14 -80 -25 -149 -149 -168 -300 -3 -27 -10 -49 -16 -47 -14 4
-8 110 10 168 8 26 13 50 10 52 -8 8 -69 -87 -105 -163 -51 -106 -67 -208 -50
-302 16 -89 34 -117 99 -161 64 -42 57 -50 -21 -23 -64 22 -65 21 -93 -44 -56
-133 -80 -264 -72 -395 7 -109 30 -169 101 -263 31 -41 56 -77 56 -81 0 -13
-20 -5 -49 20 -17 14 -31 22 -31 17 0 -15 50 -265 61 -305 5 -21 14 -38 19
-38 12 0 42 -96 37 -117 -2 -13 -7 -7 -15 17 -21 64 -3 -84 19 -156 28 -91 76
-123 206 -138 28 -4 73 -16 99 -28 42 -18 68 -21 213 -22 92 0 181 3 199 7 18
5 32 5 32 -1 0 -5 -37 -17 -82 -27 -76 -16 -80 -19 -53 -26 60 -17 154 -22
170 -9 10 9 35 10 82 6 225 -22 283 -18 482 29 269 63 506 115 521 114 51 -5
130 2 125 11 -9 15 17 12 61 -6 29 -12 57 -15 114 -11 105 8 163 28 260 92 46
30 90 55 97 55 8 0 12 4 9 9 -4 5 23 25 59 45 58 32 74 36 137 36 66 0 73 -2
108 -34 20 -18 44 -37 52 -42 8 -5 27 -28 42 -51 15 -23 34 -44 42 -47 27 -10
-3 -45 -44 -51 -20 -4 -82 -15 -137 -25 -178 -33 -327 -59 -480 -86 -180 -31
-224 -43 -203 -55 14 -8 121 -15 768 -54 140 -9 350 -22 465 -30 116 -8 239
-15 275 -15 53 0 61 -3 46 -12 -13 -7 -62 -9 -150 -5 -254 12 -852 47 -976 57
-69 5 -226 14 -349 20 -123 6 -228 13 -234 17 -12 7 0 -34 19 -63 18 -30 93
-64 139 -64 65 0 643 -55 900 -86 160 -19 212 -31 218 -53 6 -25 64 -39 217
-52 131 -11 138 -11 255 16 210 47 318 78 510 147 61 22 172 62 247 88 190 67
218 81 261 129 40 44 64 87 55 97 -8 8 -580 -169 -930 -287 -95 -33 -97 -33
-117 -15 -28 25 -26 50 9 145 34 92 92 223 97 218 3 -3 -21 -64 -71 -182 -25
-59 -34 -111 -17 -101 13 8 123 285 346 871 40 105 91 234 114 287 22 53 41
100 41 103 0 4 25 70 55 147 31 77 54 142 52 145 -3 2 -17 -27 -32 -64 -15
-37 -33 -81 -40 -98 -12 -29 -35 -86 -128 -325 -25 -63 -61 -155 -81 -205 -19
-49 -56 -139 -81 -200 -26 -60 -59 -144 -75 -185 -35 -94 -79 -189 -79 -173
-1 16 50 156 101 275 36 86 39 98 26 112 -9 8 -18 13 -21 10 -2 -3 -13 6 -23
18 -33 41 -49 44 -25 5 12 -20 21 -44 19 -53 -2 -10 -25 12 -65 63 -59 74
-163 174 -163 156 0 -4 18 -30 40 -58 80 -100 76 -89 67 -226 -5 -68 -10 -125
-11 -126 -1 -1 -12 0 -24 4 -26 6 -24 30 2 25 13 -2 16 5 16 38 0 22 -4 40 -8
40 -5 0 -7 24 -4 53 4 48 1 56 -27 86 -33 35 -39 51 -19 51 6 0 -17 27 -50 60
-34 33 -67 60 -73 60 -8 0 -7 -6 2 -17 13 -15 11 -15 -19 1 -17 9 -56 17 -85
18 -54 2 -187 -22 -187 -33 0 -4 7 -12 15 -19 8 -7 15 -20 15 -29 0 -26 39
-57 99 -80 71 -27 121 -75 121 -116 0 -35 -24 -75 -46 -75 -18 0 -18 14 1 30
19 16 19 54 0 70 -13 11 -14 10 -9 -4 3 -9 2 -16 -3 -16 -15 0 -33 23 -33 42
0 10 -8 21 -17 24 -49 16 -124 57 -147 81 -21 21 -25 22 -20 7 7 -18 7 -18
-13 -2 -27 24 -39 23 -70 -8 l-26 -26 7 38 c20 101 21 94 -8 94 -16 0 -25 4
-21 10 3 6 -1 10 -9 10 -9 0 -13 6 -10 13 6 16 -36 37 -76 37 -25 0 -28 3 -25
26 l3 27 -69 -5 c-50 -4 -87 -14 -129 -35 -33 -16 -60 -26 -60 -22 0 13 48 46
104 70 31 13 56 28 56 32 0 14 -76 128 -82 122 -3 -4 -19 11 -34 32 -16 21
-37 44 -46 51 -9 7 -26 37 -37 67 -24 64 -25 69 -11 60 17 -11 11 9 -16 50
-35 53 -65 85 -74 80 -11 -7 -103 92 -96 104 5 7 15 6 31 -5 13 -8 34 -14 47
-12 22 3 23 6 22 93 -1 63 -8 107 -23 149 -21 58 -21 59 -1 41 11 -10 20 -16
20 -13 0 13 -31 77 -40 83 -5 3 -21 30 -35 58 -47 100 -147 192 -202 185 l-28
-3 55 -59 c30 -32 46 -54 35 -48 -11 6 -33 24 -49 41 -17 17 -37 31 -45 31 -9
0 -38 27 -66 60 -42 50 -55 60 -82 60 -18 0 -33 -4 -33 -9 0 -5 -44 -14 -97
-22 -78 -11 -100 -17 -117 -36 l-20 -23 -18 28 c-19 29 -24 47 -9 38 11 -7
111 12 185 35 33 11 73 19 89 19 25 0 27 2 17 14 -15 20 -103 48 -122 41 -10
-4 -25 6 -42 27 -19 25 -26 29 -26 15 0 -10 5 -27 11 -39 6 -11 8 -22 5 -25
-3 -3 -13 12 -23 33 -9 22 -19 41 -21 44 -2 3 -12 -6 -22 -20 -28 -36 -24 -18
10 50 17 33 30 62 30 65 0 2 -15 -3 -34 -12 -19 -9 -42 -13 -52 -9 -16 6 -16
8 2 20 10 7 47 28 82 47 53 28 66 31 82 21 44 -27 40 -8 -12 59 -23 30 -55 69
-72 88 -17 19 27 -19 97 -85 70 -65 140 -124 155 -131 68 -31 143 -4 161 58 7
22 9 54 6 70 -6 28 -5 29 30 29 l37 0 -31 29 c-35 33 -39 43 -13 34 15 -6 15
-4 -2 15 -22 25 -84 30 -104 10 -10 -10 -15 -10 -22 2 -10 17 6 31 27 23 7 -3
13 0 13 6 0 17 42 13 64 -7 30 -27 119 -58 124 -44 2 6 14 27 27 46 21 31 22
35 7 41 -12 5 -13 9 -4 12 7 3 33 -7 58 -22 42 -25 48 -26 62 -11 14 14 14 17
-1 34 -10 11 -17 35 -17 58 0 26 3 34 9 25 14 -21 21 1 27 86 6 77 6 78 -23
106 -26 24 -33 26 -57 17 -18 -6 -25 -6 -21 0 3 6 13 10 21 10 17 0 18 12 2
28 -6 6 -13 18 -14 27 -3 23 49 -7 80 -47 l25 -33 29 28 c15 15 33 27 40 27 6
0 14 12 17 28 4 15 12 52 20 82 19 79 27 140 17 140 -4 0 -27 27 -50 60 -29
41 -38 60 -28 60 14 0 81 -51 97 -74 4 -5 15 -5 25 -1 11 5 22 7 27 7 4 -1 7
3 7 9 0 5 5 7 10 4 6 -3 10 -2 10 3 0 6 10 8 23 5 18 -4 19 -3 7 6 -8 6 -27
11 -42 11 -29 0 -37 13 -17 26 6 4 32 12 58 19 25 7 36 14 24 14 -12 1 -29 4
-39 8 -16 6 -16 7 1 13 17 6 16 9 -10 25 -96 59 -202 137 -260 193 -16 15 -64
55 -105 88 -41 32 -108 87 -148 121 -40 35 -78 63 -85 63 -7 0 2 -11 18 -25
l30 -25 -50 21 c-64 27 -142 35 -198 20 -37 -9 -50 -8 -74 4 -34 18 -51 18
-83 2z m650 -262 c14 -8 21 -14 15 -14 -5 0 -21 6 -35 14 -14 8 -20 14 -15 14
6 0 21 -6 35 -14z m-880 -111 c0 -9 -7 -14 -17 -12 -25 5 -28 28 -4 28 12 0
21 -6 21 -16z m760 -28 c0 -17 -27 -29 -35 -16 -4 6 -3 15 0 20 9 15 35 12 35
-4z m-820 -129 c0 -5 -4 -5 -10 -2 -5 3 -10 14 -10 23 0 15 2 15 10 2 5 -8 10
-19 10 -23z m541 23 c21 0 8 -50 -18 -70 l-28 -22 -27 31 c-16 17 -28 38 -28
46 0 13 50 25 78 18 8 -1 18 -3 23 -3z m-250 -10 c25 -14 49 -62 48 -97 -1
-28 -1 -28 -16 7 -40 93 -99 107 -168 38 -47 -48 -70 -120 -59 -187 7 -46 44
-151 53 -151 4 0 16 -7 27 -15 17 -13 16 -14 -15 -5 -41 11 -53 27 -81 107
-20 56 -21 70 -12 123 16 87 39 128 91 161 47 30 97 37 132 19z m283 -112 c5
-9 7 -20 3 -24 -10 -11 -57 17 -57 33 0 20 40 13 54 -9z m-309 -18 c21 -23 9
-26 -30 -6 -17 9 -22 16 -13 19 21 9 24 8 43 -13z m245 5 c11 -13 8 -15 -13
-15 -26 0 -42 12 -30 24 11 11 30 7 43 -9z m-280 -42 c0 -9 -7 -24 -15 -33
-11 -13 -13 -24 -5 -50 12 -43 8 -47 -24 -17 -28 26 -34 64 -16 98 13 24 60
26 60 2z m281 -21 c26 -23 31 -33 25 -55 -3 -15 -13 -27 -20 -27 -15 0 -66 55
-66 70 0 5 -3 15 -6 24 -10 27 32 19 67 -12z m-259 -73 c-6 -38 -22 -20 -22
25 0 22 3 26 13 17 8 -6 12 -23 9 -42z m206 -45 c-10 -10 -28 6 -28 24 0 15 1
15 17 -1 9 -9 14 -19 11 -23z m-400 -33 c3 -16 -1 -22 -10 -19 -7 3 -15 15
-16 27 -3 16 1 22 10 19 7 -3 15 -15 16 -27z m-49 -10 c12 -22 -6 -104 -32
-141 l-16 -23 -31 32 c-32 35 -39 75 -19 114 16 29 28 37 61 37 17 0 31 -7 37
-19z m84 -137 c1 -51 -3 -80 -18 -111 -11 -23 -23 -43 -27 -43 -15 0 -8 159 8
200 22 55 35 39 37 -46z m767 51 c14 -19 14 -19 -2 -6 -10 7 -18 18 -18 24 0
6 1 8 3 6 1 -2 9 -13 17 -24z m-707 -50 c-6 -117 -33 -122 -33 -7 0 55 2 63
18 60 14 -3 17 -13 15 -53z m-239 -37 c24 -119 20 -143 -30 -164 -35 -15 -42
-40 -10 -38 14 2 15 -1 4 -15 -7 -9 -14 -18 -15 -20 -2 -3 -10 4 -18 15 -19
25 -18 78 1 129 13 35 26 75 40 123 6 21 21 5 28 -30z m302 -106 c-13 -12 -18
9 -10 45 l8 38 4 -39 c2 -21 1 -41 -2 -44z m283 -81 c21 -14 6 -38 -28 -46
-54 -12 -69 14 -23 39 32 18 33 18 51 7z m-1294 -11 c-3 -5 -12 -10 -18 -10
-7 0 -6 4 3 10 19 12 23 12 15 0z m835 -5 c20 -24 15 -355 -6 -415 -5 -12 -8
-12 -20 5 -13 18 -14 17 -8 -13 4 -20 2 -32 -4 -32 -14 0 -49 45 -58 73 -6 22
-69 121 -91 145 -22 23 -14 53 26 106 21 28 44 61 50 74 23 44 31 10 31 -138
0 -126 2 -149 14 -144 11 4 14 17 10 52 -6 52 10 274 20 291 10 15 21 14 36
-4z m928 3 c16 -16 15 -28 -2 -28 -7 0 -16 9 -19 20 -6 23 3 26 21 8z m-812
-55 c-11 -11 -19 6 -11 24 8 17 8 17 12 0 3 -10 2 -21 -1 -24z m-52 -19 c12
-31 7 -74 -9 -74 -11 0 -15 12 -15 45 0 45 12 60 24 29z m140 -27 c14 -18 27
-44 28 -58 4 -29 -21 -35 -81 -19 -36 9 -41 14 -41 40 0 17 4 30 9 30 5 0 13
9 16 20 10 30 41 24 69 -13z m-120 -187 c8 -95 27 -156 55 -176 20 -15 15 -20
-31 -27 -61 -9 -68 10 -68 188 1 147 1 150 19 128 13 -16 20 -47 25 -113z
m104 80 c27 -25 27 -27 2 -67 -24 -40 -54 -58 -68 -40 -15 19 -24 72 -16 101
8 33 50 36 82 6z m-499 -37 c16 -36 44 -39 68 -7 20 28 49 6 45 -35 -3 -24 0
-30 12 -25 9 3 21 -4 31 -20 10 -14 21 -23 26 -20 5 3 10 0 10 -5 2 -18 5 -25
19 -53 22 -45 8 -60 -47 -52 -27 3 -63 12 -80 20 -28 11 -32 17 -29 42 3 29 2
30 -35 25 -30 -4 -40 -2 -51 16 -7 11 -20 21 -30 21 -56 0 -67 54 -21 102 35
36 64 33 82 -9z m-866 -127 c27 -16 27 -19 13 -35 -9 -10 -16 -21 -16 -26 0
-16 -36 -34 -69 -35 -24 0 -46 10 -78 36 l-43 36 34 23 c32 22 114 38 126 25
3 -3 18 -14 33 -24z m1631 -232 c3 -8 2 -12 -4 -9 -6 3 -10 10 -10 16 0 14 7
11 14 -7z m159 -187 c161 -227 190 -327 168 -591 -10 -115 -14 -136 -42 -185
-35 -63 -76 -111 -96 -111 -19 0 -17 4 24 63 69 98 77 131 77 322 1 141 -2
179 -18 225 -28 84 -92 195 -176 305 -42 55 -79 108 -83 118 -15 39 87 -63
146 -146z m-1130 -2 c23 -16 17 -42 -19 -80 -24 -26 -26 -26 -45 -10 -19 18
-27 83 -12 98 11 12 57 7 76 -8z m127 -145 c37 -73 19 -117 -27 -67 -18 18
-20 30 -16 69 6 54 15 53 43 -2z m-148 8 c-7 -7 -12 -8 -12 -2 0 14 12 26 19
19 2 -3 -1 -11 -7 -17z m-142 -52 c-12 -24 -38 -41 -47 -32 -2 2 8 18 23 35
30 36 44 34 24 -3z m-80 -22 c0 -9 -33 -50 -72 -91 l-73 -74 19 -32 c58 -97
76 -138 85 -197 23 -142 6 -341 -39 -446 -25 -58 -25 -61 5 -68 52 -13 223
-91 314 -144 52 -30 113 -61 135 -69 23 -7 111 -18 196 -23 85 -5 229 -15 320
-21 139 -9 176 -8 235 4 74 16 354 139 484 213 42 24 88 44 103 44 15 0 87
-20 160 -44 73 -24 156 -49 184 -55 50 -12 55 -17 130 -116 55 -74 81 -100 86
-91 12 21 79 2 152 -41 69 -41 104 -45 220 -24 77 15 86 10 86 -45 0 -37 18
-93 36 -115 29 -33 16 -36 -143 -35 -132 1 -175 -3 -261 -22 -56 -13 -109 -21
-118 -18 -20 8 -16 92 5 88 7 -1 22 0 33 4 15 4 18 12 13 33 -15 68 -59 153
-123 237 -69 90 -72 92 -144 117 -60 21 -183 61 -258 84 -8 3 6 -9 32 -26 25
-16 72 -37 105 -47 32 -9 81 -28 108 -43 28 -14 54 -28 59 -30 4 -2 5 7 1 20
-5 19 -4 21 4 9 6 -8 11 -24 11 -34 0 -11 18 -52 40 -91 21 -40 37 -75 34 -78
-3 -3 5 -19 17 -37 17 -22 24 -46 26 -88 1 -31 6 -71 12 -89 7 -24 6 -35 -5
-44 -12 -9 -14 -5 -13 27 2 76 -27 160 -78 230 -26 36 -57 79 -68 95 -15 22
-30 30 -65 34 -148 20 -242 37 -274 50 -53 22 -126 19 -203 -10 -37 -14 -131
-46 -208 -72 -118 -39 -155 -46 -233 -49 -75 -3 -98 -7 -123 -24 -38 -27 -61
-22 -31 8 19 19 19 22 4 26 -9 3 -75 8 -147 11 -71 3 -161 8 -199 11 -38 4
-66 2 -63 -2 8 -13 -192 -16 -230 -3 -17 5 -37 17 -45 26 -11 14 -11 16 3 11
8 -3 47 -9 85 -13 l69 -7 -143 72 c-96 48 -152 70 -167 67 -15 -2 -26 1 -29 9
-3 8 -20 20 -38 28 -50 22 -166 56 -188 56 -11 0 -20 4 -20 9 0 17 -152 44
-245 45 -79 0 -153 -13 -232 -41 -16 -5 -16 -4 -3 9 54 55 305 85 449 54 41
-9 75 -15 76 -13 6 13 46 154 55 196 15 64 7 237 -14 321 -7 30 -26 81 -42
112 l-28 57 -55 3 -56 3 85 57 c47 32 110 78 140 102 30 25 56 45 58 46 1 0 2
-7 2 -16z m160 11 c0 -11 -49 -134 -61 -154 -8 -11 -19 -21 -26 -21 -7 0 -13
-11 -13 -23 0 -13 -13 -43 -30 -65 -16 -23 -30 -46 -30 -51 0 -5 -6 -14 -14
-20 -10 -9 -18 -3 -38 26 -53 80 -60 101 -48 138 6 19 30 50 53 70 38 33 42
34 64 20 21 -14 23 -14 23 5 0 13 16 30 48 50 43 27 72 37 72 25z m152 -99
c15 -22 0 -31 -52 -31 -40 0 -56 4 -64 18 -8 14 -8 20 4 27 18 12 102 2 112
-14z m-1167 -163 c20 -47 3 -68 -19 -25 -9 17 -16 38 -16 47 0 27 19 16 35
-22z m698 -117 c6 -15 -1 -26 -15 -26 -4 0 -8 9 -8 20 0 23 15 27 23 6z m317
-148 c0 -20 -31 -4 -64 32 -57 63 -46 84 14 25 28 -27 50 -53 50 -57z m43 20
c20 -16 37 -34 37 -39 0 -15 -57 21 -93 60 -29 30 -30 32 -7 21 14 -7 42 -26
63 -42z m294 -54 c-3 -3 -12 -4 -19 -1 -8 3 -5 6 6 6 11 1 17 -2 13 -5z m704
-101 c13 -16 12 -17 -3 -4 -10 7 -18 15 -18 17 0 8 8 3 21 -13z m146 -195 c-3
-8 -6 -5 -6 6 -1 11 2 17 5 13 3 -3 4 -12 1 -19z m-110 -133 c3 -9 3 -18 1
-21 -7 -7 -58 17 -58 28 0 15 50 8 57 -7z m-2056 -96 c21 -24 22 -29 13 -53
-7 -17 -41 -21 -63 -7 -10 7 -12 22 -6 67 7 56 8 58 22 37 8 -12 23 -32 34
-44z m2505 -108 c33 -10 100 -24 151 -31 l92 -13 63 -78 c37 -46 68 -96 75
-121 7 -24 15 -54 19 -68 7 -22 5 -23 -8 -12 -9 7 -21 32 -28 57 -8 30 -34 69
-78 119 l-65 74 -82 12 c-86 12 -210 42 -221 52 -7 8 4 28 15 28 5 0 35 -8 67
-19z m-96 -21 c0 -5 -8 -10 -17 -10 -15 0 -16 2 -3 10 19 12 20 12 20 0z
m-535 -150 c-3 -5 -12 -7 -20 -3 -21 7 -19 13 6 13 11 0 18 -4 14 -10z m1785
-148 c0 -5 -49 -8 -109 -8 -60 1 -107 4 -104 9 6 10 213 9 213 -1z m-301 -27
c-8 -7 -320 -66 -332 -62 -9 3 105 28 253 56 53 10 85 13 79 6z m-3174 -52
c17 -12 14 -13 -35 -13 -63 0 -75 6 -77 37 -2 21 -1 21 45 6 26 -9 56 -22 67
-30z m3342 41 c-3 -3 -12 -4 -19 -1 -8 3 -5 6 6 6 11 1 17 -2 13 -5z m83 -8
c0 -3 -4 -8 -10 -11 -5 -3 -10 -1 -10 4 0 6 5 11 10 11 6 0 10 -2 10 -4z
m-607 -53 c-7 -2 -21 -2 -30 0 -10 3 -4 5 12 5 17 0 24 -2 18 -5z m-56 -9 c-3
-3 -12 -4 -19 -1 -8 3 -5 6 6 6 11 1 17 -2 13 -5z m-89 -19 c-3 -3 -30 -10
-59 -14 -30 -5 -67 -12 -84 -15 -28 -6 -28 -6 -6 4 35 15 160 36 149 25z m649
-1 c-3 -3 -12 -4 -19 -1 -8 3 -5 6 6 6 11 1 17 -2 13 -5z m1053 -14 c-20 -13
-43 -13 -35 0 3 6 16 10 28 10 18 0 19 -2 7 -10z m-1143 -16 c-3 -3 -12 -4
-19 -1 -8 3 -5 6 6 6 11 1 17 -2 13 -5z m-797 -20 c-64 -20 -146 -29 -154 -16
-4 7 13 13 46 16 29 3 67 8 83 9 61 8 69 5 25 -9z m260 -3 c20 -5 10 -9 -45
-19 -89 -15 -234 -21 -241 -10 -3 4 37 8 88 8 51 0 111 4 133 8 l40 7 -60 6
-60 6 60 0 c33 1 71 -2 85 -6z m115 -22 c-22 -5 -44 -14 -49 -19 -6 -6 -39
-10 -75 -10 -35 0 -61 3 -58 7 10 9 135 31 182 31 l40 0 -40 -9z m242 -25 c-3
-3 -12 -4 -19 -1 -8 3 -5 6 6 6 11 1 17 -2 13 -5z m-204 -11 c-13 -2 -33 -2
-45 0 -13 2 -3 4 22 4 25 0 35 -2 23 -4z m350 -10 c-7 -2 -19 -2 -25 0 -7 3
-2 5 12 5 14 0 19 -2 13 -5z m-120 -20 c-7 -2 -19 -2 -25 0 -7 3 -2 5 12 5 14
0 19 -2 13 -5z m-1004 -69 c12 -11 -12 -13 -67 -8 -34 4 -62 11 -62 16 0 9
119 1 129 -8z m1232 -83 c8 -19 5 -29 -12 -48 l-23 -23 -23 22 c-28 26 -28 32
-2 69 17 25 23 28 36 17 8 -7 19 -23 24 -37z"/>
<path d="M4145 1149 c-55 -27 -92 -47 -82 -44 96 27 84 9 -22 -31 -121 -47
-54 -39 79 9 l123 45 66 -23 c36 -12 102 -27 146 -34 148 -22 195 -28 195 -25
0 9 -89 48 -168 74 -48 16 -114 40 -147 54 -33 14 -67 25 -75 25 -8 0 -60 -22
-115 -50z"/>
<path d="M3915 1030 c-7 -12 2 -12 30 0 19 8 19 9 -2 9 -12 1 -25 -3 -28 -9z"/>
<path d="M3845 1004 l-30 -14 30 6 c17 3 34 10 40 15 14 13 -5 11 -40 -7z"/>
<path d="M4670 991 c0 -5 5 -13 10 -16 6 -3 10 -2 10 4 0 5 -4 13 -10 16 -5 3
-10 2 -10 -4z"/>
<path d="M2631 2044 c0 -11 3 -14 6 -6 3 7 2 16 -1 19 -3 4 -6 -2 -5 -13z"/>
<path d="M4050 4379 c0 -8 4 -19 8 -25 7 -11 251 -202 308 -242 39 -27 84 -44
84 -33 0 15 -182 162 -217 178 -18 7 -33 16 -33 19 0 3 5 2 10 -1 6 -3 10 -4
10 -2 0 6 -139 107 -156 114 -8 3 -14 -1 -14 -8z"/>
<path d="M3432 4325 l-37 -35 57 28 c31 15 54 30 51 35 -9 15 -35 6 -71 -28z"/>
<path d="M4620 3940 c0 -5 5 -10 10 -10 6 0 10 5 10 10 0 6 -4 10 -10 10 -5 0
-10 -4 -10 -10z"/>
<path d="M3212 3900 c0 -19 2 -27 5 -17 2 9 2 25 0 35 -3 9 -5 1 -5 -18z"/>
<path d="M3189 3733 c-25 -51 -35 -93 -22 -93 11 0 41 56 52 97 15 51 -5 48
-30 -4z"/>
<path d="M6116 2032 c-47 -39 -52 -50 -133 -249 -47 -114 -102 -253 -123 -308
-48 -127 -251 -641 -336 -850 -93 -230 -134 -344 -126 -349 8 -4 874 283 908
302 23 12 74 75 74 90 0 6 10 12 23 16 30 7 61 70 186 371 217 526 335 831
335 866 0 20 -10 57 -23 81 -22 43 -26 46 -74 52 -29 3 -189 9 -357 12 l-305
7 -49 -41z m-436 -1293 c-13 -31 -30 -39 -30 -14 0 9 8 32 17 53 15 34 17 35
21 14 2 -13 -2 -37 -8 -53z m60 -135 c0 -35 -28 -92 -52 -105 -26 -14 -72 -7
-76 11 -1 8 18 43 43 78 40 55 48 61 65 52 12 -6 20 -21 20 -36z m45 -34 c-15
-30 -29 -38 -39 -22 -8 13 23 52 40 52 13 0 12 -4 -1 -30z"/>
<path d="M4908 1203 c7 -3 16 -2 19 1 4 3 -2 6 -13 5 -11 0 -14 -3 -6 -6z"/>
</g>
</svg>
