<?xml version="1.0" encoding="UTF-8"?>
<!DOCTYPE svg PUBLIC "-//W3C//DTD SVG 1.1//EN" "http://www.w3.org/Graphics/SVG/1.1/DTD/svg11.dtd">
<svg xmlns="http://www.w3.org/2000/svg" version="1.1" width="1000px" height="1080px" style="shape-rendering:geometricPrecision; text-rendering:geometricPrecision; image-rendering:optimizeQuality; fill-rule:evenodd; clip-rule:evenodd" xmlns:xlink="http://www.w3.org/1999/xlink">
<g><path style="opacity:0.999" fill="#252f34" d="M 469.5,459.5 C 474.685,425.856 473.185,392.523 465,359.5C 463.166,352.346 459.666,346.179 454.5,341C 452.888,340.28 451.388,340.446 450,341.5C 448.333,345.5 446.667,349.5 445,353.5C 442.847,355.444 440.347,355.944 437.5,355C 432.111,350.611 426.444,346.611 420.5,343C 414.704,340.27 409.87,341.437 406,346.5C 401.806,353.554 398.139,360.888 395,368.5C 391.187,372.888 386.354,375.388 380.5,376C 375.054,376.101 369.721,376.768 364.5,378C 362.622,379.543 361.122,381.376 360,383.5C 359.708,390.405 360.208,397.238 361.5,404C 361.43,409.914 360.764,415.748 359.5,421.5C 355.583,415.214 351.25,409.047 346.5,403C 340.187,397.181 332.854,393.348 324.5,391.5C 321.164,379.878 313.497,376.044 301.5,380C 299.187,380.662 296.854,381.162 294.5,381.5C 293.637,379.579 292.971,377.579 292.5,375.5C 292.183,369.091 292.683,362.757 294,356.5C 296.584,353.206 299.084,349.873 301.5,346.5C 306.64,342.272 311.306,337.605 315.5,332.5C 316.152,328.139 316.985,323.805 318,319.5C 320.962,317.213 323.129,314.38 324.5,311C 326.725,310.439 328.725,309.439 330.5,308C 329.944,307.617 329.611,307.117 329.5,306.5C 335.046,303.145 341.046,300.645 347.5,299C 352.857,297.936 358.19,296.77 363.5,295.5C 363.376,294.893 363.043,294.56 362.5,294.5C 362.5,294.167 362.5,293.833 362.5,293.5C 367.636,288.209 373.303,283.376 379.5,279C 384.487,277.107 389.487,277.107 394.5,279C 400.641,281.991 406.974,284.491 413.5,286.5C 421.196,284.484 427.863,280.651 433.5,275C 448.101,269.922 460.268,273.422 470,285.5C 477.213,294.59 482.88,304.59 487,315.5C 487.667,320.833 487.667,326.167 487,331.5C 484.964,337.275 483.131,343.108 481.5,349C 483.357,355.852 486.523,362.019 491,367.5C 493,373.167 493,378.833 491,384.5C 488.667,388.5 486.333,392.5 484,396.5C 483,404.167 482,411.833 481,419.5C 478.297,425.52 475.631,431.52 473,437.5C 472.218,445.039 471.052,452.372 469.5,459.5 Z"/></g>
<g><path style="opacity:0.18" fill="#495c78" d="M 362.5,293.5 C 362.5,293.833 362.5,294.167 362.5,294.5C 353.148,294.434 343.815,294.768 334.5,295.5C 335.952,294.698 337.618,294.198 339.5,294C 347.159,293.5 354.826,293.334 362.5,293.5 Z"/></g>
<g><path style="opacity:0.942" fill="#1a222d" d="M 329.5,306.5 C 329.611,307.117 329.944,307.617 330.5,308C 328.725,309.439 326.725,310.439 324.5,311C 323.129,314.38 320.962,317.213 318,319.5C 316.985,323.805 316.152,328.139 315.5,332.5C 311.306,337.605 306.64,342.272 301.5,346.5C 299.084,349.873 296.584,353.206 294,356.5C 292.683,362.757 292.183,369.091 292.5,375.5C 286.6,342.977 298.933,319.977 329.5,306.5 Z"/></g>
<g><path style="opacity:1" fill="#9bb5e8" d="M 362.5,294.5 C 363.043,294.56 363.376,294.893 363.5,295.5C 358.19,296.77 352.857,297.936 347.5,299C 341.046,300.645 335.046,303.145 329.5,306.5C 298.933,319.977 286.6,342.977 292.5,375.5C 292.971,377.579 293.637,379.579 294.5,381.5C 294.631,382.376 294.298,383.043 293.5,383.5C 288.743,385.962 283.91,388.295 279,390.5C 278.066,389.142 277.232,387.808 276.5,386.5C 268.312,366.089 270.478,346.755 283,328.5C 296.222,311.308 313.388,300.308 334.5,295.5C 343.815,294.768 353.148,294.434 362.5,294.5 Z"/></g>
<g><path style="opacity:1" fill="#f2f3f3" d="M 469.5,459.5 C 469.483,461.565 469.15,463.565 468.5,465.5C 466.777,467.78 466.111,470.447 466.5,473.5C 466.768,475.099 466.434,476.432 465.5,477.5C 464.262,479.214 463.595,481.214 463.5,483.5C 461.762,491.637 458.429,498.97 453.5,505.5C 452.094,505.973 451.427,506.973 451.5,508.5C 450.833,509.833 449.833,510.833 448.5,511.5C 447.167,512.167 446.167,513.167 445.5,514.5C 444.167,515.167 443.167,516.167 442.5,517.5C 440.025,520.241 437.025,522.241 433.5,523.5C 411.042,532.314 389.042,531.314 367.5,520.5C 359.732,515.234 352.732,509.067 346.5,502C 349.083,496.751 349.916,491.251 349,485.5C 345.57,481.083 341.07,479.416 335.5,480.5C 335.5,479.5 335.5,478.5 335.5,477.5C 352.134,469.501 360.8,456.168 361.5,437.5C 360.831,432.16 360.164,426.827 359.5,421.5C 360.764,415.748 361.43,409.914 361.5,404C 360.208,397.238 359.708,390.405 360,383.5C 361.122,381.376 362.622,379.543 364.5,378C 369.721,376.768 375.054,376.101 380.5,376C 386.354,375.388 391.187,372.888 395,368.5C 398.139,360.888 401.806,353.554 406,346.5C 409.87,341.437 414.704,340.27 420.5,343C 426.444,346.611 432.111,350.611 437.5,355C 440.347,355.944 442.847,355.444 445,353.5C 446.667,349.5 448.333,345.5 450,341.5C 451.388,340.446 452.888,340.28 454.5,341C 459.666,346.179 463.166,352.346 465,359.5C 473.185,392.523 474.685,425.856 469.5,459.5 Z"/></g>
<g><path style="opacity:1" fill="#7588cd" d="M 319.5,398.5 C 324.593,400.08 329.259,402.413 333.5,405.5C 333.539,406.583 333.873,407.583 334.5,408.5C 329.5,409.167 324.5,409.833 319.5,410.5C 314.775,412.205 310.108,413.872 305.5,415.5C 305.238,414.022 305.571,412.689 306.5,411.5C 311.215,407.452 315.548,403.119 319.5,398.5 Z"/></g>
<g><path style="opacity:1" fill="#2b363a" d="M 396.5,405.5 C 401.947,404.826 406.947,405.992 411.5,409C 415.12,414.886 413.453,417.72 406.5,417.5C 402.1,417.242 397.767,416.575 393.5,415.5C 391.744,413.809 391.244,411.809 392,409.5C 393.397,407.93 394.897,406.596 396.5,405.5 Z"/></g>
<g><path style="opacity:1" fill="#2c373c" d="M 444.5,400.5 C 451.633,399.735 457.466,402.068 462,407.5C 462.993,413.502 460.493,415.668 454.5,414C 450.63,412.713 446.964,411.047 443.5,409C 440.815,405.883 441.148,403.05 444.5,400.5 Z"/></g>
<g><path style="opacity:1" fill="#252f31" d="M 440.5,414.5 C 440.666,419.179 440.499,423.845 440,428.5C 439.667,428.833 439.333,429.167 439,429.5C 438.809,427.292 438.309,425.292 437.5,423.5C 437.334,416.159 437.5,408.826 438,401.5C 439.522,405.632 440.355,409.965 440.5,414.5 Z"/></g>
<g><path style="opacity:0.798" fill="#38488a" d="M 324.5,391.5 C 323.391,391.557 322.391,391.89 321.5,392.5C 321.66,390.801 321.494,389.134 321,387.5C 320.95,389.744 320.117,391.411 318.5,392.5C 320.17,389.694 319.837,387.194 317.5,385C 305.056,382.681 293.389,385.015 282.5,392C 258.54,406.405 236.706,423.571 217,443.5C 214.615,446.379 212.448,449.379 210.5,452.5C 209.833,452.5 209.167,452.5 208.5,452.5C 213.737,443.904 220.071,436.071 227.5,429C 242.266,415.788 257.933,403.788 274.5,393C 276.229,391.211 276.896,389.044 276.5,386.5C 277.232,387.808 278.066,389.142 279,390.5C 283.91,388.295 288.743,385.962 293.5,383.5C 294.298,383.043 294.631,382.376 294.5,381.5C 296.854,381.162 299.187,380.662 301.5,380C 313.497,376.044 321.164,379.878 324.5,391.5 Z"/></g>
<g><path style="opacity:1" fill="#2b353a" d="M 398.5,423.5 C 401.97,422.875 404.804,423.875 407,426.5C 407.667,430.833 407.667,435.167 407,439.5C 406.459,442.209 404.959,444.209 402.5,445.5C 401.304,445.154 401.304,444.654 402.5,444C 394.973,442.133 392.14,437.299 394,429.5C 394.804,426.854 396.304,424.854 398.5,423.5 Z"/></g>
<g><path style="opacity:1" fill="#2e373d" d="M 443.5,444.5 C 443.5,441.167 443.5,437.833 443.5,434.5C 444.862,427.927 448.362,426.26 454,429.5C 457.333,434.833 457.333,440.167 454,445.5C 451.834,447.121 449.334,447.955 446.5,448C 448.707,450.984 448.207,451.15 445,448.5C 444.209,447.255 443.709,445.922 443.5,444.5 Z"/></g>
<g><path style="opacity:1" fill="#334da7" d="M 321.5,392.5 C 320.833,394.5 320.167,396.5 319.5,398.5C 315.548,403.119 311.215,407.452 306.5,411.5C 305.571,412.689 305.238,414.022 305.5,415.5C 310.108,413.872 314.775,412.205 319.5,410.5C 324.5,409.833 329.5,409.167 334.5,408.5C 333.873,407.583 333.539,406.583 333.5,405.5C 340.15,409.818 344.483,415.818 346.5,423.5C 347.6,425.277 348.434,427.277 349,429.5C 349.667,438.167 349.667,446.833 349,455.5C 344.951,464.085 339.118,471.252 331.5,477C 332.793,477.49 334.127,477.657 335.5,477.5C 335.5,478.5 335.5,479.5 335.5,480.5C 337.042,481.163 338.709,481.83 340.5,482.5C 338.031,483.168 335.698,483.835 333.5,484.5C 327.022,486.036 320.688,488.036 314.5,490.5C 313.761,490.631 313.094,490.464 312.5,490C 313.71,488.961 314.71,487.794 315.5,486.5C 324.403,479.095 332.903,471.095 341,462.5C 343.569,458.792 344.903,454.792 345,450.5C 344.097,449.299 342.931,448.465 341.5,448C 328.819,446.834 317.153,449.668 306.5,456.5C 305.833,456.5 305.5,456.167 305.5,455.5C 311.405,450.202 317.738,445.369 324.5,441C 331.189,435.652 336.355,429.152 340,421.5C 341.165,417.316 339.665,414.483 335.5,413C 326.041,412.092 317.041,413.758 308.5,418C 303.932,420.452 299.265,422.618 294.5,424.5C 290.155,424.702 289.488,423.369 292.5,420.5C 298.138,415.033 303.971,409.699 310,404.5C 313.474,400.875 316.307,396.875 318.5,392.5C 320.117,391.411 320.95,389.744 321,387.5C 321.494,389.134 321.66,390.801 321.5,392.5 Z"/></g>
<g><path style="opacity:1" fill="#3359d3" d="M 346.5,423.5 C 348.202,431.046 348.868,438.713 348.5,446.5C 341.62,445.045 334.62,444.045 327.5,443.5C 330.92,439.514 334.753,435.848 339,432.5C 341.48,429.598 343.313,426.264 344.5,422.5C 345.183,422.863 345.85,423.196 346.5,423.5 Z"/></g>
<g><path style="opacity:1" fill="#f3f4f4" d="M 318.5,392.5 C 316.307,396.875 313.474,400.875 310,404.5C 303.971,409.699 298.138,415.033 292.5,420.5C 289.101,422.388 286.101,424.888 283.5,428C 268.674,436.496 254.674,446.163 241.5,457C 242.167,457.667 242.833,457.667 243.5,457C 260.226,445.643 277.226,434.81 294.5,424.5C 299.265,422.618 303.932,420.452 308.5,418C 317.041,413.758 326.041,412.092 335.5,413C 339.665,414.483 341.165,417.316 340,421.5C 336.355,429.152 331.189,435.652 324.5,441C 317.738,445.369 311.405,450.202 305.5,455.5C 291.162,464 277.495,473.5 264.5,484C 272.815,479.327 281.148,474.327 289.5,469C 295.234,464.812 300.901,460.646 306.5,456.5C 317.153,449.668 328.819,446.834 341.5,448C 342.931,448.465 344.097,449.299 345,450.5C 344.903,454.792 343.569,458.792 341,462.5C 332.903,471.095 324.403,479.095 315.5,486.5C 306.727,493.062 297.394,498.896 287.5,504C 282.167,508 276.833,512 271.5,516C 285.713,507.55 300.046,499.05 314.5,490.5C 320.688,488.036 327.022,486.036 333.5,484.5C 336.85,484.335 340.183,484.502 343.5,485C 346.29,487.21 347.123,490.044 346,493.5C 344.527,497.779 342.527,501.779 340,505.5C 326.752,520.927 311.586,533.927 294.5,544.5C 291.832,544.834 289.832,546.167 288.5,548.5C 292.098,562.59 293.431,576.923 292.5,591.5C 292.5,592.833 292.5,594.167 292.5,595.5C 290.808,602.64 289.474,609.973 288.5,617.5C 285.497,625.109 282.33,632.775 279,640.5C 267.657,659.864 255.823,678.864 243.5,697.5C 242.518,698.141 241.518,698.807 240.5,699.5C 238.125,694.75 235.792,690.084 233.5,685.5C 228.537,673.587 223.204,661.92 217.5,650.5C 217.5,650.167 217.5,649.833 217.5,649.5C 209.07,630.312 200.403,611.312 191.5,592.5C 188.878,585.623 185.878,578.956 182.5,572.5C 180.124,566.077 177.458,559.744 174.5,553.5C 175.374,550.211 176.041,546.877 176.5,543.5C 177.433,536.087 179.433,529.087 182.5,522.5C 183.924,520.485 184.59,518.152 184.5,515.5C 185.442,509.362 187.442,503.696 190.5,498.5C 192.411,494.767 193.744,490.767 194.5,486.5C 194.5,486.167 194.5,485.833 194.5,485.5C 199.048,474.228 204.382,463.228 210.5,452.5C 212.448,449.379 214.615,446.379 217,443.5C 236.706,423.571 258.54,406.405 282.5,392C 293.389,385.015 305.056,382.681 317.5,385C 319.837,387.194 320.17,389.694 318.5,392.5 Z"/></g>
<g><path style="opacity:1" fill="#465994" d="M 292.5,420.5 C 289.488,423.369 290.155,424.702 294.5,424.5C 277.226,434.81 260.226,445.643 243.5,457C 242.833,457.667 242.167,457.667 241.5,457C 254.674,446.163 268.674,436.496 283.5,428C 286.101,424.888 289.101,422.388 292.5,420.5 Z"/></g>
<g><path style="opacity:1" fill="#969ca0" d="M 441.5,429.5 C 442.167,431.167 442.833,432.833 443.5,434.5C 443.5,437.833 443.5,441.167 443.5,444.5C 442.833,451.5 442.167,458.5 441.5,465.5C 441.5,453.5 441.5,441.5 441.5,429.5 Z"/></g>
<g><path style="opacity:1" fill="#2e373c" d="M 440.5,414.5 C 441.487,419.305 441.821,424.305 441.5,429.5C 441.5,441.5 441.5,453.5 441.5,465.5C 441.38,466.586 440.713,467.253 439.5,467.5C 437.056,466.778 434.722,465.778 432.5,464.5C 431.653,469.154 430.987,473.821 430.5,478.5C 420.926,479.922 413.093,476.922 407,469.5C 406.312,468.668 406.479,468.002 407.5,467.5C 413.146,472.715 419.813,475.382 427.5,475.5C 427.5,469.833 427.5,464.167 427.5,458.5C 430.833,459.5 434.167,460.5 437.5,461.5C 437.5,448.833 437.5,436.167 437.5,423.5C 438.309,425.292 438.809,427.292 439,429.5C 439.333,429.167 439.667,428.833 440,428.5C 440.499,423.845 440.666,419.179 440.5,414.5 Z"/></g>
<g><path style="opacity:1" fill="#4e5f94" d="M 305.5,455.5 C 305.5,456.167 305.833,456.5 306.5,456.5C 300.901,460.646 295.234,464.812 289.5,469C 281.148,474.327 272.815,479.327 264.5,484C 277.495,473.5 291.162,464 305.5,455.5 Z"/></g>
<g><path style="opacity:1" fill="#9ab5f0" d="M 324.5,391.5 C 332.854,393.348 340.187,397.181 346.5,403C 351.25,409.047 355.583,415.214 359.5,421.5C 360.164,426.827 360.831,432.16 361.5,437.5C 360.8,456.168 352.134,469.501 335.5,477.5C 334.127,477.657 332.793,477.49 331.5,477C 339.118,471.252 344.951,464.085 349,455.5C 349.667,446.833 349.667,438.167 349,429.5C 348.434,427.277 347.6,425.277 346.5,423.5C 344.483,415.818 340.15,409.818 333.5,405.5C 329.259,402.413 324.593,400.08 319.5,398.5C 320.167,396.5 320.833,394.5 321.5,392.5C 322.391,391.89 323.391,391.557 324.5,391.5 Z"/></g>
<g><path style="opacity:0.051" fill="#606162" d="M 468.5,465.5 C 468.198,468.373 467.531,471.039 466.5,473.5C 466.111,470.447 466.777,467.78 468.5,465.5 Z"/></g>
<g><path style="opacity:0.439" fill="#464f7b" d="M 208.5,452.5 C 209.167,452.5 209.833,452.5 210.5,452.5C 204.382,463.228 199.048,474.228 194.5,485.5C 197.632,473.747 202.299,462.747 208.5,452.5 Z"/></g>
<g><path style="opacity:0.075" fill="#4b4f53" d="M 465.5,477.5 C 465.741,479.898 465.074,481.898 463.5,483.5C 463.595,481.214 464.262,479.214 465.5,477.5 Z"/></g>
<g><path style="opacity:1" fill="#303a3e" d="M 393.5,477.5 C 397.144,477.708 399.311,479.708 400,483.5C 403.745,485.877 407.911,487.21 412.5,487.5C 402.234,491.866 395.9,488.532 393.5,477.5 Z"/></g>
<g><path style="opacity:0.639" fill="#697386" d="M 194.5,486.5 C 193.744,490.767 192.411,494.767 190.5,498.5C 190.861,494.085 192.194,490.085 194.5,486.5 Z"/></g>
<g><path style="opacity:1" fill="#556393" d="M 315.5,486.5 C 314.71,487.794 313.71,488.961 312.5,490C 313.094,490.464 313.761,490.631 314.5,490.5C 300.046,499.05 285.713,507.55 271.5,516C 276.833,512 282.167,508 287.5,504C 297.394,498.896 306.727,493.062 315.5,486.5 Z"/></g>
<g><path style="opacity:0.016" fill="#2c4143" d="M 453.5,505.5 C 453.573,507.027 452.906,508.027 451.5,508.5C 451.427,506.973 452.094,505.973 453.5,505.5 Z"/></g>
<g><path style="opacity:1" fill="#3b51a3" d="M 335.5,480.5 C 341.07,479.416 345.57,481.083 349,485.5C 349.916,491.251 349.083,496.751 346.5,502C 352.732,509.067 359.732,515.234 367.5,520.5C 365.123,520.216 362.956,520.216 361,520.5C 360,518.833 359,517.167 358,515.5C 356.581,516.46 355.081,517.293 353.5,518C 355.107,519.049 355.773,520.549 355.5,522.5C 350.821,517.982 346.654,512.982 343,507.5C 335.963,516.205 327.963,523.871 319,530.5C 318.53,531.577 318.697,532.577 319.5,533.5C 317.863,532.782 316.197,532.616 314.5,533C 308.795,538.68 302.128,542.514 294.5,544.5C 311.586,533.927 326.752,520.927 340,505.5C 342.527,501.779 344.527,497.779 346,493.5C 347.123,490.044 346.29,487.21 343.5,485C 340.183,484.502 336.85,484.335 333.5,484.5C 335.698,483.835 338.031,483.168 340.5,482.5C 338.709,481.83 337.042,481.163 335.5,480.5 Z"/></g>
<g><path style="opacity:0.004" fill="#292b2d" d="M 448.5,511.5 C 448.5,513.5 447.5,514.5 445.5,514.5C 446.167,513.167 447.167,512.167 448.5,511.5 Z"/></g>
<g><path style="opacity:1" fill="#f3f4f5" d="M 355.5,522.5 C 362.098,529.141 369.765,534.308 378.5,538C 384.358,539.921 390.358,541.087 396.5,541.5C 395.126,551.416 392.793,561.083 389.5,570.5C 387.682,574.808 385.848,579.141 384,583.5C 380.968,587.359 377.802,591.026 374.5,594.5C 371.106,596.43 367.606,596.763 364,595.5C 352.405,572.421 337.572,551.754 319.5,533.5C 318.697,532.577 318.53,531.577 319,530.5C 327.963,523.871 335.963,516.205 343,507.5C 346.654,512.982 350.821,517.982 355.5,522.5 Z"/></g>
<g><path style="opacity:0.004" fill="#222226" d="M 445.5,514.5 C 445.5,516.5 444.5,517.5 442.5,517.5C 443.167,516.167 444.167,515.167 445.5,514.5 Z"/></g>
<g><path style="opacity:0.349" fill="#878b90" d="M 184.5,515.5 C 184.59,518.152 183.924,520.485 182.5,522.5C 182.41,519.848 183.076,517.515 184.5,515.5 Z"/></g>
<g><path style="opacity:1" fill="#3651ad" d="M 367.5,520.5 C 389.042,531.314 411.042,532.314 433.5,523.5C 432.833,524.5 432.167,525.5 431.5,526.5C 428.316,527.643 424.983,528.309 421.5,528.5C 414.162,530.519 406.662,531.852 399,532.5C 398.948,539.027 398.115,545.527 396.5,552C 396.53,554.424 396.863,556.757 397.5,559C 396.552,559.483 395.552,559.649 394.5,559.5C 393.607,563.613 391.94,567.28 389.5,570.5C 392.793,561.083 395.126,551.416 396.5,541.5C 390.358,541.087 384.358,539.921 378.5,538C 369.765,534.308 362.098,529.141 355.5,522.5C 355.773,520.549 355.107,519.049 353.5,518C 355.081,517.293 356.581,516.46 358,515.5C 359,517.167 360,518.833 361,520.5C 362.956,520.216 365.123,520.216 367.5,520.5 Z"/></g>
<g><path style="opacity:1" fill="#3459c7" d="M 421.5,528.5 C 421.5,529.833 421.5,531.167 421.5,532.5C 419.335,532.116 417.668,532.783 416.5,534.5C 418.195,539.211 419.862,543.877 421.5,548.5C 421.701,552.228 420.701,555.561 418.5,558.5C 409.131,568.812 398.965,577.479 388,584.5C 387.282,583.549 386.449,583.383 385.5,584C 383.534,587.431 381.2,590.598 378.5,593.5C 377.311,594.429 375.978,594.762 374.5,594.5C 377.802,591.026 380.968,587.359 384,583.5C 385.848,579.141 387.682,574.808 389.5,570.5C 391.94,567.28 393.607,563.613 394.5,559.5C 395.552,559.649 396.552,559.483 397.5,559C 396.863,556.757 396.53,554.424 396.5,552C 398.115,545.527 398.948,539.027 399,532.5C 406.662,531.852 414.162,530.519 421.5,528.5 Z"/></g>
<g><path style="opacity:1" fill="#375bd4" d="M 431.5,526.5 C 434.328,529.675 436.328,533.342 437.5,537.5C 439.158,545.283 438.825,552.95 436.5,560.5C 432.785,563.548 429.452,566.881 426.5,570.5C 417.013,579.477 406.513,587.144 395,593.5C 393.7,592.293 392.2,591.626 390.5,591.5C 390.5,593.5 390.5,595.5 390.5,597.5C 384.383,600.118 378.049,602.284 371.5,604C 368.154,607.172 364.154,608.672 359.5,608.5C 359.649,607.448 359.483,606.448 359,605.5C 355.686,601.352 352.186,597.352 348.5,593.5C 347.52,590.914 347.187,588.247 347.5,585.5C 345.519,586.348 343.519,586.848 341.5,587C 327.807,572.388 311.474,561.388 292.5,554C 291.424,552.274 291.257,550.441 292,548.5C 293.481,547.529 294.315,546.196 294.5,544.5C 302.128,542.514 308.795,538.68 314.5,533C 316.197,532.616 317.863,532.782 319.5,533.5C 337.572,551.754 352.405,572.421 364,595.5C 367.606,596.763 371.106,596.43 374.5,594.5C 375.978,594.762 377.311,594.429 378.5,593.5C 381.2,590.598 383.534,587.431 385.5,584C 386.449,583.383 387.282,583.549 388,584.5C 398.965,577.479 409.131,568.812 418.5,558.5C 420.701,555.561 421.701,552.228 421.5,548.5C 419.862,543.877 418.195,539.211 416.5,534.5C 417.668,532.783 419.335,532.116 421.5,532.5C 421.5,531.167 421.5,529.833 421.5,528.5C 424.983,528.309 428.316,527.643 431.5,526.5 Z"/></g>
<g><path style="opacity:0.412" fill="#5f626d" d="M 176.5,543.5 C 176.041,546.877 175.374,550.211 174.5,553.5C 174.167,553.5 173.833,553.5 173.5,553.5C 173.723,549.838 174.723,546.505 176.5,543.5 Z"/></g>
<g><path style="opacity:0.916" fill="#2e4798" d="M 437.5,537.5 C 443.259,551.09 440.426,562.757 429,572.5C 427.991,574.025 427.491,575.692 427.5,577.5C 427.167,577.5 426.833,577.5 426.5,577.5C 425.167,575.167 425.167,572.833 426.5,570.5C 429.452,566.881 432.785,563.548 436.5,560.5C 438.825,552.95 439.158,545.283 437.5,537.5 Z"/></g>
<g><path style="opacity:1" fill="#3557c7" d="M 171.5,555.5 C 172.5,555.5 173.5,555.5 174.5,555.5C 174.34,557.199 174.506,558.866 175,560.5C 177.112,563.727 178.945,567.06 180.5,570.5C 179.542,570.047 178.708,569.381 178,568.5C 177.667,568.833 177.333,569.167 177,569.5C 176.784,567.616 176.117,565.949 175,564.5C 173.068,566.038 170.901,567.205 168.5,568C 169.99,568.745 170.99,569.912 171.5,571.5C 169.548,573.126 168.214,575.126 167.5,577.5C 165.278,577.822 163.444,577.155 162,575.5C 160.667,576.167 159.667,577.167 159,578.5C 158.667,578.167 158.333,577.833 158,577.5C 156.333,581.167 153.667,583.833 150,585.5C 148.285,588.435 146.452,591.268 144.5,594C 145.363,596.362 147.03,597.862 149.5,598.5C 146.152,599.287 142.818,600.121 139.5,601C 138.167,602 138.167,603 139.5,604C 138.707,605.085 138.04,606.252 137.5,607.5C 138.967,607.723 140.467,608.056 142,608.5C 141.57,606.873 141.404,605.373 141.5,604C 142.126,603.25 142.626,602.416 143,601.5C 143.497,604.146 143.664,606.813 143.5,609.5C 141.508,609.328 139.842,609.995 138.5,611.5C 137.304,611.154 137.304,610.654 138.5,610C 134.453,608.954 133.786,609.787 136.5,612.5C 135.917,614.002 135.084,615.335 134,616.5C 133.667,615.833 133.333,615.167 133,614.5C 132.333,615.833 131.667,615.833 131,614.5C 129.766,616.734 127.933,618.234 125.5,619C 125.094,622.415 123.428,625.082 120.5,627C 120.833,627.333 121.167,627.667 121.5,628C 120.211,629.802 118.544,630.969 116.5,631.5C 118.358,629.117 119.692,626.45 120.5,623.5C 137.025,600.437 154.025,577.771 171.5,555.5 Z"/></g>
<g><path style="opacity:1" fill="#576ec0" d="M 173.5,553.5 C 173.833,553.5 174.167,553.5 174.5,553.5C 177.458,559.744 180.124,566.077 182.5,572.5C 181.5,572.167 180.833,571.5 180.5,570.5C 178.945,567.06 177.112,563.727 175,560.5C 174.506,558.866 174.34,557.199 174.5,555.5C 173.5,555.5 172.5,555.5 171.5,555.5C 171.833,554.5 172.5,553.833 173.5,553.5 Z"/></g>
<g><path style="opacity:1" fill="#365ad7" d="M 426.5,577.5 C 426.833,577.5 427.167,577.5 427.5,577.5C 428.167,577.5 428.5,577.833 428.5,578.5C 427.876,578.917 427.543,579.584 427.5,580.5C 431.15,591.269 435.317,601.935 440,612.5C 440.101,615.921 440.934,619.088 442.5,622C 441.366,622.316 440.366,623.149 439.5,624.5C 439.833,625.167 440.167,625.833 440.5,626.5C 441.5,625.167 442.5,625.167 443.5,626.5C 445.294,629.791 447.294,632.791 449.5,635.5C 450.167,635.5 450.5,635.833 450.5,636.5C 450.309,639.56 449.975,642.727 449.5,646C 451.303,646.637 452.636,647.803 453.5,649.5C 456.502,657.796 459.669,666.129 463,674.5C 464.277,676.747 465.777,678.747 467.5,680.5C 467.5,680.833 467.5,681.167 467.5,681.5C 467.678,684.216 468.178,686.883 469,689.5C 469.671,690.252 470.504,690.586 471.5,690.5C 474.06,695.62 476.06,700.954 477.5,706.5C 478.556,710.725 478.556,714.891 477.5,719C 478.449,719.617 479.282,719.451 480,718.5C 481.848,720.018 483.348,721.851 484.5,724C 486.74,724.977 489.073,725.477 491.5,725.5C 494.744,726.463 497.744,727.796 500.5,729.5C 505.844,732.794 511.51,735.627 517.5,738C 519.473,738.495 521.473,738.662 523.5,738.5C 525.153,738.66 526.486,739.326 527.5,740.5C 531.948,743.536 536.948,745.202 542.5,745.5C 542.833,745.5 543.167,745.5 543.5,745.5C 543.297,747.39 543.963,748.89 545.5,750C 554.377,752.942 563.377,755.442 572.5,757.5C 576.608,759.875 580.941,761.875 585.5,763.5C 586.729,766.199 586.729,768.865 585.5,771.5C 569.408,812.855 554.075,854.521 539.5,896.5C 538.262,898.214 537.595,900.214 537.5,902.5C 537.5,902.833 537.5,903.167 537.5,903.5C 535.907,904.348 534.74,905.681 534,907.5C 533.517,908.448 533.351,909.448 533.5,910.5C 524.714,906.686 516.047,902.686 507.5,898.5C 504.569,895.087 502.569,891.087 501.5,886.5C 505.325,879.18 508.325,871.513 510.5,863.5C 518.067,840.294 526.9,817.627 537,795.5C 537.234,791.686 538.068,788.019 539.5,784.5C 539.167,784.167 538.833,783.833 538.5,783.5C 531.387,797.677 525.553,812.343 521,827.5C 519.274,830.009 517.774,832.676 516.5,835.5C 513.524,843.488 510.524,851.488 507.5,859.5C 506.883,859.611 506.383,859.944 506,860.5C 504.061,866.426 502.228,872.093 500.5,877.5C 497.348,872.701 495.515,867.368 495,861.5C 492.616,859.689 490.949,857.355 490,854.5C 488.272,849.721 487.272,844.721 487,839.5C 485.701,838.91 484.868,837.91 484.5,836.5C 480.848,822.709 476.682,809.043 472,795.5C 471.608,791.472 471.108,787.472 470.5,783.5C 467.654,783.191 466.154,781.525 466,778.5C 464.387,773.409 463.22,768.242 462.5,763C 462.616,761.732 462.949,760.398 463.5,759C 460.878,753.562 458.378,748.062 456,742.5C 455.931,737.948 454.764,733.782 452.5,730C 452.833,729.667 453.167,729.333 453.5,729C 452,725.533 450.5,722.033 449,718.5C 446.426,709.648 444.093,700.648 442,691.5C 436.527,677.776 431.361,663.61 426.5,649C 426.735,648.127 427.069,647.293 427.5,646.5C 427.154,645.304 426.654,645.304 426,646.5C 424.132,640.913 421.965,635.413 419.5,630C 419.957,629.586 420.291,629.086 420.5,628.5C 419.209,622.965 417.542,617.631 415.5,612.5C 414.167,612.5 412.833,612.5 411.5,612.5C 422.224,660.496 430.724,709.162 437,758.5C 437.414,758.957 437.914,759.291 438.5,759.5C 439.955,766.311 440.288,772.811 439.5,779C 441.29,787.415 442.957,795.581 444.5,803.5C 442.891,807.97 443.558,811.97 446.5,815.5C 449.754,836.536 452.421,857.536 454.5,878.5C 455.404,890.375 456.738,902.209 458.5,914C 458.472,915.07 458.139,915.903 457.5,916.5C 450.632,909.465 443.299,902.965 435.5,897C 434.668,896.312 434.002,896.479 433.5,897.5C 439.222,906.27 445.888,914.27 453.5,921.5C 453.539,922.583 453.873,923.583 454.5,924.5C 456.053,925.439 457.387,926.606 458.5,928C 458.18,929.653 457.18,930.653 455.5,931C 457.973,932.402 457.973,933.902 455.5,935.5C 452.905,933.841 450.238,933.507 447.5,934.5C 448.685,937.269 450.518,938.269 453,937.5C 453.667,938.833 453.667,940.167 453,941.5C 451.455,940.179 450.289,940.512 449.5,942.5C 450.025,943.192 450.692,943.692 451.5,944C 434.503,944.5 417.503,944.667 400.5,944.5C 400.498,940.173 399.165,936.507 396.5,933.5C 387.373,904.02 378.373,874.353 369.5,844.5C 367.255,831.829 364.255,819.496 360.5,807.5C 361.873,807.657 363.207,807.49 364.5,807C 362.211,804.508 359.877,802.008 357.5,799.5C 355.303,794.754 353.969,789.754 353.5,784.5C 352.818,783.757 352.151,783.091 351.5,782.5C 350.17,779.906 348.837,777.239 347.5,774.5C 345.472,773.451 343.472,772.451 341.5,771.5C 340.365,769.787 338.698,769.12 336.5,769.5C 336.5,769.167 336.5,768.833 336.5,768.5C 292.669,767.667 248.669,767.167 204.5,767C 207.787,762.873 211.787,759.707 216.5,757.5C 226.501,744.666 237.668,733 250,722.5C 250.667,720.5 250.667,718.5 250,716.5C 246.442,710.583 244.275,704.249 243.5,697.5C 255.823,678.864 267.657,659.864 279,640.5C 282.33,632.775 285.497,625.109 288.5,617.5C 291.914,610.688 293.248,603.354 292.5,595.5C 292.5,594.167 292.5,592.833 292.5,591.5C 293.827,587.049 294.494,582.216 294.5,577C 294.068,570.735 294.068,564.568 294.5,558.5C 312.193,567.696 327.693,579.696 341,594.5C 338.488,609.414 336.154,624.414 334,639.5C 332.302,656.347 334.302,672.68 340,688.5C 342.464,693.501 346.298,694.835 351.5,692.5C 351.666,688.154 351.499,683.821 351,679.5C 348.867,672.769 346.534,666.102 344,659.5C 341.214,649 340.214,638.333 341,627.5C 342.375,619.211 343.375,610.878 344,602.5C 345.133,600.789 346.633,600.289 348.5,601C 352.157,605.823 356.157,610.323 360.5,614.5C 369.65,610.619 378.65,606.452 387.5,602C 388.793,601.51 390.127,601.343 391.5,601.5C 394.888,617.705 395.388,634.038 393,650.5C 387.66,663.174 383.16,676.174 379.5,689.5C 379.551,691.1 379.884,692.6 380.5,694C 384.898,695.378 388.398,694.212 391,690.5C 398.133,670.124 400.8,649.124 399,627.5C 398.109,618.287 396.943,609.12 395.5,600C 398.246,595.262 402.246,591.929 407.5,590C 412.317,585.76 417.317,581.76 422.5,578C 423.793,577.51 425.127,577.343 426.5,577.5 Z"/></g>
<g><path style="opacity:1" fill="#355ad6" d="M 180.5,570.5 C 180.833,571.5 181.5,572.167 182.5,572.5C 185.878,578.956 188.878,585.623 191.5,592.5C 191.678,595.216 192.178,597.883 193,600.5C 195.427,605.732 197.927,610.899 200.5,616C 200.355,616.772 200.022,617.439 199.5,618C 196.833,618.333 194.167,618.667 191.5,619C 191.888,620.525 191.888,622.192 191.5,624C 195.53,623.818 199.197,622.651 202.5,620.5C 202.33,621.822 202.663,622.989 203.5,624C 201.905,623.383 200.572,623.716 199.5,625C 200.167,625.667 200.833,626.333 201.5,627C 199.539,625.709 197.539,624.876 195.5,624.5C 194.809,626.13 194.476,627.964 194.5,630C 196.047,630.333 197.38,629.833 198.5,628.5C 199.506,628.938 199.506,629.604 198.5,630.5C 201.042,633.035 203.542,633.035 206,630.5C 208.761,633.402 209.261,636.735 207.5,640.5C 207.737,643.063 208.237,643.063 209,640.5C 210.595,642.425 210.762,644.425 209.5,646.5C 209.833,646.833 210.167,647.167 210.5,647.5C 211.308,645.577 211.808,643.577 212,641.5C 211.727,645.712 213.56,648.378 217.5,649.5C 217.5,649.833 217.5,650.167 217.5,650.5C 218.545,656.591 220.712,662.258 224,667.5C 223.686,670.546 223.853,673.546 224.5,676.5C 227.936,677.433 230.102,680.099 231,684.5C 231.671,685.252 232.504,685.586 233.5,685.5C 233.678,688.216 234.178,690.883 235,693.5C 240.155,701.143 243.655,709.477 245.5,718.5C 244.267,721.297 242.767,723.963 241,726.5C 235.731,730.855 230.565,735.355 225.5,740C 217.297,749.369 208.631,758.202 199.5,766.5C 147.838,767.5 96.171,767.833 44.5,767.5C 45.2295,762.87 45.5628,758.203 45.5,753.5C 45.8511,750.097 46.5178,746.763 47.5,743.5C 50.9095,736.171 53.5762,728.505 55.5,720.5C 56.8333,720.5 58.1667,720.5 59.5,720.5C 59.3505,719.448 59.5172,718.448 60,717.5C 61.7173,718.388 62.884,717.721 63.5,715.5C 62.772,713.845 62.6053,712.179 63,710.5C 63.414,710.957 63.914,711.291 64.5,711.5C 65.724,709.172 65.724,706.839 64.5,704.5C 66.8391,699.142 69.1724,693.809 71.5,688.5C 72.4959,688.586 73.3292,688.252 74,687.5C 79.3557,679.327 84.8557,671.327 90.5,663.5C 99.5454,653.123 108.212,642.457 116.5,631.5C 118.544,630.969 120.211,629.802 121.5,628C 121.167,627.667 120.833,627.333 120.5,627C 123.428,625.082 125.094,622.415 125.5,619C 127.933,618.234 129.766,616.734 131,614.5C 131.667,615.833 132.333,615.833 133,614.5C 133.333,615.167 133.667,615.833 134,616.5C 135.084,615.335 135.917,614.002 136.5,612.5C 133.786,609.787 134.453,608.954 138.5,610C 137.304,610.654 137.304,611.154 138.5,611.5C 139.842,609.995 141.508,609.328 143.5,609.5C 143.664,606.813 143.497,604.146 143,601.5C 142.626,602.416 142.126,603.25 141.5,604C 141.404,605.373 141.57,606.873 142,608.5C 140.467,608.056 138.967,607.723 137.5,607.5C 138.04,606.252 138.707,605.085 139.5,604C 138.167,603 138.167,602 139.5,601C 142.818,600.121 146.152,599.287 149.5,598.5C 147.03,597.862 145.363,596.362 144.5,594C 146.452,591.268 148.285,588.435 150,585.5C 153.667,583.833 156.333,581.167 158,577.5C 158.333,577.833 158.667,578.167 159,578.5C 159.667,577.167 160.667,576.167 162,575.5C 163.444,577.155 165.278,577.822 167.5,577.5C 168.214,575.126 169.548,573.126 171.5,571.5C 170.99,569.912 169.99,568.745 168.5,568C 170.901,567.205 173.068,566.038 175,564.5C 176.117,565.949 176.784,567.616 177,569.5C 177.333,569.167 177.667,568.833 178,568.5C 178.708,569.381 179.542,570.047 180.5,570.5 Z"/></g>
<g><path style="opacity:0.969" fill="#324da6" d="M 428.5,578.5 C 435.791,597.412 442.791,616.412 449.5,635.5C 447.294,632.791 445.294,629.791 443.5,626.5C 442.5,625.167 441.5,625.167 440.5,626.5C 440.167,625.833 439.833,625.167 439.5,624.5C 440.366,623.149 441.366,622.316 442.5,622C 440.934,619.088 440.101,615.921 440,612.5C 435.317,601.935 431.15,591.269 427.5,580.5C 427.543,579.584 427.876,578.917 428.5,578.5 Z"/></g>
<g><path style="opacity:1" fill="#2b4bae" d="M 294.5,544.5 C 294.315,546.196 293.481,547.529 292,548.5C 291.257,550.441 291.424,552.274 292.5,554C 311.474,561.388 327.807,572.388 341.5,587C 343.519,586.848 345.519,586.348 347.5,585.5C 347.187,588.247 347.52,590.914 348.5,593.5C 352.186,597.352 355.686,601.352 359,605.5C 359.483,606.448 359.649,607.448 359.5,608.5C 364.154,608.672 368.154,607.172 371.5,604C 378.049,602.284 384.383,600.118 390.5,597.5C 390.5,595.5 390.5,593.5 390.5,591.5C 392.2,591.626 393.7,592.293 395,593.5C 406.513,587.144 417.013,579.477 426.5,570.5C 425.167,572.833 425.167,575.167 426.5,577.5C 425.127,577.343 423.793,577.51 422.5,578C 417.317,581.76 412.317,585.76 407.5,590C 402.246,591.929 398.246,595.262 395.5,600C 396.943,609.12 398.109,618.287 399,627.5C 400.8,649.124 398.133,670.124 391,690.5C 388.398,694.212 384.898,695.378 380.5,694C 379.884,692.6 379.551,691.1 379.5,689.5C 383.16,676.174 387.66,663.174 393,650.5C 395.388,634.038 394.888,617.705 391.5,601.5C 390.127,601.343 388.793,601.51 387.5,602C 378.65,606.452 369.65,610.619 360.5,614.5C 356.157,610.323 352.157,605.823 348.5,601C 346.633,600.289 345.133,600.789 344,602.5C 343.375,610.878 342.375,619.211 341,627.5C 340.214,638.333 341.214,649 344,659.5C 346.534,666.102 348.867,672.769 351,679.5C 351.499,683.821 351.666,688.154 351.5,692.5C 346.298,694.835 342.464,693.501 340,688.5C 334.302,672.68 332.302,656.347 334,639.5C 336.154,624.414 338.488,609.414 341,594.5C 327.693,579.696 312.193,567.696 294.5,558.5C 294.068,564.568 294.068,570.735 294.5,577C 294.494,582.216 293.827,587.049 292.5,591.5C 293.431,576.923 292.098,562.59 288.5,548.5C 289.832,546.167 291.832,544.834 294.5,544.5 Z"/></g>
<g><path style="opacity:1" fill="#4d61ad" d="M 292.5,595.5 C 293.248,603.354 291.914,610.688 288.5,617.5C 289.474,609.973 290.808,602.64 292.5,595.5 Z"/></g>
<g><path style="opacity:1" fill="#3e5ecf" d="M 191.5,592.5 C 200.403,611.312 209.07,630.312 217.5,649.5C 213.56,648.378 211.727,645.712 212,641.5C 211.808,643.577 211.308,645.577 210.5,647.5C 210.167,647.167 209.833,646.833 209.5,646.5C 210.762,644.425 210.595,642.425 209,640.5C 208.237,643.063 207.737,643.063 207.5,640.5C 209.261,636.735 208.761,633.402 206,630.5C 203.542,633.035 201.042,633.035 198.5,630.5C 199.506,629.604 199.506,628.938 198.5,628.5C 197.38,629.833 196.047,630.333 194.5,630C 194.476,627.964 194.809,626.13 195.5,624.5C 197.539,624.876 199.539,625.709 201.5,627C 200.833,626.333 200.167,625.667 199.5,625C 200.572,623.716 201.905,623.383 203.5,624C 202.663,622.989 202.33,621.822 202.5,620.5C 199.197,622.651 195.53,623.818 191.5,624C 191.888,622.192 191.888,620.525 191.5,619C 194.167,618.667 196.833,618.333 199.5,618C 200.022,617.439 200.355,616.772 200.5,616C 197.927,610.899 195.427,605.732 193,600.5C 192.178,597.883 191.678,595.216 191.5,592.5 Z"/></g>
<g><path style="opacity:1" fill="#3057cb" d="M 507.5,859.5 C 506.002,864.818 504.835,870.152 504,875.5C 505.902,871.238 508.068,867.238 510.5,863.5C 508.325,871.513 505.325,879.18 501.5,886.5C 502.569,891.087 504.569,895.087 507.5,898.5C 503.212,896.628 498.878,894.961 494.5,893.5C 493.358,891.567 491.692,890.067 489.5,889C 484.919,886.911 480.252,885.077 475.5,883.5C 474.067,882.167 472.733,880.667 471.5,879C 467.929,877.881 464.596,876.215 461.5,874C 459.19,873.503 456.857,873.337 454.5,873.5C 454.5,875.167 454.5,876.833 454.5,878.5C 452.421,857.536 449.754,836.536 446.5,815.5C 443.558,811.97 442.891,807.97 444.5,803.5C 442.957,795.581 441.29,787.415 439.5,779C 440.288,772.811 439.955,766.311 438.5,759.5C 437.914,759.291 437.414,758.957 437,758.5C 430.724,709.162 422.224,660.496 411.5,612.5C 412.833,612.5 414.167,612.5 415.5,612.5C 417.542,617.631 419.209,622.965 420.5,628.5C 420.291,629.086 419.957,629.586 419.5,630C 421.965,635.413 424.132,640.913 426,646.5C 426.654,645.304 427.154,645.304 427.5,646.5C 427.069,647.293 426.735,648.127 426.5,649C 431.361,663.61 436.527,677.776 442,691.5C 444.093,700.648 446.426,709.648 449,718.5C 450.5,722.033 452,725.533 453.5,729C 453.167,729.333 452.833,729.667 452.5,730C 454.764,733.782 455.931,737.948 456,742.5C 458.378,748.062 460.878,753.562 463.5,759C 462.949,760.398 462.616,761.732 462.5,763C 463.22,768.242 464.387,773.409 466,778.5C 466.154,781.525 467.654,783.191 470.5,783.5C 471.108,787.472 471.608,791.472 472,795.5C 476.682,809.043 480.848,822.709 484.5,836.5C 484.868,837.91 485.701,838.91 487,839.5C 487.272,844.721 488.272,849.721 490,854.5C 490.949,857.355 492.616,859.689 495,861.5C 495.515,867.368 497.348,872.701 500.5,877.5C 502.228,872.093 504.061,866.426 506,860.5C 506.383,859.944 506.883,859.611 507.5,859.5 Z"/></g>
<g><path style="opacity:0.635" fill="#2d4494" d="M 120.5,623.5 C 119.692,626.45 118.358,629.117 116.5,631.5C 108.212,642.457 99.5454,653.123 90.5,663.5C 100.016,649.8 110.016,636.467 120.5,623.5 Z"/></g>
<g><path style="opacity:1" fill="#294cb4" d="M 159.5,607.5 C 165.687,617.88 170.853,628.88 175,640.5C 176.667,642.833 178.333,645.167 180,647.5C 182.269,653.044 184.269,658.711 186,664.5C 191.375,673.949 196.375,683.616 201,693.5C 204.117,702.795 207.617,711.962 211.5,721C 211.167,721.5 210.833,722 210.5,722.5C 201.286,706.141 192.786,689.474 185,672.5C 181.269,662.253 176.936,652.253 172,642.5C 167.938,630.814 163.771,619.147 159.5,607.5 Z"/></g>
<g><path style="opacity:0.984" fill="#304ba2" d="M 450.5,636.5 C 456.167,651.167 461.833,665.833 467.5,680.5C 465.777,678.747 464.277,676.747 463,674.5C 459.669,666.129 456.502,657.796 453.5,649.5C 452.636,647.803 451.303,646.637 449.5,646C 449.975,642.727 450.309,639.56 450.5,636.5 Z"/></g>
<g><path style="opacity:0.765" fill="#2f4698" d="M 90.5,663.5 C 84.8557,671.327 79.3557,679.327 74,687.5C 73.3292,688.252 72.4959,688.586 71.5,688.5C 77.1078,679.619 83.4411,671.286 90.5,663.5 Z"/></g>
<g><path style="opacity:1" fill="#4762c8" d="M 217.5,650.5 C 223.204,661.92 228.537,673.587 233.5,685.5C 232.504,685.586 231.671,685.252 231,684.5C 230.102,680.099 227.936,677.433 224.5,676.5C 223.853,673.546 223.686,670.546 224,667.5C 220.712,662.258 218.545,656.591 217.5,650.5 Z"/></g>
<g><path style="opacity:0.516" fill="#acb1b6" d="M 646.5,683.5 C 646.66,681.801 646.494,680.134 646,678.5C 644.532,679.989 643.032,681.323 641.5,682.5C 642.697,678.969 644.697,675.969 647.5,673.5C 648.68,677.06 648.347,680.393 646.5,683.5 Z"/></g>
<g><path style="opacity:0.945" fill="#2e4694" d="M 467.5,681.5 C 469.204,684.256 470.537,687.256 471.5,690.5C 470.504,690.586 469.671,690.252 469,689.5C 468.178,686.883 467.678,684.216 467.5,681.5 Z"/></g>
<g><path style="opacity:0.84" fill="#d7dadb" d="M 646.5,683.5 C 641.637,702.23 634.804,720.23 626,737.5C 625,738.5 624,739.5 623,740.5C 622.488,734.719 623.154,729.052 625,723.5C 629.451,709.306 634.951,695.64 641.5,682.5C 643.032,681.323 644.532,679.989 646,678.5C 646.494,680.134 646.66,681.801 646.5,683.5 Z"/></g>
<g><path style="opacity:0.999" fill="#3454bd" d="M 71.5,688.5 C 69.1724,693.809 66.8391,699.142 64.5,704.5C 65.724,706.839 65.724,709.172 64.5,711.5C 63.914,711.291 63.414,710.957 63,710.5C 62.6053,712.179 62.772,713.845 63.5,715.5C 62.884,717.721 61.7173,718.388 60,717.5C 59.5172,718.448 59.3505,719.448 59.5,720.5C 58.1667,720.5 56.8333,720.5 55.5,720.5C 53.5762,728.505 50.9095,736.171 47.5,743.5C 51.7322,725.974 58.2322,709.307 67,693.5C 68.517,691.76 70.017,690.094 71.5,688.5 Z"/></g>
<g><path style="opacity:0.998" fill="#304ca9" d="M 477.5,706.5 C 480.035,711.899 482.868,717.232 486,722.5C 487.876,723.609 489.709,724.609 491.5,725.5C 489.073,725.477 486.74,724.977 484.5,724C 483.348,721.851 481.848,720.018 480,718.5C 479.282,719.451 478.449,719.617 477.5,719C 478.556,714.891 478.556,710.725 477.5,706.5 Z"/></g>
<g><path style="opacity:0.955" fill="#d9dbdc" d="M 745.5,687.5 C 747.225,687.843 747.725,688.843 747,690.5C 734.219,714.278 718.719,736.112 700.5,756C 699.241,756.982 697.908,757.315 696.5,757C 709.521,731.442 725.855,708.275 745.5,687.5 Z"/></g>
<g><path style="opacity:0.012" fill="#304690" d="M 500.5,729.5 C 508.626,731.538 516.293,734.538 523.5,738.5C 521.473,738.662 519.473,738.495 517.5,738C 511.51,735.627 505.844,732.794 500.5,729.5 Z"/></g>
<g><path style="opacity:1" fill="#3151b4" d="M 233.5,685.5 C 235.792,690.084 238.125,694.75 240.5,699.5C 241.518,698.807 242.518,698.141 243.5,697.5C 244.275,704.249 246.442,710.583 250,716.5C 250.667,718.5 250.667,720.5 250,722.5C 237.668,733 226.501,744.666 216.5,757.5C 211.787,759.707 207.787,762.873 204.5,767C 248.669,767.167 292.669,767.667 336.5,768.5C 238.999,768.833 141.665,768.499 44.5,767.5C 96.171,767.833 147.838,767.5 199.5,766.5C 208.631,758.202 217.297,749.369 225.5,740C 230.565,735.355 235.731,730.855 241,726.5C 242.767,723.963 244.267,721.297 245.5,718.5C 243.655,709.477 240.155,701.143 235,693.5C 234.178,690.883 233.678,688.216 233.5,685.5 Z"/></g>
<g><path style="opacity:0.42" fill="#2e3e84" d="M 527.5,740.5 C 532.854,741.356 537.854,743.023 542.5,745.5C 536.948,745.202 531.948,743.536 527.5,740.5 Z"/></g>
<g><path style="opacity:0.884" fill="#334a9c" d="M 543.5,745.5 C 553.561,748.737 563.228,752.737 572.5,757.5C 563.377,755.442 554.377,752.942 545.5,750C 543.963,748.89 543.297,747.39 543.5,745.5 Z"/></g>
<g><path style="opacity:0.455" fill="#364680" d="M 572.5,757.5 C 577.313,758.493 581.98,759.993 586.5,762C 588.648,764.075 588.982,766.408 587.5,769C 588.955,770.626 590.622,771.792 592.5,772.5C 590.139,772.326 587.806,771.993 585.5,771.5C 586.729,768.865 586.729,766.199 585.5,763.5C 580.941,761.875 576.608,759.875 572.5,757.5 Z"/></g>
<g><path style="opacity:1" fill="#203777" d="M 45.5,753.5 C 45.5628,758.203 45.2295,762.87 44.5,767.5C 141.665,768.499 238.999,768.833 336.5,768.5C 336.5,768.833 336.5,769.167 336.5,769.5C 238.665,769.833 140.999,769.499 43.5,768.5C 43.1888,763.234 43.8554,758.234 45.5,753.5 Z"/></g>
<g><path style="opacity:1" fill="#202b44" d="M 43.5,768.5 C 140.999,769.499 238.665,769.833 336.5,769.5C 338.698,769.12 340.365,769.787 341.5,771.5C 340.609,772.11 339.609,772.443 338.5,772.5C 238.167,772.5 137.833,772.5 37.5,772.5C 39.7278,771.623 41.7278,770.29 43.5,768.5 Z"/></g>
<g><path style="opacity:1" fill="#9db3e0" d="M 37.5,772.5 C 137.833,772.5 238.167,772.5 338.5,772.5C 342.135,774.135 344.802,776.802 346.5,780.5C 342.05,775.761 336.55,773.428 330,773.5C 317.125,774.019 304.292,775.019 291.5,776.5C 288.979,775.911 286.479,775.245 284,774.5C 275.835,775.814 267.668,775.814 259.5,774.5C 255.827,774.953 252.16,775.453 248.5,776C 271.002,777.969 293.669,778.969 316.5,779C 318.382,779.198 320.048,779.698 321.5,780.5C 267.5,780.5 213.5,780.5 159.5,780.5C 115.669,779.667 71.6686,779.167 27.5,779C 28.7101,777.961 29.7101,776.794 30.5,775.5C 32.4261,773.707 34.7594,772.707 37.5,772.5 Z"/></g>
<g><path style="opacity:0.157" fill="#56585b" d="M 596.5,773.5 C 603.141,774.409 609.474,776.076 615.5,778.5C 608.859,777.591 602.526,775.924 596.5,773.5 Z"/></g>
<g><path style="opacity:1" fill="#899bb9" d="M 30.5,775.5 C 29.7101,776.794 28.7101,777.961 27.5,779C 71.6686,779.167 115.669,779.667 159.5,780.5C 114.5,780.5 69.5,780.5 24.5,780.5C 25.9108,778.086 27.9108,776.419 30.5,775.5 Z"/></g>
<g><path style="opacity:1" fill="#f2f3f4" d="M 585.5,771.5 C 587.806,771.993 590.139,772.326 592.5,772.5C 594.099,772.232 595.432,772.566 596.5,773.5C 602.526,775.924 608.859,777.591 615.5,778.5C 622.051,780.13 628.384,782.13 634.5,784.5C 636.792,786.267 639.458,787.267 642.5,787.5C 647.001,788.925 651.334,790.591 655.5,792.5C 656.78,793.931 658.447,794.598 660.5,794.5C 681.776,802.625 700.109,814.958 715.5,831.5C 716.757,834.427 718.757,836.761 721.5,838.5C 722.906,838.973 723.573,839.973 723.5,841.5C 724.08,843.749 725.413,845.415 727.5,846.5C 727.427,848.027 728.094,849.027 729.5,849.5C 729.427,851.027 730.094,852.027 731.5,852.5C 734.955,857.746 737.622,863.413 739.5,869.5C 739.808,873.595 740.641,877.595 742,881.5C 742.499,886.155 742.666,890.821 742.5,895.5C 741.137,899.575 738.804,902.908 735.5,905.5C 726.441,874.413 709.941,847.746 686,825.5C 685.833,825.833 685.667,826.167 685.5,826.5C 709.28,851.057 724.947,880.057 732.5,913.5C 732.414,917.857 732.08,922.19 731.5,926.5C 728.903,932.097 724.57,935.431 718.5,936.5C 718.618,928.968 717.451,921.635 715,914.5C 703.162,881.156 683.662,853.156 656.5,830.5C 656.167,830.667 655.833,830.833 655.5,831C 683.815,857.445 703.648,889.279 715,926.5C 715.667,932.5 715.667,938.5 715,944.5C 710.463,953.677 703.629,955.844 694.5,951C 692,948.5 689.5,946 687,943.5C 673.732,919.962 660.732,896.295 648,872.5C 642.099,863.263 635.432,854.596 628,846.5C 632.763,854.985 638.097,863.318 644,871.5C 656.408,892.39 664.241,914.89 667.5,939C 667.354,956.508 659.354,961.842 643.5,955C 640.628,952.463 638.128,949.63 636,946.5C 632.437,939.18 629.27,931.846 626.5,924.5C 621.275,908.456 612.942,894.29 601.5,882C 588.309,875.334 583.142,879.167 586,893.5C 590,900.833 594,908.167 598,915.5C 599.995,923.736 598.162,930.902 592.5,937C 587.494,940.626 582.161,941.292 576.5,939C 569.548,930.926 562.714,922.759 556,914.5C 554.871,912.859 553.371,911.859 551.5,911.5C 550.19,908.527 548.19,906.193 545.5,904.5C 543.878,901.545 541.878,898.878 539.5,896.5C 554.075,854.521 569.408,812.855 585.5,771.5 Z M 592.5,881.5 C 594.512,882.228 596.512,883.062 598.5,884C 611.195,897.221 619.862,912.721 624.5,930.5C 616.833,930.5 609.167,930.5 601.5,930.5C 602.886,924.804 602.72,919.138 601,913.5C 597,906.167 593,898.833 589,891.5C 588.333,888.833 588.333,886.167 589,883.5C 590.302,882.915 591.469,882.249 592.5,881.5 Z M 670.5,924.5 C 673.195,925.884 674.195,927.884 673.5,930.5C 671.077,929.288 670.077,927.288 670.5,924.5 Z"/></g>
<g><path style="opacity:1" fill="#1f2b3e" d="M 24.5,780.5 C 69.5,780.5 114.5,780.5 159.5,780.5C 213.5,780.5 267.5,780.5 321.5,780.5C 322.167,781.167 322.833,781.833 323.5,782.5C 222.904,783.498 122.237,783.831 21.5,783.5C 22.5,782.5 23.5,781.5 24.5,780.5 Z"/></g>
<g><path style="opacity:0.307" fill="#dfe1e1" d="M 783.5,754.5 C 784.995,754.415 785.995,755.081 786.5,756.5C 776.942,768.559 765.942,779.059 753.5,788C 751.35,789.411 749.016,790.245 746.5,790.5C 746.491,788.692 746.991,787.025 748,785.5C 758.496,773.495 770.329,763.162 783.5,754.5 Z"/></g>
<g><path style="opacity:0.09" fill="#4d5758" d="M 634.5,784.5 C 637.542,784.733 640.208,785.733 642.5,787.5C 639.458,787.267 636.792,786.267 634.5,784.5 Z"/></g>
<g><path style="opacity:1" fill="#9cb5e8" d="M 324.5,786.5 C 330.284,788.438 334.784,792.104 338,797.5C 359.866,868.602 381.033,939.935 401.5,1011.5C 401.5,1012.5 401.5,1013.5 401.5,1014.5C 397.632,1013.24 393.632,1012.58 389.5,1012.5C 383.23,1013.16 376.897,1013 370.5,1012C 372.167,1011.67 373.833,1011.33 375.5,1011C 374.5,1010.67 373.5,1010.33 372.5,1010C 372.833,1009.67 373.167,1009.33 373.5,1009C 371.527,1008.5 369.527,1008.34 367.5,1008.5C 367.5,1009.83 367.5,1011.17 367.5,1012.5C 313.496,1012.07 259.496,1011.4 205.5,1010.5C 204.003,1009.69 202.336,1009.03 200.5,1008.5C 199.688,1005.19 199.354,1002.02 199.5,999C 201.81,998.503 204.143,998.337 206.5,998.5C 206.334,990.826 206.5,983.159 207,975.5C 209.381,974.565 211.881,974.232 214.5,974.5C 214.232,971.881 214.565,969.381 215.5,967C 220.833,966.333 226.167,966.333 231.5,967C 232.471,972.072 232.805,977.238 232.5,982.5C 235.119,982.232 237.619,982.565 240,983.5C 240.497,986.146 240.664,988.813 240.5,991.5C 237.5,991.5 234.5,991.5 231.5,991.5C 231.5,994.167 231.5,996.833 231.5,999.5C 241.835,999.208 252.168,998.875 262.5,998.5C 261.405,990.704 264.572,988.37 272,991.5C 272.497,993.81 272.663,996.143 272.5,998.5C 282.812,999.305 293.146,999.638 303.5,999.5C 303.756,997.208 303.423,995.041 302.5,993C 299.905,992.774 297.405,992.274 295,991.5C 294.503,989.19 294.337,986.857 294.5,984.5C 289.238,984.805 284.072,984.471 279,983.5C 276.489,975.51 279.322,972.51 287.5,974.5C 290.167,974.667 292.833,974.833 295.5,975C 295.659,977.563 295.325,980.23 294.5,983C 295,983.5 295.5,984 296,984.5C 299.076,983.712 302.242,983.212 305.5,983C 320.496,982.5 335.496,982.333 350.5,982.5C 348.833,975.5 351.5,972.833 358.5,974.5C 358.5,972.5 358.5,970.5 358.5,968.5C 351.5,970.167 348.833,967.5 350.5,960.5C 348.5,960.5 346.5,960.5 344.5,960.5C 345.595,968.296 342.428,970.63 335,967.5C 334.503,965.19 334.337,962.857 334.5,960.5C 329.489,960.666 324.489,960.499 319.5,960C 318.565,957.619 318.232,955.119 318.5,952.5C 313.833,952.5 309.167,952.5 304.5,952.5C 306.167,959.5 303.5,962.167 296.5,960.5C 297.595,968.296 294.428,970.63 287,967.5C 286.503,965.19 286.337,962.857 286.5,960.5C 278.936,961.91 276.436,958.91 279,951.5C 284.072,950.529 289.238,950.195 294.5,950.5C 294.5,948.5 294.5,946.5 294.5,944.5C 286.936,945.91 284.436,942.91 287,935.5C 292.072,934.529 297.238,934.195 302.5,934.5C 301.07,927.106 304.07,924.439 311.5,926.5C 318.93,924.439 321.93,927.106 320.5,934.5C 325.511,934.334 330.511,934.501 335.5,935C 336.471,940.072 336.805,945.238 336.5,950.5C 338.5,950.5 340.5,950.5 342.5,950.5C 342.5,943.167 342.5,935.833 342.5,928.5C 339.881,928.768 337.381,928.435 335,927.5C 334.5,914.504 334.333,901.504 334.5,888.5C 331.881,888.768 329.381,888.435 327,887.5C 326.195,883.276 326.695,879.276 328.5,875.5C 326.912,872.068 326.245,868.401 326.5,864.5C 319.167,864.5 311.833,864.5 304.5,864.5C 304.708,866.92 304.374,869.253 303.5,871.5C 298.544,872.494 293.544,872.827 288.5,872.5C 289.91,880.064 286.91,882.564 279.5,880C 278.529,874.928 278.195,869.762 278.5,864.5C 276.5,864.5 274.5,864.5 272.5,864.5C 272.739,866.467 272.406,868.301 271.5,870C 266.534,871.147 261.534,871.98 256.5,872.5C 257.657,877.075 255.99,879.742 251.5,880.5C 250.384,885.222 249.384,889.889 248.5,894.5C 253.762,894.195 258.928,894.529 264,895.5C 264.667,911.5 264.667,927.5 264,943.5C 261.619,944.435 259.119,944.768 256.5,944.5C 256.5,946.5 256.5,948.5 256.5,950.5C 261.762,950.195 266.928,950.529 272,951.5C 274.564,958.91 272.064,961.91 264.5,960.5C 265.93,967.894 262.93,970.561 255.5,968.5C 248.07,970.561 245.07,967.894 246.5,960.5C 243.881,960.768 241.381,960.435 239,959.5C 238.5,951.841 238.334,944.174 238.5,936.5C 236.5,936.5 234.5,936.5 232.5,936.5C 233.595,944.296 230.428,946.63 223,943.5C 222.503,941.19 222.337,938.857 222.5,936.5C 217.833,936.5 213.167,936.5 208.5,936.5C 208.5,938.5 208.5,940.5 208.5,942.5C 216.296,941.405 218.63,944.572 215.5,952C 213.19,952.497 210.857,952.663 208.5,952.5C 208.805,957.762 208.471,962.928 207.5,968C 196.833,968.667 186.167,968.667 175.5,968C 174.513,957.582 174.18,947.082 174.5,936.5C 167.5,938.167 164.833,935.5 166.5,928.5C 161.489,928.666 156.489,928.499 151.5,928C 150.565,925.619 150.232,923.119 150.5,920.5C 142.704,921.595 140.37,918.428 143.5,911C 145.81,910.503 148.143,910.337 150.5,910.5C 150.334,905.489 150.501,900.489 151,895.5C 153.381,894.565 155.881,894.232 158.5,894.5C 158.5,892.5 158.5,890.5 158.5,888.5C 153.489,888.666 148.489,888.499 143.5,888C 142.565,885.619 142.232,883.119 142.5,880.5C 134.58,880.815 126.747,880.482 119,879.5C 118.333,866.167 118.333,852.833 119,839.5C 121.381,838.565 123.881,838.232 126.5,838.5C 126.5,830.833 126.5,823.167 126.5,815.5C 117.167,815.167 117.167,814.833 126.5,814.5C 126.5,812.5 126.5,810.5 126.5,808.5C 124.143,808.663 121.81,808.497 119.5,808C 138.148,806.6 156.815,806.267 175.5,807C 176.435,809.381 176.768,811.881 176.5,814.5C 181.167,814.5 185.833,814.5 190.5,814.5C 190.5,812.167 190.5,809.833 190.5,807.5C 195.845,807.313 201.178,806.98 206.5,806.5C 206.5,801.833 206.5,797.167 206.5,792.5C 198.86,791.897 191.527,792.897 184.5,795.5C 184.023,796.478 183.357,797.311 182.5,798C 177.833,798.667 173.167,798.667 168.5,798C 167.643,797.311 166.977,796.478 166.5,795.5C 163.696,794.895 161.029,794.062 158.5,793C 121.5,792.667 84.5,792.333 47.5,792C 45.1667,791.667 42.8333,791.333 40.5,791C 45.8333,790.333 45.8333,789.667 40.5,789C 44.1851,788.086 43.8518,787.419 39.5,787C 39.8333,786.667 40.1667,786.333 40.5,786C 135.162,785.538 229.828,785.705 324.5,786.5 Z"/></g>
<g><path style="opacity:1" fill="#9cb5e6" d="M 19.5,784.5 C 120.167,784.333 220.834,784.5 321.5,785C 322.737,785.232 323.737,785.732 324.5,786.5C 229.828,785.705 135.162,785.538 40.5,786C 40.1667,786.333 39.8333,786.667 39.5,787C 43.8518,787.419 44.1851,788.086 40.5,789C 45.8333,789.667 45.8333,790.333 40.5,791C 42.8333,791.333 45.1667,791.667 47.5,792C 84.5,792.333 121.5,792.667 158.5,793C 161.029,794.062 163.696,794.895 166.5,795.5C 166.977,796.478 167.643,797.311 168.5,798C 173.167,798.667 177.833,798.667 182.5,798C 183.357,797.311 184.023,796.478 184.5,795.5C 191.527,792.897 198.86,791.897 206.5,792.5C 206.5,797.167 206.5,801.833 206.5,806.5C 201.178,806.98 195.845,807.313 190.5,807.5C 190.5,809.833 190.5,812.167 190.5,814.5C 185.833,814.5 181.167,814.5 176.5,814.5C 176.768,811.881 176.435,809.381 175.5,807C 156.815,806.267 138.148,806.6 119.5,808C 121.81,808.497 124.143,808.663 126.5,808.5C 126.5,810.5 126.5,812.5 126.5,814.5C 117.167,814.833 117.167,815.167 126.5,815.5C 126.5,823.167 126.5,830.833 126.5,838.5C 123.881,838.232 121.381,838.565 119,839.5C 118.333,852.833 118.333,866.167 119,879.5C 126.747,880.482 134.58,880.815 142.5,880.5C 142.232,883.119 142.565,885.619 143.5,888C 148.489,888.499 153.489,888.666 158.5,888.5C 158.5,890.5 158.5,892.5 158.5,894.5C 155.881,894.232 153.381,894.565 151,895.5C 150.501,900.489 150.334,905.489 150.5,910.5C 148.143,910.337 145.81,910.503 143.5,911C 140.37,918.428 142.704,921.595 150.5,920.5C 150.232,923.119 150.565,925.619 151.5,928C 156.489,928.499 161.489,928.666 166.5,928.5C 164.833,935.5 167.5,938.167 174.5,936.5C 174.18,947.082 174.513,957.582 175.5,968C 186.167,968.667 196.833,968.667 207.5,968C 208.471,962.928 208.805,957.762 208.5,952.5C 210.857,952.663 213.19,952.497 215.5,952C 218.63,944.572 216.296,941.405 208.5,942.5C 208.5,940.5 208.5,938.5 208.5,936.5C 213.167,936.5 217.833,936.5 222.5,936.5C 222.337,938.857 222.503,941.19 223,943.5C 230.428,946.63 233.595,944.296 232.5,936.5C 234.5,936.5 236.5,936.5 238.5,936.5C 238.334,944.174 238.5,951.841 239,959.5C 241.381,960.435 243.881,960.768 246.5,960.5C 245.07,967.894 248.07,970.561 255.5,968.5C 262.93,970.561 265.93,967.894 264.5,960.5C 272.064,961.91 274.564,958.91 272,951.5C 266.928,950.529 261.762,950.195 256.5,950.5C 256.5,948.5 256.5,946.5 256.5,944.5C 259.119,944.768 261.619,944.435 264,943.5C 264.667,927.5 264.667,911.5 264,895.5C 258.928,894.529 253.762,894.195 248.5,894.5C 249.384,889.889 250.384,885.222 251.5,880.5C 255.99,879.742 257.657,877.075 256.5,872.5C 261.534,871.98 266.534,871.147 271.5,870C 272.406,868.301 272.739,866.467 272.5,864.5C 274.5,864.5 276.5,864.5 278.5,864.5C 278.195,869.762 278.529,874.928 279.5,880C 286.91,882.564 289.91,880.064 288.5,872.5C 293.544,872.827 298.544,872.494 303.5,871.5C 304.374,869.253 304.708,866.92 304.5,864.5C 311.833,864.5 319.167,864.5 326.5,864.5C 326.245,868.401 326.912,872.068 328.5,875.5C 326.695,879.276 326.195,883.276 327,887.5C 329.381,888.435 331.881,888.768 334.5,888.5C 334.333,901.504 334.5,914.504 335,927.5C 337.381,928.435 339.881,928.768 342.5,928.5C 342.5,935.833 342.5,943.167 342.5,950.5C 340.5,950.5 338.5,950.5 336.5,950.5C 336.805,945.238 336.471,940.072 335.5,935C 330.511,934.501 325.511,934.334 320.5,934.5C 321.93,927.106 318.93,924.439 311.5,926.5C 304.07,924.439 301.07,927.106 302.5,934.5C 297.238,934.195 292.072,934.529 287,935.5C 284.436,942.91 286.936,945.91 294.5,944.5C 294.5,946.5 294.5,948.5 294.5,950.5C 289.238,950.195 284.072,950.529 279,951.5C 276.436,958.91 278.936,961.91 286.5,960.5C 286.337,962.857 286.503,965.19 287,967.5C 294.428,970.63 297.595,968.296 296.5,960.5C 303.5,962.167 306.167,959.5 304.5,952.5C 309.167,952.5 313.833,952.5 318.5,952.5C 318.232,955.119 318.565,957.619 319.5,960C 324.489,960.499 329.489,960.666 334.5,960.5C 334.337,962.857 334.503,965.19 335,967.5C 342.428,970.63 345.595,968.296 344.5,960.5C 346.5,960.5 348.5,960.5 350.5,960.5C 348.833,967.5 351.5,970.167 358.5,968.5C 358.5,970.5 358.5,972.5 358.5,974.5C 351.5,972.833 348.833,975.5 350.5,982.5C 335.496,982.333 320.496,982.5 305.5,983C 302.242,983.212 299.076,983.712 296,984.5C 295.5,984 295,983.5 294.5,983C 295.325,980.23 295.659,977.563 295.5,975C 292.833,974.833 290.167,974.667 287.5,974.5C 279.322,972.51 276.489,975.51 279,983.5C 284.072,984.471 289.238,984.805 294.5,984.5C 294.337,986.857 294.503,989.19 295,991.5C 297.405,992.274 299.905,992.774 302.5,993C 303.423,995.041 303.756,997.208 303.5,999.5C 293.146,999.638 282.812,999.305 272.5,998.5C 272.663,996.143 272.497,993.81 272,991.5C 264.572,988.37 261.405,990.704 262.5,998.5C 252.168,998.875 241.835,999.208 231.5,999.5C 231.5,996.833 231.5,994.167 231.5,991.5C 234.5,991.5 237.5,991.5 240.5,991.5C 240.664,988.813 240.497,986.146 240,983.5C 237.619,982.565 235.119,982.232 232.5,982.5C 232.805,977.238 232.471,972.072 231.5,967C 226.167,966.333 220.833,966.333 215.5,967C 214.565,969.381 214.232,971.881 214.5,974.5C 211.881,974.232 209.381,974.565 207,975.5C 206.5,983.159 206.334,990.826 206.5,998.5C 204.143,998.337 201.81,998.503 199.5,999C 199.354,1002.02 199.688,1005.19 200.5,1008.5C 202.336,1009.03 204.003,1009.69 205.5,1010.5C 165.534,1008.69 125.534,1008.03 85.5,1008.5C 85.0624,1004.93 84.3958,1001.43 83.5,998C 84.8331,996.16 84.6665,995.66 83,996.5C 81.1063,991.986 80.4397,987.32 81,982.5C 81.4828,983.448 81.6495,984.448 81.5,985.5C 82.5,985.5 83.5,985.5 84.5,985.5C 84.5,982.167 84.5,978.833 84.5,975.5C 83.1667,975.5 81.8333,975.5 80.5,975.5C 80.7692,977.429 80.2692,979.095 79,980.5C 77.8392,976.11 76.0059,972.11 73.5,968.5C 70.3895,960.419 67.7228,952.086 65.5,943.5C 64.8734,938.859 64.5401,934.193 64.5,929.5C 63.5,929.5 62.5,929.5 61.5,929.5C 61.5079,923.547 59.8413,918.214 56.5,913.5C 49.9955,893.307 43.9955,872.974 38.5,852.5C 38.0736,848.098 36.7403,844.098 34.5,840.5C 28.8424,824.025 23.6757,807.358 19,790.5C 18.3224,788.402 18.4891,786.402 19.5,784.5 Z"/></g>
<g><path style="opacity:0.071" fill="#3f4445" d="M 655.5,792.5 C 657.553,792.402 659.22,793.069 660.5,794.5C 658.447,794.598 656.78,793.931 655.5,792.5 Z"/></g>
<g><path style="opacity:1" fill="#3859c5" d="M 351.5,782.5 C 352.151,783.091 352.818,783.757 353.5,784.5C 353.969,789.754 355.303,794.754 357.5,799.5C 359.877,802.008 362.211,804.508 364.5,807C 363.207,807.49 361.873,807.657 360.5,807.5C 364.255,819.496 367.255,831.829 369.5,844.5C 362.654,824.119 356.654,803.452 351.5,782.5 Z"/></g>
<g><path style="opacity:1" fill="#2a4db4" d="M 510.5,863.5 C 508.068,867.238 505.902,871.238 504,875.5C 504.835,870.152 506.002,864.818 507.5,859.5C 510.524,851.488 513.524,843.488 516.5,835.5C 517.774,832.676 519.274,830.009 521,827.5C 525.553,812.343 531.387,797.677 538.5,783.5C 538.833,783.833 539.167,784.167 539.5,784.5C 538.068,788.019 537.234,791.686 537,795.5C 526.9,817.627 518.067,840.294 510.5,863.5 Z"/></g>
<g><path style="opacity:0.4" fill="#4f5259" d="M 715.5,831.5 C 718.243,833.239 720.243,835.573 721.5,838.5C 718.757,836.761 716.757,834.427 715.5,831.5 Z"/></g>
<g><path style="opacity:0.125" fill="#5c5f63" d="M 723.5,841.5 C 725.587,842.585 726.92,844.251 727.5,846.5C 725.413,845.415 724.08,843.749 723.5,841.5 Z"/></g>
<g><path style="opacity:0.357" fill="#576680" d="M 34.5,840.5 C 36.7403,844.098 38.0736,848.098 38.5,852.5C 36.1939,848.915 34.8606,844.915 34.5,840.5 Z"/></g>
<g><path style="opacity:0.11" fill="#414246" d="M 727.5,846.5 C 728.906,846.973 729.573,847.973 729.5,849.5C 728.094,849.027 727.427,848.027 727.5,846.5 Z"/></g>
<g><path style="opacity:0.086" fill="#37383f" d="M 729.5,849.5 C 730.906,849.973 731.573,850.973 731.5,852.5C 730.094,852.027 729.427,851.027 729.5,849.5 Z"/></g>
<g><path style="opacity:1" fill="#edf3f8" d="M 206.5,858.5 C 208.144,858.286 209.644,858.62 211,859.5C 210.444,868.883 205.611,874.216 196.5,875.5C 195.772,867.274 199.105,861.607 206.5,858.5 Z"/></g>
<g><path style="opacity:0.706" fill="#5f6165" d="M 739.5,869.5 C 743.118,877.767 744.451,886.434 743.5,895.5C 743.167,895.5 742.833,895.5 742.5,895.5C 742.666,890.821 742.499,886.155 742,881.5C 740.641,877.595 739.808,873.595 739.5,869.5 Z"/></g>
<g><path style="opacity:0.6" fill="#384a85" d="M 626.5,924.5 C 627.754,927.516 627.421,930.182 625.5,932.5C 616.827,932.334 608.16,932.5 599.5,933C 598.695,934.113 598.028,935.279 597.5,936.5C 595.043,939.558 592.043,941.892 588.5,943.5C 583.035,944.227 578.035,943.227 573.5,940.5C 572.728,939.306 571.728,938.306 570.5,937.5C 569.136,935.809 567.803,934.142 566.5,932.5C 565.167,931.833 563.833,931.167 562.5,930.5C 563.621,928.911 563.454,927.244 562,925.5C 558.668,920.673 555.168,916.007 551.5,911.5C 553.371,911.859 554.871,912.859 556,914.5C 562.714,922.759 569.548,930.926 576.5,939C 582.161,941.292 587.494,940.626 592.5,937C 598.162,930.902 599.995,923.736 598,915.5C 594,908.167 590,900.833 586,893.5C 583.142,879.167 588.309,875.334 601.5,882C 612.942,894.29 621.275,908.456 626.5,924.5 Z M 592.5,881.5 C 591.469,882.249 590.302,882.915 589,883.5C 588.333,886.167 588.333,888.833 589,891.5C 593,898.833 597,906.167 601,913.5C 602.72,919.138 602.886,924.804 601.5,930.5C 609.167,930.5 616.833,930.5 624.5,930.5C 619.862,912.721 611.195,897.221 598.5,884C 596.512,883.062 594.512,882.228 592.5,881.5 Z"/></g>
<g><path style="opacity:0.976" fill="#2e4590" d="M 475.5,883.5 C 470.285,881.559 465.285,879.059 460.5,876C 459.207,875.51 457.873,875.343 456.5,875.5C 457.539,890.21 458.872,904.877 460.5,919.5C 459.167,918.833 458.167,917.833 457.5,916.5C 458.139,915.903 458.472,915.07 458.5,914C 456.738,902.209 455.404,890.375 454.5,878.5C 454.5,876.833 454.5,875.167 454.5,873.5C 456.857,873.337 459.19,873.503 461.5,874C 464.596,876.215 467.929,877.881 471.5,879C 472.733,880.667 474.067,882.167 475.5,883.5 Z"/></g>
<g><path style="opacity:0.471" fill="#72777a" d="M 784.5,868.5 C 785.38,873.658 786.047,878.992 786.5,884.5C 785.957,892.996 785.291,901.33 784.5,909.5C 784.5,895.833 784.5,882.167 784.5,868.5 Z"/></g>
<g><path style="opacity:0.137" fill="#243b75" d="M 475.5,883.5 C 480.252,885.077 484.919,886.911 489.5,889C 491.692,890.067 493.358,891.567 494.5,893.5C 487.685,890.927 481.351,887.594 475.5,883.5 Z"/></g>
<g><path style="opacity:0.911" fill="#eef1f1" d="M 784.5,868.5 C 784.5,882.167 784.5,895.833 784.5,909.5C 784.76,913.348 784.094,917.015 782.5,920.5C 780.889,919.68 780.222,918.346 780.5,916.5C 780.358,901.485 780.691,886.485 781.5,871.5C 781.39,868.941 782.056,866.608 783.5,864.5C 784.429,865.689 784.762,867.022 784.5,868.5 Z"/></g>
<g><path style="opacity:1" fill="#485c99" d="M 735.5,905.5 C 734.082,908.061 733.082,910.728 732.5,913.5C 724.947,880.057 709.28,851.057 685.5,826.5C 685.667,826.167 685.833,825.833 686,825.5C 709.941,847.746 726.441,874.413 735.5,905.5 Z"/></g>
<g><path style="opacity:0.251" fill="#9ea2a6" d="M 781.5,871.5 C 780.691,886.485 780.358,901.485 780.5,916.5C 779.834,910.676 779.5,904.676 779.5,898.5C 779.332,889.284 779.999,880.284 781.5,871.5 Z"/></g>
<g><path style="opacity:0.063" fill="#252a35" d="M 539.5,896.5 C 541.878,898.878 543.878,901.545 545.5,904.5C 543.537,903.04 541.704,901.373 540,899.5C 539.148,900.571 538.315,901.571 537.5,902.5C 537.595,900.214 538.262,898.214 539.5,896.5 Z"/></g>
<g><path style="opacity:0.992" fill="#2d4492" d="M 494.5,893.5 C 498.878,894.961 503.212,896.628 507.5,898.5C 516.047,902.686 524.714,906.686 533.5,910.5C 533.351,909.448 533.517,908.448 534,907.5C 534.74,905.681 535.907,904.348 537.5,903.5C 536.455,907.256 534.622,910.589 532,913.5C 519.232,907.201 506.732,900.534 494.5,893.5 Z"/></g>
<g><path style="opacity:1" fill="#f1f4f5" d="M 193.5,877.5 C 206.553,875.9 217.053,880.234 225,890.5C 231.567,913.93 222.734,924.764 198.5,923C 184.447,916.734 178.28,905.901 180,890.5C 182.805,884.191 187.305,879.857 193.5,877.5 Z"/></g>
<g><path style="opacity:0.606" fill="#d7dbdc" d="M 487.5,906.5 C 487.666,911.179 487.499,915.845 487,920.5C 486.583,921.756 485.75,922.423 484.5,922.5C 483.778,922.082 483.278,921.416 483,920.5C 482.333,914.5 482.333,908.5 483,902.5C 484.333,899.833 485.667,899.833 487,902.5C 487.49,903.793 487.657,905.127 487.5,906.5 Z"/></g>
<g><path style="opacity:0.004" fill="#333739" d="M 545.5,904.5 C 548.19,906.193 550.19,908.527 551.5,911.5C 548.781,909.781 546.781,907.447 545.5,904.5 Z"/></g>
<g><path style="opacity:0.969" fill="#f3f4f4" d="M 808.5,908.5 C 808.833,907.5 809.5,906.833 810.5,906.5C 812.094,906.08 813.594,905.414 815,904.5C 815.5,904.833 816,905.167 816.5,905.5C 814.223,908.399 811.723,911.066 809,913.5C 807.372,912.038 807.205,910.372 808.5,908.5 Z"/></g>
<g><path style="opacity:1" fill="#e4ebf5" d="M 457.5,916.5 C 458.167,917.833 459.167,918.833 460.5,919.5C 460.427,921.027 461.094,922.027 462.5,922.5C 465.535,924.209 466.535,926.543 465.5,929.5C 464.167,928.833 462.833,928.167 461.5,927.5C 458.574,925.916 455.908,923.916 453.5,921.5C 445.888,914.27 439.222,906.27 433.5,897.5C 434.002,896.479 434.668,896.312 435.5,897C 443.299,902.965 450.632,909.465 457.5,916.5 Z"/></g>
<g><path style="opacity:0.925" fill="#b6babd" d="M 808.5,908.5 C 807.205,910.372 807.372,912.038 809,913.5C 811.723,911.066 814.223,908.399 816.5,905.5C 816,905.167 815.5,904.833 815,904.5C 813.594,905.414 812.094,906.08 810.5,906.5C 813.463,902.926 816.963,899.926 821,897.5C 821.692,898.025 822.192,898.692 822.5,899.5C 817.451,909.603 810.117,917.603 800.5,923.5C 799.386,922.277 799.219,920.944 800,919.5C 802.315,915.362 805.148,911.695 808.5,908.5 Z"/></g>
<g><path style="opacity:0.796" fill="#343f70" d="M 742.5,895.5 C 742.833,895.5 743.167,895.5 743.5,895.5C 742.792,900.575 740.292,904.575 736,907.5C 735.87,915.268 735.036,922.935 733.5,930.5C 736.059,930.198 738.393,930.532 740.5,931.5C 737.5,931.5 734.5,931.5 731.5,931.5C 731.5,929.833 731.5,928.167 731.5,926.5C 732.08,922.19 732.414,917.857 732.5,913.5C 733.082,910.728 734.082,908.061 735.5,905.5C 738.804,902.908 741.137,899.575 742.5,895.5 Z"/></g>
<g><path style="opacity:0.349" fill="#3c3e48" d="M 460.5,919.5 C 461.906,919.973 462.573,920.973 462.5,922.5C 461.094,922.027 460.427,921.027 460.5,919.5 Z"/></g>
<g><path style="opacity:0.02" fill="#2c3030" d="M 487.5,906.5 C 488.65,911.316 488.816,916.316 488,921.5C 487.076,923.495 485.91,923.828 484.5,922.5C 485.75,922.423 486.583,921.756 487,920.5C 487.499,915.845 487.666,911.179 487.5,906.5 Z"/></g>
<g><path style="opacity:1" fill="#1c2b4a" d="M 341.5,771.5 C 343.472,772.451 345.472,773.451 347.5,774.5C 348.837,777.239 350.17,779.906 351.5,782.5C 356.654,803.452 362.654,824.119 369.5,844.5C 378.373,874.353 387.373,904.02 396.5,933.5C 397.222,937.876 398.222,942.209 399.5,946.5C 411.989,947.495 424.656,947.829 437.5,947.5C 424.677,948.495 411.677,948.829 398.5,948.5C 398.5,949.5 398.5,950.5 398.5,951.5C 381.159,894.48 363.826,837.48 346.5,780.5C 344.802,776.802 342.135,774.135 338.5,772.5C 339.609,772.443 340.609,772.11 341.5,771.5 Z"/></g>
<g><path style="opacity:0.968" fill="#6c7d9d" d="M 56.5,913.5 C 59.8413,918.214 61.5079,923.547 61.5,929.5C 62.5,929.5 63.5,929.5 64.5,929.5C 64.5401,934.193 64.8734,938.859 65.5,943.5C 62.0053,933.731 59.0053,923.731 56.5,913.5 Z"/></g>
<g><path style="opacity:0.976" fill="#43599a" d="M 731.5,926.5 C 731.5,928.167 731.5,929.833 731.5,931.5C 734.5,931.5 737.5,931.5 740.5,931.5C 748.019,931.175 755.352,931.508 762.5,932.5C 751.828,932.333 741.161,932.5 730.5,933C 729.29,934.039 728.29,935.206 727.5,936.5C 725.003,938.871 722.003,939.871 718.5,939.5C 718.5,940.833 718.5,942.167 718.5,943.5C 713.525,955.584 704.859,958.917 692.5,953.5C 690.192,951.529 687.858,949.529 685.5,947.5C 684.89,945.566 683.89,943.899 682.5,942.5C 681.525,940.205 680.192,938.205 678.5,936.5C 678.461,935.417 678.127,934.417 677.5,933.5C 675.257,932.526 672.924,932.192 670.5,932.5C 671.69,941.515 670.024,949.849 665.5,957.5C 660.729,960.924 655.395,962.257 649.5,961.5C 646.631,960.732 643.964,959.399 641.5,957.5C 641.167,957.5 640.833,957.5 640.5,957.5C 639.5,955.833 638.167,954.5 636.5,953.5C 635.525,951.205 634.192,949.205 632.5,947.5C 632.011,946.005 631.345,944.671 630.5,943.5C 630.065,940.843 629.065,938.509 627.5,936.5C 627.34,934.847 626.674,933.514 625.5,932.5C 627.421,930.182 627.754,927.516 626.5,924.5C 629.27,931.846 632.437,939.18 636,946.5C 638.128,949.63 640.628,952.463 643.5,955C 659.354,961.842 667.354,956.508 667.5,939C 664.241,914.89 656.408,892.39 644,871.5C 638.097,863.318 632.763,854.985 628,846.5C 635.432,854.596 642.099,863.263 648,872.5C 660.732,896.295 673.732,919.962 687,943.5C 689.5,946 692,948.5 694.5,951C 703.629,955.844 710.463,953.677 715,944.5C 715.667,938.5 715.667,932.5 715,926.5C 703.648,889.279 683.815,857.445 655.5,831C 655.833,830.833 656.167,830.667 656.5,830.5C 683.662,853.156 703.162,881.156 715,914.5C 717.451,921.635 718.618,928.968 718.5,936.5C 724.57,935.431 728.903,932.097 731.5,926.5 Z M 670.5,924.5 C 670.077,927.288 671.077,929.288 673.5,930.5C 674.195,927.884 673.195,925.884 670.5,924.5 Z"/></g>
<g><path style="opacity:0.433" fill="#445067" d="M 562.5,930.5 C 563.833,931.167 565.167,931.833 566.5,932.5C 545.823,932.167 525.156,932.5 504.5,933.5C 504.167,934.167 503.833,934.833 503.5,935.5C 500.556,936.704 497.556,937.704 494.5,938.5C 498.081,935.436 502.081,932.936 506.5,931C 525.164,930.5 543.83,930.333 562.5,930.5 Z"/></g>
<g><path style="opacity:1" fill="#3a5ac9" d="M 453.5,921.5 C 455.908,923.916 458.574,925.916 461.5,927.5C 460.51,933.645 460.177,939.978 460.5,946.5C 440.167,946.5 419.833,946.5 399.5,946.5C 398.222,942.209 397.222,937.876 396.5,933.5C 399.165,936.507 400.498,940.173 400.5,944.5C 417.503,944.667 434.503,944.5 451.5,944C 450.692,943.692 450.025,943.192 449.5,942.5C 450.289,940.512 451.455,940.179 453,941.5C 453.667,940.167 453.667,938.833 453,937.5C 450.518,938.269 448.685,937.269 447.5,934.5C 450.238,933.507 452.905,933.841 455.5,935.5C 457.973,933.902 457.973,932.402 455.5,931C 457.18,930.653 458.18,929.653 458.5,928C 457.387,926.606 456.053,925.439 454.5,924.5C 453.873,923.583 453.539,922.583 453.5,921.5 Z"/></g>
<g><path style="opacity:1" fill="#a1b6de" d="M 566.5,932.5 C 567.803,934.142 569.136,935.809 570.5,937.5C 563.853,936.053 558.52,937.887 554.5,943C 560.825,943.5 567.158,943.666 573.5,943.5C 573.5,942.5 573.5,941.5 573.5,940.5C 578.035,943.227 583.035,944.227 588.5,943.5C 602.5,944.833 616.5,944.833 630.5,943.5C 631.345,944.671 632.011,946.005 632.5,947.5C 629.428,947.183 626.428,947.516 623.5,948.5C 622.833,950.167 622.167,951.833 621.5,953.5C 626.652,954.814 631.652,954.814 636.5,953.5C 638.167,954.5 639.5,955.833 640.5,957.5C 633.825,957.334 627.158,957.5 620.5,958C 618.887,960.228 618.22,962.728 618.5,965.5C 626.167,965.5 633.833,965.5 641.5,965.5C 634.011,966.329 626.344,966.829 618.5,967C 621.001,968.418 620.668,969.418 617.5,970C 618.672,970.419 619.672,971.085 620.5,972C 666.833,972.667 713.167,972.667 759.5,972C 760.592,968.797 759.259,967.131 755.5,967C 747.173,966.5 738.84,966.334 730.5,966.5C 729.833,962.5 729.167,962.5 728.5,966.5C 720.316,966.826 712.316,966.492 704.5,965.5C 712.174,965.666 719.841,965.5 727.5,965C 726.695,963.887 726.028,962.721 725.5,961.5C 727.845,959.643 728.178,957.31 726.5,954.5C 733.2,954.83 739.866,954.497 746.5,953.5C 745.018,951.517 743.351,949.684 741.5,948C 734.842,947.5 728.175,947.334 721.5,947.5C 720.9,946.1 719.9,945.1 718.5,944.5C 732.849,944.833 747.182,944.499 761.5,943.5C 759.684,941.183 757.684,939.016 755.5,937C 746.173,936.5 736.839,936.334 727.5,936.5C 728.29,935.206 729.29,934.039 730.5,933C 741.161,932.5 751.828,932.333 762.5,932.5C 762.881,934.942 762.214,935.609 760.5,934.5C 759.585,935.328 758.919,936.328 758.5,937.5C 759.671,939.169 761.004,940.669 762.5,942C 763.573,943.416 763.573,944.75 762.5,946C 764.473,946.495 766.473,946.662 768.5,946.5C 768.707,943.783 769.04,941.449 769.5,939.5C 772.01,941.187 773.51,943.52 774,946.5C 774.654,945.304 775.154,945.304 775.5,946.5C 774.485,947.681 773.319,948.681 772,949.5C 770.594,948.586 769.094,947.92 767.5,947.5C 760.8,947.17 754.134,947.503 747.5,948.5C 748.982,950.483 750.649,952.316 752.5,954C 759.524,954.831 766.524,954.664 773.5,953.5C 773.137,952.817 772.804,952.15 772.5,951.5C 774.821,951.658 776.654,952.658 778,954.5C 778.368,953.09 779.201,952.09 780.5,951.5C 782.115,952.154 783.782,952.654 785.5,953C 784.542,954.147 784.875,955.147 786.5,956C 785.833,956.333 785.167,956.667 784.5,957C 788.002,959.011 788.002,960.344 784.5,961C 785.912,962.413 786.912,964.08 787.5,966C 785.645,967.8 784.978,969.8 785.5,972C 793.521,972.832 801.521,972.665 809.5,971.5C 808.388,970.735 807.721,969.735 807.5,968.5C 808.71,968.932 809.71,969.599 810.5,970.5C 810.577,971.75 811.244,972.583 812.5,973C 689.333,973.833 566.333,973.666 443.5,972.5C 445.85,971.139 448.184,969.806 450.5,968.5C 451.434,969.568 451.768,970.901 451.5,972.5C 506.167,972.5 560.833,972.5 615.5,972.5C 615.677,970.019 614.677,968.186 612.5,967C 604.479,966.832 596.479,966.332 588.5,965.5C 588.624,964.893 588.957,964.56 589.5,964.5C 597.01,965.82 604.677,965.82 612.5,964.5C 613.577,962.271 614.244,959.937 614.5,957.5C 607.5,957.5 600.5,957.5 593.5,957.5C 595.315,955.532 595.815,953.198 595,950.5C 593.961,951.71 592.794,952.71 591.5,953.5C 592.63,951.685 593.296,949.685 593.5,947.5C 587.158,947.334 580.825,947.5 574.5,948C 572.649,949.684 570.982,951.517 569.5,953.5C 575.798,954.496 582.132,954.83 588.5,954.5C 588.443,955.609 588.11,956.609 587.5,957.5C 580.159,957.334 572.826,957.5 565.5,958C 563.259,959.739 561.592,961.906 560.5,964.5C 568.138,965.497 575.804,965.831 583.5,965.5C 575.35,966.493 567.017,966.826 558.5,966.5C 558.026,962.843 556.693,962.676 554.5,966C 550,966.167 545.5,966.333 541,966.5C 536.081,966.468 531.414,965.801 527,964.5C 526.5,965 526,965.5 525.5,966C 507.995,966.829 490.662,966.662 473.5,965.5C 490.503,965.667 507.503,965.5 524.5,965C 530.497,959.836 536.164,954.336 541.5,948.5C 526.511,947.334 511.511,947.167 496.5,948C 495.756,949.039 494.756,949.539 493.5,949.5C 493.579,948.07 493.246,946.736 492.5,945.5C 490.229,944.637 487.895,944.637 485.5,945.5C 488.76,943.385 491.76,941.052 494.5,938.5C 497.556,937.704 500.556,936.704 503.5,935.5C 503.833,934.833 504.167,934.167 504.5,933.5C 525.156,932.5 545.823,932.167 566.5,932.5 Z"/></g>
<g><path style="opacity:1" fill="#f1f6fc" d="M 678.5,936.5 C 680.192,938.205 681.525,940.205 682.5,942.5C 679.316,944.414 675.649,945.08 671.5,944.5C 671.5,941.833 671.5,939.167 671.5,936.5C 673.833,936.5 676.167,936.5 678.5,936.5 Z"/></g>
<g><path style="opacity:1" fill="#dee8f4" d="M 511.5,937.5 C 517.176,937.334 522.843,937.501 528.5,938C 525.324,942.91 520.824,944.743 515,943.5C 512.167,943.167 509.333,942.833 506.5,942.5C 508.521,941.145 510.188,939.479 511.5,937.5 Z"/></g>
<g><path style="opacity:1" fill="#f0f4f9" d="M 727.5,936.5 C 736.839,936.334 746.173,936.5 755.5,937C 757.684,939.016 759.684,941.183 761.5,943.5C 747.182,944.499 732.849,944.833 718.5,944.5C 718.5,944.167 718.5,943.833 718.5,943.5C 718.5,942.167 718.5,940.833 718.5,939.5C 722.003,939.871 725.003,938.871 727.5,936.5 Z"/></g>
<g><path style="opacity:1" fill="#eff3f9" d="M 597.5,936.5 C 607.5,936.5 617.5,936.5 627.5,936.5C 629.065,938.509 630.065,940.843 630.5,943.5C 616.5,944.833 602.5,944.833 588.5,943.5C 592.043,941.892 595.043,939.558 597.5,936.5 Z"/></g>
<g><path style="opacity:1" fill="#f0f4f9" d="M 570.5,937.5 C 571.728,938.306 572.728,939.306 573.5,940.5C 573.5,941.5 573.5,942.5 573.5,943.5C 567.158,943.666 560.825,943.5 554.5,943C 558.52,937.887 563.853,936.053 570.5,937.5 Z"/></g>
<g><path style="opacity:1" fill="#eff4fa" d="M 535.5,937.5 C 541.176,937.334 546.843,937.501 552.5,938C 549.324,942.91 544.824,944.743 539,943.5C 536.167,943.167 533.333,942.833 530.5,942.5C 532.521,941.145 534.188,939.479 535.5,937.5 Z"/></g>
<g><path style="opacity:1" fill="#a1b6dd" d="M 625.5,932.5 C 626.674,933.514 627.34,934.847 627.5,936.5C 617.5,936.5 607.5,936.5 597.5,936.5C 598.028,935.279 598.695,934.113 599.5,933C 608.16,932.5 616.827,932.334 625.5,932.5 Z"/></g>
<g><path style="opacity:0.539" fill="#213472" d="M 461.5,927.5 C 462.833,928.167 464.167,928.833 465.5,929.5C 464.811,930.774 463.977,930.774 463,929.5C 462.654,931.218 462.154,932.885 461.5,934.5C 462.6,938.442 462.767,942.442 462,946.5C 460.644,947.38 459.144,947.714 457.5,947.5C 450.984,947.882 444.318,947.882 437.5,947.5C 424.656,947.829 411.989,947.495 399.5,946.5C 419.833,946.5 440.167,946.5 460.5,946.5C 460.177,939.978 460.51,933.645 461.5,927.5 Z"/></g>
<g><path style="opacity:0.075" fill="#26303f" d="M 494.5,938.5 C 491.76,941.052 488.76,943.385 485.5,945.5C 480.833,948.167 476.167,950.833 471.5,953.5C 478.305,947.259 485.971,942.259 494.5,938.5 Z"/></g>
<g><path style="opacity:1" fill="#f2f4f4" d="M 473.5,965.5 C 480.462,960.539 487.128,955.205 493.5,949.5C 494.756,949.539 495.756,949.039 496.5,948C 511.511,947.167 526.511,947.334 541.5,948.5C 536.164,954.336 530.497,959.836 524.5,965C 507.503,965.5 490.503,965.667 473.5,965.5 Z"/></g>
<g><path style="opacity:1" fill="#f1f5f9" d="M 548.5,947.5 C 555.2,947.17 561.866,947.503 568.5,948.5C 567.018,950.483 565.351,952.316 563.5,954C 556.5,954.667 549.5,954.667 542.5,954C 544.706,951.963 546.706,949.797 548.5,947.5 Z"/></g>
<g><path style="opacity:1" fill="#ebf0f7" d="M 767.5,947.5 C 768.585,949.587 770.251,950.92 772.5,951.5C 772.804,952.15 773.137,952.817 773.5,953.5C 766.524,954.664 759.524,954.831 752.5,954C 750.649,952.316 748.982,950.483 747.5,948.5C 754.134,947.503 760.8,947.17 767.5,947.5 Z"/></g>
<g><path style="opacity:1" fill="#edf3f8" d="M 599.5,947.5 C 606.2,947.17 612.866,947.503 619.5,948.5C 618.627,950.413 617.627,952.247 616.5,954C 609.842,954.5 603.175,954.666 596.5,954.5C 596.688,951.794 597.688,949.461 599.5,947.5 Z"/></g>
<g><path style="opacity:1" fill="#eef4fa" d="M 721.5,947.5 C 728.175,947.334 734.842,947.5 741.5,948C 743.351,949.684 745.018,951.517 746.5,953.5C 739.866,954.497 733.2,954.83 726.5,954.5C 724.453,952.45 722.786,950.117 721.5,947.5 Z"/></g>
<g><path style="opacity:1" fill="#e9eff8" d="M 591.5,953.5 C 590.609,954.11 589.609,954.443 588.5,954.5C 582.132,954.83 575.798,954.496 569.5,953.5C 570.982,951.517 572.649,949.684 574.5,948C 580.825,947.5 587.158,947.334 593.5,947.5C 593.296,949.685 592.63,951.685 591.5,953.5 Z"/></g>
<g><path style="opacity:1" fill="#ecf2fa" d="M 632.5,947.5 C 634.192,949.205 635.525,951.205 636.5,953.5C 631.652,954.814 626.652,954.814 621.5,953.5C 622.167,951.833 622.833,950.167 623.5,948.5C 626.428,947.516 629.428,947.183 632.5,947.5 Z"/></g>
<g><path style="opacity:0.094" fill="#283041" d="M 471.5,953.5 C 469.371,955.95 466.704,957.617 463.5,958.5C 465.629,956.05 468.296,954.383 471.5,953.5 Z"/></g>
<g><path style="opacity:1" fill="#f0f4f9" d="M 593.5,957.5 C 600.5,957.5 607.5,957.5 614.5,957.5C 614.244,959.937 613.577,962.271 612.5,964.5C 604.677,965.82 597.01,965.82 589.5,964.5C 590.596,961.968 591.929,959.635 593.5,957.5 Z"/></g>
<g><path style="opacity:1" fill="#f1f5f8" d="M 640.5,957.5 C 640.833,957.5 641.167,957.5 641.5,957.5C 641.5,960.167 641.5,962.833 641.5,965.5C 633.833,965.5 626.167,965.5 618.5,965.5C 618.22,962.728 618.887,960.228 620.5,958C 627.158,957.5 633.825,957.334 640.5,957.5 Z"/></g>
<g><path style="opacity:1" fill="#eff3f8" d="M 728.5,957.5 C 736.196,957.169 743.862,957.503 751.5,958.5C 753.358,960.524 755.025,962.691 756.5,965C 748.479,965.832 740.479,965.665 732.5,964.5C 730.89,962.275 729.557,959.941 728.5,957.5 Z"/></g>
<g><path style="opacity:1" fill="#f1f5f9" d="M 756.5,957.5 C 764.174,957.334 771.841,957.5 779.5,958C 781.874,960.039 783.874,962.372 785.5,965C 777.833,965.667 770.167,965.667 762.5,965C 759.882,962.894 757.882,960.394 756.5,957.5 Z"/></g>
<g><path style="opacity:1" fill="#eff3f8" d="M 725.5,961.5 C 726.028,962.721 726.695,963.887 727.5,965C 719.841,965.5 712.174,965.666 704.5,965.5C 703.33,963.35 702.33,961.016 701.5,958.5C 708.476,957.336 715.476,957.169 722.5,958C 723.71,959.039 724.71,960.206 725.5,961.5 Z"/></g>
<g><path style="opacity:1" fill="#95afe0" d="M 762.5,932.5 C 778.083,943.747 793.083,955.747 807.5,968.5C 807.721,969.735 808.388,970.735 809.5,971.5C 801.521,972.665 793.521,972.832 785.5,972C 784.978,969.8 785.645,967.8 787.5,966C 786.912,964.08 785.912,962.413 784.5,961C 788.002,960.344 788.002,959.011 784.5,957C 785.167,956.667 785.833,956.333 786.5,956C 784.875,955.147 784.542,954.147 785.5,953C 783.782,952.654 782.115,952.154 780.5,951.5C 779.201,952.09 778.368,953.09 778,954.5C 776.654,952.658 774.821,951.658 772.5,951.5C 770.251,950.92 768.585,949.587 767.5,947.5C 769.094,947.92 770.594,948.586 772,949.5C 773.319,948.681 774.485,947.681 775.5,946.5C 775.154,945.304 774.654,945.304 774,946.5C 773.51,943.52 772.01,941.187 769.5,939.5C 769.04,941.449 768.707,943.783 768.5,946.5C 766.473,946.662 764.473,946.495 762.5,946C 763.573,944.75 763.573,943.416 762.5,942C 761.004,940.669 759.671,939.169 758.5,937.5C 758.919,936.328 759.585,935.328 760.5,934.5C 762.214,935.609 762.881,934.942 762.5,932.5 Z"/></g>
<g><path style="opacity:1" fill="#9eb6e5" d="M 678.5,936.5 C 676.167,936.5 673.833,936.5 671.5,936.5C 671.5,939.167 671.5,941.833 671.5,944.5C 675.649,945.08 679.316,944.414 682.5,942.5C 683.89,943.899 684.89,945.566 685.5,947.5C 681.167,947.5 676.833,947.5 672.5,947.5C 672.318,949.591 672.652,951.591 673.5,953.5C 679.988,954.817 686.322,954.817 692.5,953.5C 704.859,958.917 713.525,955.584 718.5,943.5C 718.5,943.833 718.5,944.167 718.5,944.5C 719.9,945.1 720.9,946.1 721.5,947.5C 722.786,950.117 724.453,952.45 726.5,954.5C 728.178,957.31 727.845,959.643 725.5,961.5C 724.71,960.206 723.71,959.039 722.5,958C 715.476,957.169 708.476,957.336 701.5,958.5C 702.33,961.016 703.33,963.35 704.5,965.5C 712.316,966.492 720.316,966.826 728.5,966.5C 729.167,962.5 729.833,962.5 730.5,966.5C 738.84,966.334 747.173,966.5 755.5,967C 759.259,967.131 760.592,968.797 759.5,972C 713.167,972.667 666.833,972.667 620.5,972C 619.672,971.085 618.672,970.419 617.5,970C 620.668,969.418 621.001,968.418 618.5,967C 626.344,966.829 634.011,966.329 641.5,965.5C 641.5,962.833 641.5,960.167 641.5,957.5C 643.964,959.399 646.631,960.732 649.5,961.5C 648.5,961.5 647.5,961.5 646.5,961.5C 646.5,962.833 646.5,964.167 646.5,965.5C 654.167,965.5 661.833,965.5 669.5,965.5C 669.663,963.143 669.497,960.81 669,958.5C 667.989,957.663 666.822,957.33 665.5,957.5C 670.024,949.849 671.69,941.515 670.5,932.5C 672.924,932.192 675.257,932.526 677.5,933.5C 678.127,934.417 678.461,935.417 678.5,936.5 Z"/></g>
<g><path style="opacity:1" fill="#edf3f8" d="M 674.5,957.5 C 681.833,957.5 689.167,957.5 696.5,957.5C 697.461,960.426 698.127,963.426 698.5,966.5C 690.826,966.666 683.159,966.5 675.5,966C 674.556,963.281 674.223,960.448 674.5,957.5 Z"/></g>
<g><path style="opacity:1" fill="#ecf1f9" d="M 665.5,957.5 C 666.822,957.33 667.989,957.663 669,958.5C 669.497,960.81 669.663,963.143 669.5,965.5C 661.833,965.5 654.167,965.5 646.5,965.5C 646.5,964.167 646.5,962.833 646.5,961.5C 647.5,961.5 648.5,961.5 649.5,961.5C 655.395,962.257 660.729,960.924 665.5,957.5 Z"/></g>
<g><path style="opacity:1" fill="#f0f4f9" d="M 685.5,947.5 C 687.858,949.529 690.192,951.529 692.5,953.5C 686.322,954.817 679.988,954.817 673.5,953.5C 672.652,951.591 672.318,949.591 672.5,947.5C 676.833,947.5 681.167,947.5 685.5,947.5 Z"/></g>
<g><path style="opacity:1" fill="#99b0e2" d="M 346.5,780.5 C 363.826,837.48 381.159,894.48 398.5,951.5C 403.1,968.966 408.1,986.299 413.5,1003.5C 413.907,1008.69 411.74,1012.35 407,1014.5C 384.755,942.676 363.089,870.676 342,798.5C 338.384,790.04 332.218,784.707 323.5,782.5C 322.833,781.833 322.167,781.167 321.5,780.5C 320.048,779.698 318.382,779.198 316.5,779C 293.669,778.969 271.002,777.969 248.5,776C 252.16,775.453 255.827,774.953 259.5,774.5C 267.668,775.814 275.835,775.814 284,774.5C 286.479,775.245 288.979,775.911 291.5,776.5C 304.292,775.019 317.125,774.019 330,773.5C 336.55,773.428 342.05,775.761 346.5,780.5 Z"/></g>
<g><path style="opacity:1" fill="#9db6e6" d="M 493.5,949.5 C 487.128,955.205 480.462,960.539 473.5,965.5C 490.662,966.662 507.995,966.829 525.5,966C 526,965.5 526.5,965 527,964.5C 531.414,965.801 536.081,966.468 541,966.5C 545.5,966.333 550,966.167 554.5,966C 556.693,962.676 558.026,962.843 558.5,966.5C 567.017,966.826 575.35,966.493 583.5,965.5C 584.833,962.833 586.167,960.167 587.5,957.5C 588.11,956.609 588.443,955.609 588.5,954.5C 589.609,954.443 590.609,954.11 591.5,953.5C 592.794,952.71 593.961,951.71 595,950.5C 595.815,953.198 595.315,955.532 593.5,957.5C 591.929,959.635 590.596,961.968 589.5,964.5C 588.957,964.56 588.624,964.893 588.5,965.5C 596.479,966.332 604.479,966.832 612.5,967C 614.677,968.186 615.677,970.019 615.5,972.5C 560.833,972.5 506.167,972.5 451.5,972.5C 451.768,970.901 451.434,969.568 450.5,968.5C 455.014,965.409 459.347,962.075 463.5,958.5C 466.704,957.617 469.371,955.95 471.5,953.5C 476.167,950.833 480.833,948.167 485.5,945.5C 487.895,944.637 490.229,944.637 492.5,945.5C 493.246,946.736 493.579,948.07 493.5,949.5 Z"/></g>
<g><path style="opacity:1" fill="#eff3f6" d="M 537.5,957.5 C 544.863,957.169 552.197,957.503 559.5,958.5C 557.684,960.817 555.684,962.984 553.5,965C 545.833,965.667 538.167,965.667 530.5,965C 533.039,962.63 535.372,960.13 537.5,957.5 Z"/></g>
<g><path style="opacity:1" fill="#edf1f6" d="M 587.5,957.5 C 586.167,960.167 584.833,962.833 583.5,965.5C 575.804,965.831 568.138,965.497 560.5,964.5C 561.592,961.906 563.259,959.739 565.5,958C 572.826,957.5 580.159,957.334 587.5,957.5 Z"/></g>
<g><path style="opacity:1" fill="#29384d" d="M 810.5,970.5 C 812.532,971.048 813.532,972.381 813.5,974.5C 689.833,974.5 566.167,974.5 442.5,974.5C 442.328,973.508 442.662,972.842 443.5,972.5C 566.333,973.666 689.333,973.833 812.5,973C 811.244,972.583 810.577,971.75 810.5,970.5 Z"/></g>
<g><path style="opacity:1" fill="#879ec8" d="M 73.5,968.5 C 76.0059,972.11 77.8392,976.11 79,980.5C 80.2692,979.095 80.7692,977.429 80.5,975.5C 81.8333,975.5 83.1667,975.5 84.5,975.5C 84.5,978.833 84.5,982.167 84.5,985.5C 83.5,985.5 82.5,985.5 81.5,985.5C 81.6495,984.448 81.4828,983.448 81,982.5C 80.4397,987.32 81.1063,991.986 83,996.5C 84.6665,995.66 84.8331,996.16 83.5,998C 84.3958,1001.43 85.0624,1004.93 85.5,1008.5C 80.5909,995.551 76.5909,982.217 73.5,968.5 Z"/></g>
<g><path style="opacity:1" fill="#19273b" d="M 442.5,974.5 C 566.167,974.5 689.833,974.5 813.5,974.5C 814.338,974.842 814.672,975.508 814.5,976.5C 690.167,976.5 565.833,976.5 441.5,976.5C 441.328,975.508 441.662,974.842 442.5,974.5 Z"/></g>
<g><path style="opacity:1" fill="#7b8ead" d="M 441.5,976.5 C 565.833,976.5 690.167,976.5 814.5,976.5C 815.043,976.56 815.376,976.893 815.5,977.5C 814.811,981.366 813.811,985.032 812.5,988.5C 812.5,985.167 812.5,981.833 812.5,978.5C 688.694,977.171 565.027,977.171 441.5,978.5C 440.167,977.833 440.167,977.167 441.5,976.5 Z"/></g>
<g><path style="opacity:0.125" fill="#19212c" d="M 437.5,947.5 C 444.318,947.882 450.984,947.882 457.5,947.5C 456.737,948.268 455.737,948.768 454.5,949C 455.448,949.483 456.448,949.649 457.5,949.5C 458.093,952.945 459.093,956.279 460.5,959.5C 461.417,958.873 462.417,958.539 463.5,958.5C 459.347,962.075 455.014,965.409 450.5,968.5C 448.184,969.806 445.85,971.139 443.5,972.5C 442.662,972.842 442.328,973.508 442.5,974.5C 441.662,974.842 441.328,975.508 441.5,976.5C 440.167,977.167 440.167,977.833 441.5,978.5C 441.932,982.499 442.932,986.332 444.5,990C 566.5,990.5 688.5,990.667 810.5,990.5C 703.334,991.333 596.001,991.833 488.5,992C 491.623,992.206 494.623,992.873 497.5,994C 495.754,994.471 494.087,995.138 492.5,996C 494.058,996.21 495.391,996.71 496.5,997.5C 484.653,997.329 472.653,997.329 460.5,997.5C 445.129,996.85 430.129,997.516 415.5,999.5C 415.843,1001.48 415.176,1002.82 413.5,1003.5C 408.1,986.299 403.1,968.966 398.5,951.5C 398.5,950.5 398.5,949.5 398.5,948.5C 411.677,948.829 424.677,948.495 437.5,947.5 Z"/></g>
<g><path style="opacity:1" fill="#9eb6e3" d="M 812.5,988.5 C 812.5,989.833 811.833,990.5 810.5,990.5C 688.5,990.667 566.5,990.5 444.5,990C 442.932,986.332 441.932,982.499 441.5,978.5C 565.027,977.171 688.694,977.171 812.5,978.5C 812.5,981.833 812.5,985.167 812.5,988.5 Z"/></g>
<g><path style="opacity:0.227" fill="#3b4964" d="M 496.5,997.5 C 512.342,997.17 528.009,997.504 543.5,998.5C 515.662,998.831 487.995,998.498 460.5,997.5C 472.653,997.329 484.653,997.329 496.5,997.5 Z"/></g>
<g><path style="opacity:1" fill="#9ab2e0" d="M 460.5,997.5 C 487.995,998.498 515.662,998.831 543.5,998.5C 543.833,998.5 544.167,998.5 544.5,998.5C 500.338,1004.56 456.005,1010.06 411.5,1015C 416.474,1010.75 417.808,1005.58 415.5,999.5C 430.129,997.516 445.129,996.85 460.5,997.5 Z"/></g>
<g><path style="opacity:0.988" fill="#6f82a4" d="M 560.5,1001.5 C 562.049,1007.18 560.382,1011.85 555.5,1015.5C 555.167,1015.5 554.833,1015.5 554.5,1015.5C 555.639,1011.84 557.472,1008.51 560,1005.5C 560.49,1004.21 560.657,1002.87 560.5,1001.5 Z"/></g>
<g><path style="opacity:1" fill="#8ea5cc" d="M 85.5,1008.5 C 125.534,1008.03 165.534,1008.69 205.5,1010.5C 259.496,1011.4 313.496,1012.07 367.5,1012.5C 367.5,1011.17 367.5,1009.83 367.5,1008.5C 369.527,1008.34 371.527,1008.5 373.5,1009C 373.167,1009.33 372.833,1009.67 372.5,1010C 373.5,1010.33 374.5,1010.67 375.5,1011C 373.833,1011.33 372.167,1011.67 370.5,1012C 376.897,1013 383.23,1013.16 389.5,1012.5C 393.632,1012.58 397.632,1013.24 401.5,1014.5C 401.5,1013.5 401.5,1012.5 401.5,1011.5C 402.434,1012.57 402.768,1013.9 402.5,1015.5C 297.171,1013.25 191.838,1011.25 86.5,1009.5C 85.8333,1009.5 85.5,1009.17 85.5,1008.5 Z"/></g>
<g><path style="opacity:1" fill="#233145" d="M 323.5,782.5 C 332.218,784.707 338.384,790.04 342,798.5C 363.089,870.676 384.755,942.676 407,1014.5C 411.74,1012.35 413.907,1008.69 413.5,1003.5C 415.176,1002.82 415.843,1001.48 415.5,999.5C 417.808,1005.58 416.474,1010.75 411.5,1015C 456.005,1010.06 500.338,1004.56 544.5,998.5C 549.779,1000 555.112,1001 560.5,1001.5C 509.489,1007.25 458.489,1012.92 407.5,1018.5C 407.595,1025.64 410.595,1031.14 416.5,1035C 424.178,1034.94 431.844,1034.44 439.5,1033.5C 431.119,1035.79 422.452,1036.79 413.5,1036.5C 412.833,1036.17 412.167,1035.83 411.5,1035.5C 409.496,1034.33 407.996,1032.66 407,1030.5C 405.62,1026.69 404.453,1022.86 403.5,1019C 378.166,1018.44 352.833,1017.94 327.5,1017.5C 306.349,1016.09 285.015,1015.43 263.5,1015.5C 205.166,1014.52 146.833,1013.52 88.5,1012.5C 88.5,1013.83 88.5,1015.17 88.5,1016.5C 87.0762,1014.49 86.4095,1012.15 86.5,1009.5C 191.838,1011.25 297.171,1013.25 402.5,1015.5C 402.768,1013.9 402.434,1012.57 401.5,1011.5C 381.033,939.935 359.866,868.602 338,797.5C 334.784,792.104 330.284,788.438 324.5,786.5C 323.737,785.732 322.737,785.232 321.5,785C 220.834,784.5 120.167,784.333 19.5,784.5C 19.8417,783.662 20.5084,783.328 21.5,783.5C 122.237,783.831 222.904,783.498 323.5,782.5 Z"/></g>
<g><path style="opacity:1" fill="#99b2e3" d="M 560.5,1001.5 C 560.657,1002.87 560.49,1004.21 560,1005.5C 557.472,1008.51 555.639,1011.84 554.5,1015.5C 546.675,1016.66 539.009,1017.99 531.5,1019.5C 522.935,1021.26 514.269,1022.59 505.5,1023.5C 496.81,1024.31 488.143,1025.31 479.5,1026.5C 471.633,1027.69 463.633,1028.69 455.5,1029.5C 454.398,1030.18 453.398,1030.84 452.5,1031.5C 447.9,1031.28 443.567,1031.95 439.5,1033.5C 431.844,1034.44 424.178,1034.94 416.5,1035C 410.595,1031.14 407.595,1025.64 407.5,1018.5C 458.489,1012.92 509.489,1007.25 560.5,1001.5 Z"/></g>
<g><path style="opacity:1" fill="#4e5e7a" d="M 263.5,1015.5 C 285.015,1015.43 306.349,1016.09 327.5,1017.5C 305.984,1017.61 284.65,1016.94 263.5,1015.5 Z"/></g>
<g><path style="opacity:0.031" fill="#354153" d="M 554.5,1015.5 C 554.833,1015.5 555.167,1015.5 555.5,1015.5C 547.834,1018.03 539.834,1019.36 531.5,1019.5C 539.009,1017.99 546.675,1016.66 554.5,1015.5 Z"/></g>
<g><path style="opacity:1" fill="#98b1e1" d="M 263.5,1015.5 C 284.65,1016.94 305.984,1017.61 327.5,1017.5C 352.833,1017.94 378.166,1018.44 403.5,1019C 404.453,1022.86 405.62,1026.69 407,1030.5C 407.996,1032.66 409.496,1034.33 411.5,1035.5C 379.009,1035.68 346.342,1035.68 313.5,1035.5C 275.326,1035.02 237.326,1034.02 199.5,1032.5C 178.339,1031.44 157.005,1030.77 135.5,1030.5C 122.982,1029.76 110.316,1029.09 97.5,1028.5C 92.2596,1026.25 89.2596,1022.25 88.5,1016.5C 88.5,1015.17 88.5,1013.83 88.5,1012.5C 146.833,1013.52 205.166,1014.52 263.5,1015.5 Z"/></g>
<g><path style="opacity:0.055" fill="#37445a" d="M 505.5,1023.5 C 497.063,1025.47 488.396,1026.8 479.5,1027.5C 479.5,1027.17 479.5,1026.83 479.5,1026.5C 488.143,1025.31 496.81,1024.31 505.5,1023.5 Z"/></g>
<g><path style="opacity:0.986" fill="#6d7c99" d="M 479.5,1026.5 C 479.5,1026.83 479.5,1027.17 479.5,1027.5C 470.585,1029.15 461.585,1030.49 452.5,1031.5C 453.398,1030.84 454.398,1030.18 455.5,1029.5C 463.633,1028.69 471.633,1027.69 479.5,1026.5 Z"/></g>
<g><path style="opacity:0.773" fill="#70819e" d="M 97.5,1028.5 C 110.316,1029.09 122.982,1029.76 135.5,1030.5C 130.5,1030.5 125.5,1030.5 120.5,1030.5C 113.825,1030.67 107.158,1030.5 100.5,1030C 99.2625,1029.77 98.2625,1029.27 97.5,1028.5 Z"/></g>
<g><path style="opacity:0.508" fill="#343f56" d="M 120.5,1030.5 C 125.5,1030.5 130.5,1030.5 135.5,1030.5C 157.005,1030.77 178.339,1031.44 199.5,1032.5C 172.984,1032.71 146.651,1032.04 120.5,1030.5 Z"/></g>
<g><path style="opacity:0.129" fill="#334155" d="M 452.5,1031.5 C 448.382,1032.71 444.049,1033.38 439.5,1033.5C 443.567,1031.95 447.9,1031.28 452.5,1031.5 Z"/></g>
<g><path style="opacity:0.718" fill="#586982" d="M 313.5,1035.5 C 346.342,1035.68 379.009,1035.68 411.5,1035.5C 412.167,1035.83 412.833,1036.17 413.5,1036.5C 409.18,1037.17 404.68,1037.5 400,1037.5C 371.001,1036.96 342.168,1036.29 313.5,1035.5 Z"/></g>
</svg>
