<?xml version="1.0" encoding="UTF-8"?>
<!DOCTYPE svg PUBLIC "-//W3C//DTD SVG 1.1//EN" "http://www.w3.org/Graphics/SVG/1.1/DTD/svg11.dtd">
<svg xmlns="http://www.w3.org/2000/svg" version="1.1" width="896px" height="1000px" style="shape-rendering:geometricPrecision; text-rendering:geometricPrecision; image-rendering:optimizeQuality; fill-rule:evenodd; clip-rule:evenodd" xmlns:xlink="http://www.w3.org/1999/xlink">
<g><path style="opacity:1" fill="#283136" d="M 254.5,291.5 C 234.865,306.087 224.032,325.753 222,350.5C 221.831,357.856 221.331,365.189 220.5,372.5C 212.005,377.844 206.838,385.511 205,395.5C 204.501,400.823 204.334,406.156 204.5,411.5C 194.135,377.805 199.468,346.638 220.5,318C 218.071,317.297 215.738,317.463 213.5,318.5C 211.369,317.686 209.036,317.186 206.5,317C 216.734,315.648 216.401,314.148 205.5,312.5C 196.937,309.069 191.937,302.735 190.5,293.5C 190.245,286.556 191.245,279.889 193.5,273.5C 200.723,255.888 213.723,248.721 232.5,252C 251.999,258.172 258.999,271.006 253.5,290.5C 253.624,291.107 253.957,291.44 254.5,291.5 Z"/></g>
<g><path style="opacity:0.999" fill="#3f59b9" d="M 296.5,283.5 C 308.316,283.436 318.649,287.102 327.5,294.5C 316.138,290.905 304.471,289.571 292.5,290.5C 290.572,288.526 288.239,287.026 285.5,286C 288.759,284.272 292.092,284.106 295.5,285.5C 296.298,285.043 296.631,284.376 296.5,283.5 Z"/></g>
<g><path style="opacity:1" fill="#3558cb" d="M 296.5,283.5 C 296.631,284.376 296.298,285.043 295.5,285.5C 292.092,284.106 288.759,284.272 285.5,286C 288.239,287.026 290.572,288.526 292.5,290.5C 264.677,298.461 248.677,316.795 244.5,345.5C 243.883,345.611 243.383,345.944 243,346.5C 242.5,353.826 242.334,361.159 242.5,368.5C 237.211,368.024 232.211,368.858 227.5,371C 241.568,373.066 250.734,380.899 255,394.5C 258.948,409.208 255.781,422.041 245.5,433C 241.392,436.203 236.725,437.703 231.5,437.5C 229.097,437.552 226.764,437.219 224.5,436.5C 213.423,431.751 206.757,423.417 204.5,411.5C 204.334,406.156 204.501,400.823 205,395.5C 206.838,385.511 212.005,377.844 220.5,372.5C 221.331,365.189 221.831,357.856 222,350.5C 224.032,325.753 234.865,306.087 254.5,291.5C 267.683,284.706 281.683,282.039 296.5,283.5 Z"/></g>
<g><path style="opacity:1" fill="#273035" d="M 292.5,290.5 C 304.471,289.571 316.138,290.905 327.5,294.5C 337.931,298.946 347.598,304.613 356.5,311.5C 354.882,313.656 355.216,315.323 357.5,316.5C 366.523,328.242 370.523,341.576 369.5,356.5C 368.301,360.769 367.301,365.103 366.5,369.5C 365.609,368.89 364.609,368.557 363.5,368.5C 359.11,351.951 349.61,339.284 335,330.5C 330.704,345.095 322.871,357.428 311.5,367.5C 313.386,368.406 315.22,369.406 317,370.5C 317.49,371.793 317.657,373.127 317.5,374.5C 313.33,372.771 308.997,372.271 304.5,373C 297.991,375.928 291.324,378.261 284.5,380C 298.948,373.86 311.115,364.693 321,352.5C 321.667,351.833 321.667,351.167 321,350.5C 310.064,362.389 296.897,370.889 281.5,376C 274.746,378.308 268.079,380.475 261.5,382.5C 256.754,377.103 251.088,372.77 244.5,369.5C 243.301,361.494 243.301,353.494 244.5,345.5C 248.677,316.795 264.677,298.461 292.5,290.5 Z"/></g>
<g><path style="opacity:0.122" fill="#3c4547" d="M 193.5,273.5 C 191.245,279.889 190.245,286.556 190.5,293.5C 189.686,291.369 189.186,289.036 189,286.5C 184.721,305.538 192.221,315.038 211.5,315C 209.277,314.434 207.277,313.6 205.5,312.5C 216.401,314.148 216.734,315.648 206.5,317C 209.036,317.186 211.369,317.686 213.5,318.5C 193.28,319.403 183.78,309.736 185,289.5C 187.069,283.692 189.902,278.359 193.5,273.5 Z"/></g>
<g><path style="opacity:0.007" fill="#d0d3d3" d="M 368.5,328.5 C 367.637,327.537 366.97,327.537 366.5,328.5C 367.999,333.161 369.499,337.828 371,342.5C 371.602,339.779 371.435,337.113 370.5,334.5C 371.117,334.611 371.617,334.944 372,335.5C 372.172,341.681 372.672,347.681 373.5,353.5C 373.44,354.043 373.107,354.376 372.5,354.5C 371.702,352.922 371.202,351.256 371,349.5C 370.814,352.036 370.314,354.369 369.5,356.5C 370.523,341.576 366.523,328.242 357.5,316.5C 357.897,315.475 358.563,315.308 359.5,316C 363.131,319.785 366.131,323.951 368.5,328.5 Z"/></g>
<g><path style="opacity:0.671" fill="#575d60" d="M 356.5,311.5 C 371.602,321.701 377.269,335.701 373.5,353.5C 372.672,347.681 372.172,341.681 372,335.5C 371.617,334.944 371.117,334.611 370.5,334.5C 370.396,332.297 369.73,330.297 368.5,328.5C 366.131,323.951 363.131,319.785 359.5,316C 358.563,315.308 357.897,315.475 357.5,316.5C 355.216,315.323 354.882,313.656 356.5,311.5 Z"/></g>
<g><path style="opacity:1" fill="#fafbfb" d="M 363.5,368.5 C 366.068,385.485 366.068,402.485 363.5,419.5C 361.189,430.59 357.356,441.257 352,451.5C 338.368,470.103 320.201,476.77 297.5,471.5C 283.795,468.564 271.628,462.564 261,453.5C 265.192,461.723 271.025,468.89 278.5,475C 282.964,478.565 287.964,481.065 293.5,482.5C 295.265,483.461 297.265,483.795 299.5,483.5C 299.648,488.201 299.315,492.868 298.5,497.5C 298.34,499.355 299.007,500.688 300.5,501.5C 302.258,509.036 302.925,516.703 302.5,524.5C 302.5,525.5 302.5,526.5 302.5,527.5C 300.68,534.151 296.347,538.318 289.5,540C 279.981,541.197 271.315,539.03 263.5,533.5C 260.192,530.529 256.859,527.529 253.5,524.5C 251.518,521.19 249.185,518.19 246.5,515.5C 244.75,511.665 242.75,507.999 240.5,504.5C 238.881,500.931 237.548,497.264 236.5,493.5C 239.547,494.145 241.713,493.145 243,490.5C 245.161,478.547 246.995,466.547 248.5,454.5C 248.5,449.167 248.5,443.833 248.5,438.5C 264.108,428.93 270.275,414.93 267,396.5C 265.431,391.7 263.597,387.034 261.5,382.5C 268.079,380.475 274.746,378.308 281.5,376C 296.897,370.889 310.064,362.389 321,350.5C 321.667,351.167 321.667,351.833 321,352.5C 311.115,364.693 298.948,373.86 284.5,380C 291.324,378.261 297.991,375.928 304.5,373C 308.997,372.271 313.33,372.771 317.5,374.5C 317.657,373.127 317.49,371.793 317,370.5C 315.22,369.406 313.386,368.406 311.5,367.5C 322.871,357.428 330.704,345.095 335,330.5C 349.61,339.284 359.11,351.951 363.5,368.5 Z"/></g>
<g><path style="opacity:1" fill="#2a3336" d="M 345.5,367.5 C 348.518,367.335 351.518,367.502 354.5,368C 357.215,368.875 358.548,370.708 358.5,373.5C 355.715,372.694 352.881,372.028 350,371.5C 347.502,371.917 345.002,372.251 342.5,372.5C 342.31,370.041 343.31,368.374 345.5,367.5 Z"/></g>
<g><path style="opacity:1" fill="#425dcb" d="M 363.5,368.5 C 364.609,368.557 365.609,368.89 366.5,369.5C 378.411,384.578 379.577,400.578 370,417.5C 368.629,419.041 367.129,420.375 365.5,421.5C 364.167,421.5 363.5,420.833 363.5,419.5C 366.068,402.485 366.068,385.485 363.5,368.5 Z"/></g>
<g><path style="opacity:1" fill="#2646a6" d="M 222.5,381.5 C 233.444,380.718 240.944,385.385 245,395.5C 247.707,404.674 246.707,413.341 242,421.5C 235.826,428.098 228.659,429.264 220.5,425C 210.668,415.502 208.168,404.335 213,391.5C 215.696,387.639 218.863,384.306 222.5,381.5 Z"/></g>
<g><path style="opacity:1" fill="#3359ce" d="M 222.5,384.5 C 233.631,383.795 240.797,388.795 244,399.5C 246.075,410.081 242.908,418.581 234.5,425C 230.336,425.813 226.336,425.313 222.5,423.5C 211.84,413.199 210.007,401.532 217,388.5C 218.812,387.023 220.645,385.69 222.5,384.5 Z"/></g>
<g><path style="opacity:1" fill="#333a3d" d="M 349.5,385.5 C 351.39,385.297 352.89,385.963 354,387.5C 354.667,390.833 354.667,394.167 354,397.5C 352,400.167 350,400.167 348,397.5C 346.994,393.198 347.494,389.198 349.5,385.5 Z"/></g>
<g><path style="opacity:1" fill="#2f3739" d="M 308.5,386.5 C 312.323,387.5 313.99,390 313.5,394C 314.038,397.418 312.872,399.918 310,401.5C 306.436,400.264 304.936,397.764 305.5,394C 305.11,390.876 306.11,388.376 308.5,386.5 Z"/></g>
<g><path style="opacity:1" fill="#42484a" d="M 332.5,378.5 C 336.588,387.903 340.421,397.57 344,407.5C 344.667,410.5 344.667,413.5 344,416.5C 339.97,420.256 335.803,420.422 331.5,417C 334.623,416.794 337.623,416.127 340.5,415C 341.116,413.6 341.449,412.1 341.5,410.5C 338.489,399.805 335.489,389.138 332.5,378.5 Z"/></g>
<g><path style="opacity:1" fill="#284498" d="M 244.5,345.5 C 243.301,353.494 243.301,361.494 244.5,369.5C 251.088,372.77 256.754,377.103 261.5,382.5C 263.597,387.034 265.431,391.7 267,396.5C 270.275,414.93 264.108,428.93 248.5,438.5C 243.552,439.559 238.552,439.726 233.5,439C 232.584,438.722 231.918,438.222 231.5,437.5C 236.725,437.703 241.392,436.203 245.5,433C 255.781,422.041 258.948,409.208 255,394.5C 250.734,380.899 241.568,373.066 227.5,371C 232.211,368.858 237.211,368.024 242.5,368.5C 242.334,361.159 242.5,353.826 243,346.5C 243.383,345.944 243.883,345.611 244.5,345.5 Z"/></g>
<g><path style="opacity:0.075" fill="#7596e1" d="M 813.5,413.5 C 823.129,414.442 832.796,415.276 842.5,416C 843.416,416.278 844.082,416.778 844.5,417.5C 836.694,416.641 828.86,415.974 821,415.5C 818.071,415.475 815.571,414.809 813.5,413.5 Z"/></g>
<g><path style="opacity:1" fill="#404445" d="M 315.5,421.5 C 318.029,425.189 321.362,428.022 325.5,430C 329.548,430.434 333.548,430.434 337.5,430C 326.993,435.243 319.66,432.41 315.5,421.5 Z"/></g>
<g><path style="opacity:0.996" fill="#323b40" d="M 224.5,436.5 C 226.764,437.219 229.097,437.552 231.5,437.5C 231.918,438.222 232.584,438.722 233.5,439C 238.552,439.726 243.552,439.559 248.5,438.5C 248.5,443.833 248.5,449.167 248.5,454.5C 247.549,453.081 247.216,451.415 247.5,449.5C 246.209,449.263 245.209,449.596 244.5,450.5C 240.864,451.326 237.197,451.992 233.5,452.5C 231.007,452.869 230.34,452.203 231.5,450.5C 234.738,449.148 238.071,447.982 241.5,447C 235.132,444.49 229.465,440.99 224.5,436.5 Z"/></g>
<g><path style="opacity:0.851" fill="#757878" d="M 231.5,450.5 C 230.34,452.203 231.007,452.869 233.5,452.5C 230.347,453.995 227.181,455.662 224,457.5C 222.563,455.779 223.063,454.279 225.5,453C 227.407,451.878 229.407,451.045 231.5,450.5 Z"/></g>
<g><path style="opacity:1" fill="#2b3437" d="M 297.5,471.5 C 298.531,472.249 299.698,472.915 301,473.5C 301.497,475.81 301.663,478.143 301.5,480.5C 301.5,481.167 301.5,481.833 301.5,482.5C 298.833,482.5 296.167,482.5 293.5,482.5C 287.964,481.065 282.964,478.565 278.5,475C 271.025,468.89 265.192,461.723 261,453.5C 271.628,462.564 283.795,468.564 297.5,471.5 Z"/></g>
<g><path style="opacity:0.969" fill="#616566" d="M 244.5,450.5 C 245.209,449.596 246.209,449.263 247.5,449.5C 247.216,451.415 247.549,453.081 248.5,454.5C 246.995,466.547 245.161,478.547 243,490.5C 241.713,493.145 239.547,494.145 236.5,493.5C 234.833,493.5 233.167,493.5 231.5,493.5C 236.78,493.901 240.28,491.567 242,486.5C 244.073,475.582 245.573,464.582 246.5,453.5C 246.36,451.97 245.693,450.97 244.5,450.5 Z"/></g>
<g><path style="opacity:0.212" fill="#6d7171" d="M 363.5,419.5 C 363.5,420.833 364.167,421.5 365.5,421.5C 362.731,431.297 359.231,440.964 355,450.5C 342.507,469.159 325.007,477.159 302.5,474.5C 302.795,476.735 302.461,478.735 301.5,480.5C 301.663,478.143 301.497,475.81 301,473.5C 299.698,472.915 298.531,472.249 297.5,471.5C 320.201,476.77 338.368,470.103 352,451.5C 357.356,441.257 361.189,430.59 363.5,419.5 Z"/></g>
<g><path style="opacity:1" fill="#fcfcfc" d="M 213.5,498.5 C 216.126,500.823 218.793,503.157 221.5,505.5C 223.833,509.5 226.167,513.5 228.5,517.5C 229.323,519.987 230.323,522.321 231.5,524.5C 232.137,529.035 233.137,533.368 234.5,537.5C 234.721,546.866 234.387,556.199 233.5,565.5C 232.908,568.127 232.575,570.794 232.5,573.5C 230.333,580.012 228.333,586.678 226.5,593.5C 224.262,596.972 222.262,600.638 220.5,604.5C 220.167,605.5 219.5,606.167 218.5,606.5C 219.295,602.524 219.962,598.524 220.5,594.5C 222.304,589.025 223.47,583.358 224,577.5C 221.599,582.541 220.099,587.874 219.5,593.5C 211.9,626.437 206.9,659.77 204.5,693.5C 198.516,692.668 192.516,692.501 186.5,693C 198.943,694.221 210.943,697.221 222.5,702C 246.563,711.075 270.563,720.242 294.5,729.5C 295.93,730.537 297.597,731.204 299.5,731.5C 305.267,734.204 311.267,736.538 317.5,738.5C 321.203,740.679 325.203,742.345 329.5,743.5C 327.49,746.027 324.823,747.861 321.5,749C 320.304,749.654 320.304,750.154 321.5,750.5C 332.953,745.47 344.953,742.637 357.5,742C 370.542,741.123 383.542,741.456 396.5,743C 410.828,745.829 423.161,752.329 433.5,762.5C 437.553,767.219 441.22,772.219 444.5,777.5C 444.5,777.833 444.5,778.167 444.5,778.5C 444.5,780.167 444.5,781.833 444.5,783.5C 441.555,784.468 438.555,784.634 435.5,784C 429.75,776.522 423.75,769.189 417.5,762C 410.729,756.28 403.063,752.113 394.5,749.5C 393.226,750.359 393.392,751.026 395,751.5C 412.446,757.945 425.113,769.611 433,786.5C 434.127,793.372 431.293,795.706 424.5,793.5C 416.242,773.868 401.909,762.202 381.5,758.5C 399.679,763.853 413.179,774.853 422,791.5C 422.49,792.793 422.657,794.127 422.5,795.5C 421.833,795.833 421.167,796.167 420.5,796.5C 415.713,797.03 411.38,795.863 407.5,793C 403.211,787.042 398.544,781.376 393.5,776C 387.148,771.133 380.148,768.633 372.5,768.5C 384.275,771.468 393.775,777.801 401,787.5C 405.755,794.968 403.921,798.468 395.5,798C 392.688,796.672 390.022,795.172 387.5,793.5C 386.421,791.457 384.754,790.124 382.5,789.5C 374.574,782.491 365.907,781.658 356.5,787C 354.007,788.419 351.674,789.919 349.5,791.5C 339.328,796.21 328.662,798.043 317.5,797C 313.127,795.287 309.293,792.787 306,789.5C 306.606,792.46 308.439,794.627 311.5,796C 305.175,796.5 298.842,796.666 292.5,796.5C 251.933,795.684 212.599,788.518 174.5,775C 165.821,770.996 157.487,766.496 149.5,761.5C 149.167,760.5 148.5,759.833 147.5,759.5C 146.833,759.167 146.167,758.833 145.5,758.5C 136.407,750.648 130.073,740.981 126.5,729.5C 122.632,713.433 121.466,697.099 123,680.5C 124.465,669.148 125.965,657.814 127.5,646.5C 133.009,621.471 139.843,596.804 148,572.5C 152.422,560.324 157.922,548.657 164.5,537.5C 165.338,537.158 165.672,536.492 165.5,535.5C 174.148,519.69 186.815,508.19 203.5,501C 206.768,499.85 210.101,499.016 213.5,498.5 Z"/></g>
<g><path style="opacity:1" fill="#314cab" d="M 231.5,493.5 C 233.167,493.5 234.833,493.5 236.5,493.5C 237.548,497.264 238.881,500.931 240.5,504.5C 233.978,504.177 227.645,504.51 221.5,505.5C 218.793,503.157 216.126,500.823 213.5,498.5C 214.167,497.833 214.833,497.167 215.5,496.5C 220.591,494.871 225.924,493.871 231.5,493.5 Z"/></g>
<g><path style="opacity:1" fill="#3959ce" d="M 240.5,504.5 C 242.75,507.999 244.75,511.665 246.5,515.5C 246.414,516.496 246.748,517.329 247.5,518C 241.116,518.751 234.783,518.584 228.5,517.5C 226.167,513.5 223.833,509.5 221.5,505.5C 227.645,504.51 233.978,504.177 240.5,504.5 Z"/></g>
<g><path style="opacity:0.993" fill="#94caf6" d="M 662.5,400.5 C 661.378,401.156 660.045,401.489 658.5,401.5C 648.87,400.063 639.203,399.563 629.5,400C 624.6,401.902 621.433,405.402 620,410.5C 601.969,507.021 582.969,603.355 563,699.5C 561.52,705.549 562.686,710.882 566.5,715.5C 561.982,715.03 557.649,713.863 553.5,712C 551.393,710.736 550.393,708.903 550.5,706.5C 549.5,705.833 548.5,705.167 547.5,704.5C 548.75,704.423 549.583,703.756 550,702.5C 569.195,602.724 588.861,503.058 609,403.5C 612.079,397.963 616.746,395.296 623,395.5C 636.032,398.147 649.199,399.814 662.5,400.5 Z"/></g>
<g><path style="opacity:1" fill="#3858cf" d="M 308.5,505.5 C 309.167,506.167 309.833,506.833 310.5,507.5C 312.432,510.366 314.099,513.366 315.5,516.5C 311.971,518.423 307.971,519.089 303.5,518.5C 303.021,514.566 303.688,510.899 305.5,507.5C 305.291,506.914 304.957,506.414 304.5,506C 305.793,505.51 307.127,505.343 308.5,505.5 Z"/></g>
<g><path style="opacity:1" fill="#fbfcfc" d="M 541.5,706.5 C 544.5,706.5 547.5,706.5 550.5,706.5C 550.393,708.903 551.393,710.736 553.5,712C 557.649,713.863 561.982,715.03 566.5,715.5C 568.379,716.341 570.379,716.675 572.5,716.5C 583.147,721.771 592.314,729.104 600,738.5C 601.908,741.206 602.741,744.206 602.5,747.5C 600.944,749.988 598.611,750.988 595.5,750.5C 591.798,750.645 588.465,749.645 585.5,747.5C 581.145,743.991 576.478,740.991 571.5,738.5C 568.386,735.952 564.719,734.452 560.5,734C 555.167,733.333 549.833,733.333 544.5,734C 539.6,735.538 537.1,738.704 537,743.5C 537.377,744.942 538.21,745.942 539.5,746.5C 545.792,750.267 552.459,753.267 559.5,755.5C 562.485,757.255 564.985,759.588 567,762.5C 568.419,766.918 567.252,770.251 563.5,772.5C 558.821,772.666 554.155,772.499 549.5,772C 536.964,768.699 524.298,766.033 511.5,764C 509.593,762.878 507.593,762.045 505.5,761.5C 501.821,758.976 498.488,755.976 495.5,752.5C 494.479,753.002 494.312,753.668 495,754.5C 496.5,756 498,757.5 499.5,759C 487.997,759.646 476.664,760.479 465.5,761.5C 454.833,761.5 444.167,761.5 433.5,761.5C 423.595,750.542 411.262,743.709 396.5,741C 380.144,738.963 363.811,739.13 347.5,741.5C 346.534,727.215 346.2,712.882 346.5,698.5C 346.283,693.77 346.617,689.103 347.5,684.5C 347.971,682.421 348.637,680.421 349.5,678.5C 351.109,674.946 352.442,671.279 353.5,667.5C 355.205,664.739 356.538,661.739 357.5,658.5C 357.5,657.833 357.5,657.167 357.5,656.5C 360.537,649.622 361.871,642.289 361.5,634.5C 361.813,626.741 360.48,619.408 357.5,612.5C 357.233,610.035 356.566,607.701 355.5,605.5C 354.679,601.873 353.346,598.54 351.5,595.5C 350.345,591.203 348.679,587.203 346.5,583.5C 346.293,580.759 345.293,578.426 343.5,576.5C 342.345,572.203 340.679,568.203 338.5,564.5C 333.951,552.407 328.618,540.74 322.5,529.5C 322.34,527.847 321.674,526.514 320.5,525.5C 319.083,522.331 317.417,519.331 315.5,516.5C 314.099,513.366 312.432,510.366 310.5,507.5C 310.56,506.957 310.893,506.624 311.5,506.5C 327.682,516.181 339.182,529.848 346,547.5C 361.679,591.37 375.846,635.703 388.5,680.5C 383.933,680.744 379.599,681.91 375.5,684C 374.289,684.893 374.289,685.726 375.5,686.5C 380.611,682.851 386.278,681.685 392.5,683C 429.828,690.457 466.994,698.624 504,707.5C 516.473,706.548 528.973,706.215 541.5,706.5 Z"/></g>
<g><path style="opacity:1" fill="#2b49a8" d="M 246.5,515.5 C 249.185,518.19 251.518,521.19 253.5,524.5C 246.167,524.5 238.833,524.5 231.5,524.5C 230.323,522.321 229.323,519.987 228.5,517.5C 234.783,518.584 241.116,518.751 247.5,518C 246.748,517.329 246.414,516.496 246.5,515.5 Z"/></g>
<g><path style="opacity:1" fill="#324fab" d="M 300.5,501.5 C 303.205,502.853 305.872,504.186 308.5,505.5C 307.127,505.343 305.793,505.51 304.5,506C 304.957,506.414 305.291,506.914 305.5,507.5C 303.688,510.899 303.021,514.566 303.5,518.5C 307.971,519.089 311.971,518.423 315.5,516.5C 317.417,519.331 319.083,522.331 320.5,525.5C 314.591,524.545 308.591,524.211 302.5,524.5C 302.925,516.703 302.258,509.036 300.5,501.5 Z"/></g>
<g><path style="opacity:0.835" fill="#5c5f5e" d="M 215.5,496.5 C 214.833,497.167 214.167,497.833 213.5,498.5C 210.101,499.016 206.768,499.85 203.5,501C 186.815,508.19 174.148,519.69 165.5,535.5C 164.833,535.5 164.167,535.5 163.5,535.5C 174.555,514.109 191.889,501.109 215.5,496.5 Z"/></g>
<g><path style="opacity:1" fill="#3659d0" d="M 231.5,524.5 C 238.833,524.5 246.167,524.5 253.5,524.5C 256.859,527.529 260.192,530.529 263.5,533.5C 263.5,534.833 263.5,536.167 263.5,537.5C 253.833,537.5 244.167,537.5 234.5,537.5C 233.137,533.368 232.137,529.035 231.5,524.5 Z"/></g>
<g><path style="opacity:1" fill="#3658d1" d="M 302.5,524.5 C 308.591,524.211 314.591,524.545 320.5,525.5C 321.674,526.514 322.34,527.847 322.5,529.5C 322.241,532.565 323.241,535.065 325.5,537C 317.507,537.5 309.507,537.666 301.5,537.5C 301.724,535.213 302.391,533.047 303.5,531C 303.011,529.862 302.678,528.695 302.5,527.5C 302.5,526.5 302.5,525.5 302.5,524.5 Z"/></g>
<g><path style="opacity:0.546" fill="#5770c0" d="M 75.5,536.5 C 104.662,535.502 133.995,535.169 163.5,535.5C 164.167,535.5 164.833,535.5 165.5,535.5C 165.672,536.492 165.338,537.158 164.5,537.5C 140.672,536.502 116.672,536.169 92.5,536.5C 86.8333,536.5 81.1667,536.5 75.5,536.5 Z"/></g>
<g><path style="opacity:1" fill="#3558d3" d="M 92.5,536.5 C 116.672,536.169 140.672,536.502 164.5,537.5C 157.922,548.657 152.422,560.324 148,572.5C 139.843,596.804 133.009,621.471 127.5,646.5C 126.123,649.353 124.956,652.353 124,655.5C 123.42,661.489 122.253,667.323 120.5,673C 120.398,687.712 120.564,702.545 121,717.5C 121.96,720.633 122.793,723.8 123.5,727C 124.13,728.31 125.13,729.144 126.5,729.5C 130.073,740.981 136.407,750.648 145.5,758.5C 126.007,759.497 106.34,759.83 86.5,759.5C 79.395,701.736 71.2283,644.069 62,586.5C 61.3333,578.5 61.3333,570.5 62,562.5C 66.7336,547.393 76.9003,538.726 92.5,536.5 Z"/></g>
<g><path style="opacity:0.974" fill="#6078d9" d="M 825.5,537.5 C 824.785,544.411 823.451,551.077 821.5,557.5C 821.085,552.66 821.752,547.993 823.5,543.5C 823.32,542.446 822.987,541.446 822.5,540.5C 822.846,539.304 823.346,539.304 824,540.5C 824.232,539.263 824.732,538.263 825.5,537.5 Z"/></g>
<g><path style="opacity:1" fill="#2b4aac" d="M 302.5,527.5 C 302.678,528.695 303.011,529.862 303.5,531C 302.391,533.047 301.724,535.213 301.5,537.5C 309.507,537.666 317.507,537.5 325.5,537C 323.241,535.065 322.241,532.565 322.5,529.5C 328.618,540.74 333.951,552.407 338.5,564.5C 303.351,562.838 268.351,563.171 233.5,565.5C 234.387,556.199 234.721,546.866 234.5,537.5C 244.167,537.5 253.833,537.5 263.5,537.5C 263.5,536.167 263.5,534.833 263.5,533.5C 271.315,539.03 279.981,541.197 289.5,540C 296.347,538.318 300.68,534.151 302.5,527.5 Z"/></g>
<g><path style="opacity:1" fill="#3459d3" d="M 236.5,544.5 C 266.841,544.167 297.174,544.5 327.5,545.5C 330.319,548.616 331.986,552.282 332.5,556.5C 300.505,557.667 268.505,557.833 236.5,557C 235.197,552.834 235.197,548.667 236.5,544.5 Z"/></g>
<g><path style="opacity:1" fill="#3559d0" d="M 338.5,564.5 C 340.679,568.203 342.345,572.203 343.5,576.5C 343.5,576.833 343.5,577.167 343.5,577.5C 306.5,577.5 269.5,577.5 232.5,577.5C 232.5,576.167 232.5,574.833 232.5,573.5C 232.575,570.794 232.908,568.127 233.5,565.5C 268.351,563.171 303.351,562.838 338.5,564.5 Z"/></g>
<g><path style="opacity:1" fill="#2748a5" d="M 343.5,576.5 C 345.293,578.426 346.293,580.759 346.5,583.5C 307.832,583.667 269.165,583.5 230.5,583C 231.833,582 233.167,581 234.5,580C 233.833,579.667 233.167,579.333 232.5,579C 269.669,578.833 306.669,578.333 343.5,577.5C 343.5,577.167 343.5,576.833 343.5,576.5 Z"/></g>
<g><path style="opacity:1" fill="#3053be" d="M 232.5,573.5 C 232.5,574.833 232.5,576.167 232.5,577.5C 269.5,577.5 306.5,577.5 343.5,577.5C 306.669,578.333 269.669,578.833 232.5,579C 233.167,579.333 233.833,579.667 234.5,580C 233.167,581 231.833,582 230.5,583C 269.165,583.5 307.832,583.667 346.5,583.5C 348.679,587.203 350.345,591.203 351.5,595.5C 351.5,596.5 351.5,597.5 351.5,598.5C 309.663,598.832 267.997,598.499 226.5,597.5C 267.172,597.833 307.839,597.5 348.5,596.5C 348.306,594.263 348.306,592.097 348.5,590C 347.552,589.517 346.552,589.351 345.5,589.5C 345.714,587.856 345.38,586.356 344.5,585C 306.835,584.5 269.168,584.333 231.5,584.5C 230.626,587.897 229.459,591.23 228,594.5C 227.617,593.944 227.117,593.611 226.5,593.5C 228.333,586.678 230.333,580.012 232.5,573.5 Z"/></g>
<g><path style="opacity:1" fill="#3359d2" d="M 226.5,597.5 C 226.5,596.167 226.5,594.833 226.5,593.5C 227.117,593.611 227.617,593.944 228,594.5C 229.459,591.23 230.626,587.897 231.5,584.5C 269.168,584.333 306.835,584.5 344.5,585C 345.38,586.356 345.714,587.856 345.5,589.5C 346.552,589.351 347.552,589.517 348.5,590C 348.306,592.097 348.306,594.263 348.5,596.5C 307.839,597.5 267.172,597.833 226.5,597.5 Z"/></g>
<g><path style="opacity:1" fill="#696c6f" d="M 220.5,594.5 C 220.5,593.833 220.167,593.5 219.5,593.5C 220.099,587.874 221.599,582.541 224,577.5C 223.47,583.358 222.304,589.025 220.5,594.5 Z"/></g>
<g><path style="opacity:1" fill="#2848a8" d="M 226.5,593.5 C 226.5,594.833 226.5,596.167 226.5,597.5C 267.997,598.499 309.663,598.832 351.5,598.5C 351.5,597.5 351.5,596.5 351.5,595.5C 353.346,598.54 354.679,601.873 355.5,605.5C 354.711,605.217 354.044,604.717 353.5,604C 309.138,603.182 264.804,603.349 220.5,604.5C 222.262,600.638 224.262,596.972 226.5,593.5 Z"/></g>
<g><path style="opacity:1" fill="#2644a6" d="M 759.5,687.5 C 759.5,687.833 759.5,688.167 759.5,688.5C 759.5,690.167 759.5,691.833 759.5,693.5C 759.572,696.193 759.905,698.86 760.5,701.5C 760.64,703.03 761.307,704.03 762.5,704.5C 765.962,722.476 769.295,740.476 772.5,758.5C 772.328,759.492 772.662,760.158 773.5,760.5C 774.906,770.531 776.573,780.531 778.5,790.5C 778.081,795.498 776.414,799.998 773.5,804C 757.185,808.129 740.852,812.129 724.5,816C 691.331,816.831 658.331,816.664 625.5,815.5C 658.168,815.667 690.835,815.5 723.5,815C 730.227,810.513 732.893,804.18 731.5,796C 731.419,790.461 730.919,784.961 730,779.5C 719.586,720.93 709.753,662.263 700.5,603.5C 714.145,602.484 727.812,601.817 741.5,601.5C 747.306,629.424 752.806,657.424 758,685.5C 758.278,686.416 758.778,687.082 759.5,687.5 Z"/></g>
<g><path style="opacity:1" fill="#3458cf" d="M 355.5,605.5 C 356.566,607.701 357.233,610.035 357.5,612.5C 357.357,614.262 357.691,615.929 358.5,617.5C 314.504,618.667 270.504,618.833 226.5,618C 223.905,617.774 221.405,617.274 219,616.5C 218.503,613.854 218.336,611.187 218.5,608.5C 218.5,607.833 218.5,607.167 218.5,606.5C 219.5,606.167 220.167,605.5 220.5,604.5C 264.804,603.349 309.138,603.182 353.5,604C 354.044,604.717 354.711,605.217 355.5,605.5 Z"/></g>
<g><path style="opacity:0.365" fill="#6f7273" d="M 293.5,482.5 C 296.167,482.5 298.833,482.5 301.5,482.5C 300.752,488.2 300.752,493.867 301.5,499.5C 313.766,504.224 324.266,511.557 333,521.5C 338.755,529.336 343.755,537.669 348,546.5C 353.591,560.272 358.591,574.272 363,588.5C 372.204,618.838 381.538,649.172 391,679.5C 428.67,688.073 466.337,696.74 504,705.5C 508.781,704.581 513.615,704.248 518.5,704.5C 526.167,705.167 533.833,705.833 541.5,706.5C 528.973,706.215 516.473,706.548 504,707.5C 466.994,698.624 429.828,690.457 392.5,683C 386.278,681.685 380.611,682.851 375.5,686.5C 374.289,685.726 374.289,684.893 375.5,684C 379.599,681.91 383.933,680.744 388.5,680.5C 375.846,635.703 361.679,591.37 346,547.5C 339.182,529.848 327.682,516.181 311.5,506.5C 310.893,506.624 310.56,506.957 310.5,507.5C 309.833,506.833 309.167,506.167 308.5,505.5C 305.872,504.186 303.205,502.853 300.5,501.5C 299.007,500.688 298.34,499.355 298.5,497.5C 299.315,492.868 299.648,488.201 299.5,483.5C 297.265,483.795 295.265,483.461 293.5,482.5 Z"/></g>
<g><path style="opacity:0.075" fill="#abb7d1" d="M 34.5,599.5 C 35.1174,599.611 35.6174,599.944 36,600.5C 36.7575,606.149 37.2575,611.816 37.5,617.5C 36.2157,611.665 35.2157,605.665 34.5,599.5 Z"/></g>
<g><path style="opacity:1" fill="#354052" d="M 219.5,593.5 C 220.167,593.5 220.5,593.833 220.5,594.5C 219.962,598.524 219.295,602.524 218.5,606.5C 218.5,607.167 218.5,607.833 218.5,608.5C 216.988,615.678 215.655,623.012 214.5,630.5C 214.5,631.167 214.5,631.833 214.5,632.5C 211.958,642.567 210.291,652.9 209.5,663.5C 208.949,666.807 208.616,670.14 208.5,673.5C 207.521,676.625 207.187,679.958 207.5,683.5C 206.192,687.019 206.192,690.685 207.5,694.5C 209.45,695.372 211.45,696.039 213.5,696.5C 226.08,701.111 238.747,705.778 251.5,710.5C 256.664,713.088 261.998,715.088 267.5,716.5C 274.75,720.316 282.416,723.482 290.5,726C 292.093,726.949 293.426,728.115 294.5,729.5C 270.563,720.242 246.563,711.075 222.5,702C 210.943,697.221 198.943,694.221 186.5,693C 192.516,692.501 198.516,692.668 204.5,693.5C 206.9,659.77 211.9,626.437 219.5,593.5 Z"/></g>
<g><path style="opacity:1" fill="#3358d2" d="M 214.5,632.5 C 214.5,631.833 214.5,631.167 214.5,630.5C 215.738,628.786 216.405,626.786 216.5,624.5C 264.168,624.333 311.834,624.5 359.5,625C 360.464,629.066 360.797,633.233 360.5,637.5C 311.833,637.5 263.167,637.5 214.5,637.5C 214.5,635.833 214.5,634.167 214.5,632.5 Z"/></g>
<g><path style="opacity:1" fill="#284aac" d="M 218.5,608.5 C 218.336,611.187 218.503,613.854 219,616.5C 221.405,617.274 223.905,617.774 226.5,618C 270.504,618.833 314.504,618.667 358.5,617.5C 357.691,615.929 357.357,614.262 357.5,612.5C 360.48,619.408 361.813,626.741 361.5,634.5C 361.871,642.289 360.537,649.622 357.5,656.5C 357.335,653.15 357.502,649.817 358,646.5C 358.5,646 359,645.5 359.5,645C 310.834,644.5 262.168,644.333 213.5,644.5C 212.446,649.107 211.779,653.773 211.5,658.5C 260.167,658.5 308.833,658.5 357.5,658.5C 356.538,661.739 355.205,664.739 353.5,667.5C 353.33,666.178 353.663,665.011 354.5,664C 306.168,663.5 257.834,663.333 209.5,663.5C 210.291,652.9 211.958,642.567 214.5,632.5C 214.5,634.167 214.5,635.833 214.5,637.5C 263.167,637.5 311.833,637.5 360.5,637.5C 360.797,633.233 360.464,629.066 359.5,625C 311.834,624.5 264.168,624.333 216.5,624.5C 216.405,626.786 215.738,628.786 214.5,630.5C 215.655,623.012 216.988,615.678 218.5,608.5 Z"/></g>
<g><path style="opacity:1" fill="#3459d0" d="M 357.5,656.5 C 357.5,657.167 357.5,657.833 357.5,658.5C 308.833,658.5 260.167,658.5 211.5,658.5C 211.779,653.773 212.446,649.107 213.5,644.5C 262.168,644.333 310.834,644.5 359.5,645C 359,645.5 358.5,646 358,646.5C 357.502,649.817 357.335,653.15 357.5,656.5 Z"/></g>
<g><path style="opacity:1" fill="#3457d4" d="M 662.5,400.5 C 712.777,405.294 763.111,409.628 813.5,413.5C 815.571,414.809 818.071,415.475 821,415.5C 828.86,415.974 836.694,416.641 844.5,417.5C 848.24,420.599 849.407,424.599 848,429.5C 841.068,465.66 833.568,501.66 825.5,537.5C 824.732,538.263 824.232,539.263 824,540.5C 823.346,539.304 822.846,539.304 822.5,540.5C 822.987,541.446 823.32,542.446 823.5,543.5C 821.752,547.993 821.085,552.66 821.5,557.5C 815.624,586.65 809.624,615.65 803.5,644.5C 802.883,644.611 802.383,644.944 802,645.5C 801.667,647.5 801.333,649.5 801,651.5C 800.086,650.346 799.253,650.513 798.5,652C 800.497,653.153 800.83,654.653 799.5,656.5C 798.914,656.291 798.414,655.957 798,655.5C 797.56,657.076 796.727,658.41 795.5,659.5C 794.459,662.049 794.459,664.883 795.5,668C 794.591,671.556 793.591,675.056 792.5,678.5C 790.248,679.333 788.081,679.333 786,678.5C 777.117,681.44 768.284,684.44 759.5,687.5C 758.778,687.082 758.278,686.416 758,685.5C 752.806,657.424 747.306,629.424 741.5,601.5C 727.812,601.817 714.145,602.484 700.5,603.5C 698.069,602.685 695.736,603.018 693.5,604.5C 687.637,636.947 681.304,669.28 674.5,701.5C 667.287,703.08 659.954,704.08 652.5,704.5C 643.923,703.714 635.756,703.38 628,703.5C 626.82,704.684 625.32,705.351 623.5,705.5C 621.68,705.351 620.18,704.684 619,703.5C 618.517,704.448 618.351,705.448 618.5,706.5C 613.045,707.703 607.545,708.703 602,709.5C 599.36,708.884 596.694,709.217 594,710.5C 593.667,710.167 593.333,709.833 593,709.5C 591.445,711.146 589.779,711.479 588,710.5C 586.961,711.244 586.461,712.244 586.5,713.5C 585.508,713.328 584.842,713.662 584.5,714.5C 581.219,714.42 578.219,715.087 575.5,716.5C 574.5,716.5 573.5,716.5 572.5,716.5C 570.379,716.675 568.379,716.341 566.5,715.5C 562.686,710.882 561.52,705.549 563,699.5C 582.969,603.355 601.969,507.021 620,410.5C 621.433,405.402 624.6,401.902 629.5,400C 639.203,399.563 648.87,400.063 658.5,401.5C 660.045,401.489 661.378,401.156 662.5,400.5 Z"/></g>
<g><path style="opacity:1" fill="#2547ac" d="M 651.5,439.5 C 708.206,441.135 764.873,443.635 821.5,447C 824.685,448.704 826.019,451.37 825.5,455C 819.084,488.5 812.584,522 806,555.5C 804.462,562.657 802.462,569.657 800,576.5C 798.167,577.667 796.333,578.833 794.5,580C 747.502,582.37 700.502,584.704 653.5,587C 643.453,587.808 633.453,587.641 623.5,586.5C 621.679,584.525 620.679,582.191 620.5,579.5C 628.507,535.414 636.674,491.414 645,447.5C 646.305,444.039 648.471,441.372 651.5,439.5 Z"/></g>
<g><path style="opacity:1" fill="#3356d4" d="M 819.5,470.5 C 819.565,470.062 819.399,469.728 819,469.5C 818.685,472.147 817.518,472.813 815.5,471.5C 814.738,470.372 814.071,469.205 813.5,468C 814.554,466.612 814.72,465.112 814,463.5C 811.968,460.146 809.968,456.813 808,453.5C 806.729,456.638 806.562,459.638 807.5,462.5C 803.833,462.5 800.167,462.5 796.5,462.5C 790.936,461.855 785.269,461.022 779.5,460C 783.688,459.824 787.688,459.324 791.5,458.5C 791.5,457.5 791.5,456.5 791.5,455.5C 772.149,455.309 752.816,454.642 733.5,453.5C 731.833,453.833 730.167,454.167 728.5,454.5C 727.873,455.417 727.539,456.417 727.5,457.5C 726.687,458.653 725.687,458.653 724.5,457.5C 723.304,457.846 723.304,458.346 724.5,459C 722.581,460.934 721.081,460.767 720,458.5C 719.692,459.308 719.192,459.975 718.5,460.5C 717.828,459.051 717.161,457.718 716.5,456.5C 697.177,455.573 677.843,454.906 658.5,454.5C 655.05,477.202 651.383,499.869 647.5,522.5C 646.85,524.435 646.517,526.435 646.5,528.5C 665.833,528.5 685.167,528.5 704.5,528.5C 705.158,529.398 705.824,530.398 706.5,531.5C 707.192,530.975 707.692,530.308 708,529.5C 709.68,530.603 711.18,530.27 712.5,528.5C 713.167,526.5 713.833,524.5 714.5,522.5C 715.452,524.045 715.785,525.712 715.5,527.5C 727.678,527.828 739.678,527.495 751.5,526.5C 758.167,526.5 764.833,526.5 771.5,526.5C 771.5,525.5 771.5,524.5 771.5,523.5C 765.756,522.955 760.09,521.955 754.5,520.5C 760.5,520.5 766.5,520.5 772.5,520.5C 772.5,519.167 772.5,517.833 772.5,516.5C 772.918,515.778 773.584,515.278 774.5,515C 773.944,514.617 773.611,514.117 773.5,513.5C 773.5,512.5 773.5,511.5 773.5,510.5C 773.611,508.476 772.945,506.476 771.5,504.5C 754.167,503.167 736.833,503.167 719.5,504.5C 718.596,505.209 718.263,506.209 718.5,507.5C 717.325,507.719 716.325,507.386 715.5,506.5C 716.248,504.668 717.248,503.001 718.5,501.5C 718.725,497.01 718.392,492.677 717.5,488.5C 719.542,487.497 719.875,486.163 718.5,484.5C 719.766,483.638 721.099,482.971 722.5,482.5C 722.5,483.833 722.5,485.167 722.5,486.5C 729.167,486.5 735.833,486.5 742.5,486.5C 735.445,487.509 728.445,488.843 721.5,490.5C 721.5,491.833 721.5,493.167 721.5,494.5C 726.833,494.5 732.167,494.5 737.5,494.5C 737.918,495.222 738.584,495.722 739.5,496C 732.987,496.172 726.653,496.672 720.5,497.5C 719.766,498.708 719.433,500.041 719.5,501.5C 727.772,502.085 735.772,501.418 743.5,499.5C 743.369,500.239 743.536,500.906 744,501.5C 744.689,500.643 745.522,499.977 746.5,499.5C 748.941,500.327 751.107,500.327 753,499.5C 753.167,499.167 753.333,498.833 753.5,498.5C 751.922,497.702 750.256,497.202 748.5,497C 749.167,496.667 749.833,496.333 750.5,496C 769.167,495.333 787.833,495.333 806.5,496C 805.289,497.113 805.289,498.28 806.5,499.5C 808.652,501.53 810.652,503.53 812.5,505.5C 808.654,526.885 804.488,548.219 800,569.5C 799.412,572.974 797.578,575.474 794.5,577C 738.193,580.346 681.86,582.679 625.5,584C 624.152,582.426 623.486,580.593 623.5,578.5C 629.92,543.226 636.42,507.893 643,472.5C 644.712,462.984 647.046,453.651 650,444.5C 650.75,443.874 651.584,443.374 652.5,443C 656.667,442.833 660.833,442.667 665,442.5C 716.476,445.08 767.976,447.246 819.5,449C 821.881,450.509 822.881,452.675 822.5,455.5C 821.62,460.659 820.62,465.659 819.5,470.5 Z"/></g>
<g><path style="opacity:1" fill="#498fec" d="M 696.5,556.5 C 702.833,556.5 709.167,556.5 715.5,556.5C 715.5,557.833 715.5,559.167 715.5,560.5C 693.496,561.059 671.496,561.726 649.5,562.5C 649.5,561.167 649.5,559.833 649.5,558.5C 665.34,558.207 681.006,557.54 696.5,556.5 Z"/></g>
<g><path style="opacity:1" fill="#478cea" d="M 651.5,550.5 C 662.167,550.5 672.833,550.5 683.5,550.5C 683.5,551.833 683.5,553.167 683.5,554.5C 672.5,554.5 661.5,554.5 650.5,554.5C 650.433,553.041 650.766,551.708 651.5,550.5 Z"/></g>
<g><path style="opacity:1" fill="#4c91ec" d="M 726.5,548.5 C 737.5,548.5 748.5,548.5 759.5,548.5C 759.5,549.833 759.5,551.167 759.5,552.5C 735.496,552.591 711.496,552.924 687.5,553.5C 687.5,552.167 687.5,550.833 687.5,549.5C 700.677,549.829 713.677,549.495 726.5,548.5 Z"/></g>
<g><path style="opacity:1" fill="#488fec" d="M 778.5,539.5 C 783.167,539.5 787.833,539.5 792.5,539.5C 792.5,540.833 792.5,542.167 792.5,543.5C 745.831,544.428 699.165,545.428 652.5,546.5C 652.5,545.167 652.5,543.833 652.5,542.5C 694.668,541.8 736.668,540.8 778.5,539.5 Z"/></g>
<g><path style="opacity:1" fill="#4b90ec" d="M 771.5,523.5 C 771.5,524.5 771.5,525.5 771.5,526.5C 764.833,526.5 758.167,526.5 751.5,526.5C 739.833,526.5 728.167,526.5 716.5,526.5C 716.5,525.5 716.5,524.5 716.5,523.5C 734.833,523.5 753.167,523.5 771.5,523.5 Z"/></g>
<g><path style="opacity:1" fill="#4380e4" d="M 772.5,516.5 C 772.5,517.833 772.5,519.167 772.5,520.5C 766.5,520.5 760.5,520.5 754.5,520.5C 741.833,520.5 729.167,520.5 716.5,520.5C 716.263,519.209 716.596,518.209 717.5,517.5C 735.659,516.503 753.992,516.17 772.5,516.5 Z"/></g>
<g><path style="opacity:1" fill="#4c94ed" d="M 717.5,517.5 C 735.512,517.167 753.512,517.5 771.5,518.5C 762.5,518.833 753.5,519.167 744.5,519.5C 735.141,519.498 726.141,518.832 717.5,517.5 Z"/></g>
<g><path style="opacity:1" fill="#4a91ea" d="M 773.5,510.5 C 773.5,511.5 773.5,512.5 773.5,513.5C 755.167,513.5 736.833,513.5 718.5,513.5C 718.5,512.5 718.5,511.5 718.5,510.5C 736.833,510.5 755.167,510.5 773.5,510.5 Z"/></g>
<g><path style="opacity:1" fill="#569ef1" d="M 715.5,463.5 C 711.941,485.19 708.274,506.856 704.5,528.5C 685.167,528.5 665.833,528.5 646.5,528.5C 646.517,526.435 646.85,524.435 647.5,522.5C 648.496,522.586 649.329,522.252 650,521.5C 653.29,514.879 658.457,510.379 665.5,508C 666.5,505.667 668.167,504 670.5,503C 675.386,501.776 680.386,501.109 685.5,501C 686.3,495.444 687.467,489.944 689,484.5C 697.996,477.667 706.829,470.667 715.5,463.5 Z"/></g>
<g><path style="opacity:1" fill="#355ad4" d="M 819.5,470.5 C 818.041,482.462 815.708,494.129 812.5,505.5C 810.652,503.53 808.652,501.53 806.5,499.5C 805.289,498.28 805.289,497.113 806.5,496C 787.833,495.333 769.167,495.333 750.5,496C 749.833,496.333 749.167,496.667 748.5,497C 750.256,497.202 751.922,497.702 753.5,498.5C 753.333,498.833 753.167,499.167 753,499.5C 751.107,500.327 748.941,500.327 746.5,499.5C 745.522,499.977 744.689,500.643 744,501.5C 743.536,500.906 743.369,500.239 743.5,499.5C 736.24,497.535 728.573,496.868 720.5,497.5C 726.653,496.672 732.987,496.172 739.5,496C 738.584,495.722 737.918,495.222 737.5,494.5C 760.5,494.5 783.5,494.5 806.5,494.5C 806.5,493.5 806.5,492.5 806.5,491.5C 778.169,491.014 749.836,490.681 721.5,490.5C 728.445,488.843 735.445,487.509 742.5,486.5C 764.157,487.3 785.824,487.633 807.5,487.5C 807.5,486.167 807.5,484.833 807.5,483.5C 779.167,483.151 750.834,482.818 722.5,482.5C 721.099,482.971 719.766,483.638 718.5,484.5C 719.875,486.163 719.542,487.497 717.5,488.5C 718.392,492.677 718.725,497.01 718.5,501.5C 717.248,503.001 716.248,504.668 715.5,506.5C 716.325,507.386 717.325,507.719 718.5,507.5C 718.263,506.209 718.596,505.209 719.5,504.5C 719.5,505.5 719.5,506.5 719.5,507.5C 736.833,507.5 754.167,507.5 771.5,507.5C 771.5,506.5 771.5,505.5 771.5,504.5C 772.945,506.476 773.611,508.476 773.5,510.5C 755.167,510.5 736.833,510.5 718.5,510.5C 718.5,511.5 718.5,512.5 718.5,513.5C 736.833,513.5 755.167,513.5 773.5,513.5C 773.611,514.117 773.944,514.617 774.5,515C 773.584,515.278 772.918,515.778 772.5,516.5C 753.992,516.17 735.659,516.503 717.5,517.5C 716.596,518.209 716.263,519.209 716.5,520.5C 729.167,520.5 741.833,520.5 754.5,520.5C 760.09,521.955 765.756,522.955 771.5,523.5C 753.167,523.5 734.833,523.5 716.5,523.5C 716.5,524.5 716.5,525.5 716.5,526.5C 728.167,526.5 739.833,526.5 751.5,526.5C 739.678,527.495 727.678,527.828 715.5,527.5C 715.785,525.712 715.452,524.045 714.5,522.5C 713.833,524.5 713.167,526.5 712.5,528.5C 711.18,530.27 709.68,530.603 708,529.5C 707.692,530.308 707.192,530.975 706.5,531.5C 705.824,530.398 705.158,529.398 704.5,528.5C 708.274,506.856 711.941,485.19 715.5,463.5C 716.219,461.236 716.552,458.903 716.5,456.5C 717.161,457.718 717.828,459.051 718.5,460.5C 719.192,459.975 719.692,459.308 720,458.5C 721.081,460.767 722.581,460.934 724.5,459C 723.304,458.346 723.304,457.846 724.5,457.5C 725.687,458.653 726.687,458.653 727.5,457.5C 748.828,458.1 770.162,458.433 791.5,458.5C 787.688,459.324 783.688,459.824 779.5,460C 785.269,461.022 790.936,461.855 796.5,462.5C 785.164,462.241 773.831,461.907 762.5,461.5C 762.5,462.833 762.5,464.167 762.5,465.5C 778.164,466.173 793.831,466.34 809.5,466C 810.337,464.989 810.67,463.822 810.5,462.5C 809.5,462.5 808.5,462.5 807.5,462.5C 806.562,459.638 806.729,456.638 808,453.5C 809.968,456.813 811.968,460.146 814,463.5C 814.72,465.112 814.554,466.612 813.5,468C 814.071,469.205 814.738,470.372 815.5,471.5C 817.518,472.813 818.685,472.147 819,469.5C 819.399,469.728 819.565,470.062 819.5,470.5 Z"/></g>
<g><path style="opacity:1" fill="#4687e6" d="M 771.5,504.5 C 771.5,505.5 771.5,506.5 771.5,507.5C 754.167,507.5 736.833,507.5 719.5,507.5C 719.5,506.5 719.5,505.5 719.5,504.5C 736.833,503.167 754.167,503.167 771.5,504.5 Z"/></g>
<g><path style="opacity:1" fill="#468ae9" d="M 720.5,497.5 C 728.573,496.868 736.24,497.535 743.5,499.5C 735.772,501.418 727.772,502.085 719.5,501.5C 719.433,500.041 719.766,498.708 720.5,497.5 Z"/></g>
<g><path style="opacity:1" fill="#4792eb" d="M 721.5,490.5 C 749.836,490.681 778.169,491.014 806.5,491.5C 806.5,492.5 806.5,493.5 806.5,494.5C 783.5,494.5 760.5,494.5 737.5,494.5C 732.167,494.5 726.833,494.5 721.5,494.5C 721.5,493.167 721.5,491.833 721.5,490.5 Z"/></g>
<g><path style="opacity:1" fill="#468ce9" d="M 722.5,482.5 C 750.834,482.818 779.167,483.151 807.5,483.5C 807.5,484.833 807.5,486.167 807.5,487.5C 785.824,487.633 764.157,487.3 742.5,486.5C 735.833,486.5 729.167,486.5 722.5,486.5C 722.5,485.167 722.5,483.833 722.5,482.5 Z"/></g>
<g><path style="opacity:1" fill="#468eea" d="M 724.5,475.5 C 739.5,475.5 754.5,475.5 769.5,475.5C 769.67,476.822 769.337,477.989 768.5,479C 753.832,479.278 739.166,479.111 724.5,478.5C 724.5,477.5 724.5,476.5 724.5,475.5 Z"/></g>
<g><path style="opacity:1" fill="#468ae9" d="M 742.5,468.5 C 764.841,468.451 787.174,468.784 809.5,469.5C 809.67,470.822 809.337,471.989 808.5,473C 786.506,472.907 764.506,472.74 742.5,472.5C 742.5,471.167 742.5,469.833 742.5,468.5 Z"/></g>
<g><path style="opacity:1" fill="#4488e6" d="M 726.5,468.5 C 730.5,468.5 734.5,468.5 738.5,468.5C 738.5,469.833 738.5,471.167 738.5,472.5C 734.116,472.826 729.783,472.492 725.5,471.5C 726.127,470.583 726.461,469.583 726.5,468.5 Z"/></g>
<g><path style="opacity:1" fill="#4589e8" d="M 796.5,462.5 C 800.167,462.5 803.833,462.5 807.5,462.5C 808.5,462.5 809.5,462.5 810.5,462.5C 810.67,463.822 810.337,464.989 809.5,466C 793.831,466.34 778.164,466.173 762.5,465.5C 762.5,464.167 762.5,462.833 762.5,461.5C 773.831,461.907 785.164,462.241 796.5,462.5 Z"/></g>
<g><path style="opacity:1" fill="#4990ea" d="M 726.5,460.5 C 737.17,460.755 747.836,461.088 758.5,461.5C 758.5,462.5 758.5,463.5 758.5,464.5C 747.833,464.5 737.167,464.5 726.5,464.5C 726.5,463.167 726.5,461.833 726.5,460.5 Z"/></g>
<g><path style="opacity:1" fill="#4690ea" d="M 791.5,458.5 C 770.162,458.433 748.828,458.1 727.5,457.5C 727.539,456.417 727.873,455.417 728.5,454.5C 730.167,454.167 731.833,453.833 733.5,453.5C 752.816,454.642 772.149,455.309 791.5,455.5C 791.5,456.5 791.5,457.5 791.5,458.5 Z"/></g>
<g><path style="opacity:1" fill="#4f87ee" d="M 716.5,456.5 C 716.552,458.903 716.219,461.236 715.5,463.5C 706.829,470.667 697.996,477.667 689,484.5C 687.467,489.944 686.3,495.444 685.5,501C 680.386,501.109 675.386,501.776 670.5,503C 668.167,504 666.5,505.667 665.5,508C 658.457,510.379 653.29,514.879 650,521.5C 649.329,522.252 648.496,522.586 647.5,522.5C 651.383,499.869 655.05,477.202 658.5,454.5C 677.843,454.906 697.177,455.573 716.5,456.5 Z"/></g>
<g><path style="opacity:1" fill="#3258cf" d="M 209.5,663.5 C 257.834,663.333 306.168,663.5 354.5,664C 353.663,665.011 353.33,666.178 353.5,667.5C 352.442,671.279 351.109,674.946 349.5,678.5C 302.5,678.5 255.5,678.5 208.5,678.5C 208.5,676.833 208.5,675.167 208.5,673.5C 208.616,670.14 208.949,666.807 209.5,663.5 Z"/></g>
<g><path style="opacity:1" fill="#2746a6" d="M 693.5,604.5 C 694.5,604.5 695.5,604.5 696.5,604.5C 699.44,631.363 703.606,658.03 709,684.5C 709.668,688.525 710.835,692.359 712.5,696C 711.565,698.381 711.232,700.881 711.5,703.5C 710.717,701.657 710.05,699.657 709.5,697.5C 708.833,697.167 708.167,696.833 707.5,696.5C 696.581,698.74 685.581,700.406 674.5,701.5C 681.304,669.28 687.637,636.947 693.5,604.5 Z"/></g>
<g><path style="opacity:1" fill="#3a59c2" d="M 127.5,646.5 C 125.965,657.814 124.465,669.148 123,680.5C 121.466,697.099 122.632,713.433 126.5,729.5C 125.13,729.144 124.13,728.31 123.5,727C 122.793,723.8 121.96,720.633 121,717.5C 120.564,702.545 120.398,687.712 120.5,673C 122.253,667.323 123.42,661.489 124,655.5C 124.956,652.353 126.123,649.353 127.5,646.5 Z"/></g>
<g><path style="opacity:1" fill="#2547a7" d="M 208.5,673.5 C 208.5,675.167 208.5,676.833 208.5,678.5C 255.5,678.5 302.5,678.5 349.5,678.5C 348.637,680.421 347.971,682.421 347.5,684.5C 300.905,683.505 254.239,683.172 207.5,683.5C 207.187,679.958 207.521,676.625 208.5,673.5 Z"/></g>
<g><path style="opacity:1" fill="#4563ce" d="M 803.5,644.5 C 801.745,656.443 798.912,668.109 795,679.5C 793.269,681.617 791.102,683.117 788.5,684C 778.874,685.826 769.208,687.326 759.5,688.5C 759.5,688.167 759.5,687.833 759.5,687.5C 768.284,684.44 777.117,681.44 786,678.5C 788.081,679.333 790.248,679.333 792.5,678.5C 793.591,675.056 794.591,671.556 795.5,668C 794.459,664.883 794.459,662.049 795.5,659.5C 796.727,658.41 797.56,657.076 798,655.5C 798.414,655.957 798.914,656.291 799.5,656.5C 800.83,654.653 800.497,653.153 798.5,652C 799.253,650.513 800.086,650.346 801,651.5C 801.333,649.5 801.667,647.5 802,645.5C 802.383,644.944 802.883,644.611 803.5,644.5 Z"/></g>
<g><path style="opacity:1" fill="#3358cf" d="M 207.5,683.5 C 254.239,683.172 300.905,683.505 347.5,684.5C 346.617,689.103 346.283,693.77 346.5,698.5C 304.165,698.667 261.832,698.5 219.5,698C 217.655,696.872 215.655,696.372 213.5,696.5C 211.45,696.039 209.45,695.372 207.5,694.5C 206.192,690.685 206.192,687.019 207.5,683.5 Z"/></g>
<g><path style="opacity:0.999" fill="#2745a2" d="M 75.5,536.5 C 81.1667,536.5 86.8333,536.5 92.5,536.5C 76.9003,538.726 66.7336,547.393 62,562.5C 61.3333,570.5 61.3333,578.5 62,586.5C 71.2283,644.069 79.395,701.736 86.5,759.5C 106.34,759.83 126.007,759.497 145.5,758.5C 146.167,758.833 146.833,759.167 147.5,759.5C 126.673,760.497 105.673,760.831 84.5,760.5C 74.7504,760.806 65.0838,760.473 55.5,759.5C 54.2605,747.49 52.9272,735.49 51.5,723.5C 51.151,717.16 50.651,710.827 50,704.5C 49.7679,703.263 49.2679,702.263 48.5,701.5C 44.1775,673.587 40.5109,645.587 37.5,617.5C 37.2575,611.816 36.7575,606.149 36,600.5C 35.6174,599.944 35.1174,599.611 34.5,599.5C 34.1638,592.142 33.4971,584.809 32.5,577.5C 33.4822,549.851 47.8156,536.185 75.5,536.5 Z"/></g>
<g><path style="opacity:1" fill="#2949a8" d="M 213.5,696.5 C 215.655,696.372 217.655,696.872 219.5,698C 261.832,698.5 304.165,698.667 346.5,698.5C 346.2,712.882 346.534,727.215 347.5,741.5C 341.688,742.577 335.688,743.243 329.5,743.5C 325.203,742.345 321.203,740.679 317.5,738.5C 326.833,738.5 336.167,738.5 345.5,738.5C 345.5,733.833 345.5,729.167 345.5,724.5C 328.163,724.333 310.83,724.5 293.5,725C 295.027,727.69 297.027,729.857 299.5,731.5C 297.597,731.204 295.93,730.537 294.5,729.5C 293.426,728.115 292.093,726.949 290.5,726C 282.416,723.482 274.75,720.316 267.5,716.5C 269.75,716.181 271.75,716.681 273.5,718C 297.498,718.5 321.498,718.667 345.5,718.5C 345.5,713.833 345.5,709.167 345.5,704.5C 313.498,704.333 281.498,704.5 249.5,705C 248.027,705.71 247.36,706.876 247.5,708.5C 249.38,708.229 250.713,708.896 251.5,710.5C 238.747,705.778 226.08,701.111 213.5,696.5 Z"/></g>
<g><path style="opacity:0.063" fill="#7b96d1" d="M 759.5,693.5 C 760.866,696.961 761.866,700.627 762.5,704.5C 761.307,704.03 760.64,703.03 760.5,701.5C 759.905,698.86 759.572,696.193 759.5,693.5 Z"/></g>
<g><path style="opacity:1" fill="#4462d3" d="M 652.5,704.5 C 632.393,708.114 612.06,711.114 591.5,713.5C 589.833,713.5 588.167,713.5 586.5,713.5C 586.461,712.244 586.961,711.244 588,710.5C 589.779,711.479 591.445,711.146 593,709.5C 593.333,709.833 593.667,710.167 594,710.5C 596.694,709.217 599.36,708.884 602,709.5C 607.545,708.703 613.045,707.703 618.5,706.5C 618.351,705.448 618.517,704.448 619,703.5C 620.18,704.684 621.68,705.351 623.5,705.5C 625.32,705.351 626.82,704.684 628,703.5C 635.756,703.38 643.923,703.714 652.5,704.5 Z"/></g>
<g><path style="opacity:1" fill="#3459d1" d="M 267.5,716.5 C 261.998,715.088 256.664,713.088 251.5,710.5C 250.713,708.896 249.38,708.229 247.5,708.5C 247.36,706.876 248.027,705.71 249.5,705C 281.498,704.5 313.498,704.333 345.5,704.5C 345.5,709.167 345.5,713.833 345.5,718.5C 321.498,718.667 297.498,718.5 273.5,718C 271.75,716.681 269.75,716.181 267.5,716.5 Z"/></g>
<g><path style="opacity:0.286" fill="#3b4347" d="M 518.5,704.5 C 528.167,704.5 537.833,704.5 547.5,704.5C 548.5,705.167 549.5,705.833 550.5,706.5C 547.5,706.5 544.5,706.5 541.5,706.5C 533.833,705.833 526.167,705.167 518.5,704.5 Z"/></g>
<g><path style="opacity:0.825" fill="#7c87c2" d="M 48.5,701.5 C 49.2679,702.263 49.7679,703.263 50,704.5C 50.651,710.827 51.151,717.16 51.5,723.5C 49.8596,716.389 48.8596,709.056 48.5,701.5 Z"/></g>
<g><path style="opacity:1" fill="#545959" d="M 572.5,716.5 C 573.5,716.5 574.5,716.5 575.5,716.5C 587.68,722.178 597.18,730.845 604,742.5C 604.49,743.793 604.657,745.127 604.5,746.5C 603.833,746.833 603.167,747.167 602.5,747.5C 602.741,744.206 601.908,741.206 600,738.5C 592.314,729.104 583.147,721.771 572.5,716.5 Z"/></g>
<g><path style="opacity:1" fill="#375ad1" d="M 317.5,738.5 C 311.267,736.538 305.267,734.204 299.5,731.5C 297.027,729.857 295.027,727.69 293.5,725C 310.83,724.5 328.163,724.333 345.5,724.5C 345.5,729.167 345.5,733.833 345.5,738.5C 336.167,738.5 326.833,738.5 317.5,738.5 Z"/></g>
<g><path style="opacity:1" fill="#f4f6f6" d="M 584.5,714.5 C 588.127,715.28 591.46,716.78 594.5,719C 599.634,723.133 604.468,727.633 609,732.5C 611.173,735.346 612.673,738.512 613.5,742C 612.961,745.371 610.961,747.204 607.5,747.5C 606.209,747.737 605.209,747.404 604.5,746.5C 604.657,745.127 604.49,743.793 604,742.5C 597.18,730.845 587.68,722.178 575.5,716.5C 578.219,715.087 581.219,714.42 584.5,714.5 Z"/></g>
<g><path style="opacity:0.992" fill="#788186" d="M 584.5,714.5 C 584.842,713.662 585.508,713.328 586.5,713.5C 588.167,713.5 589.833,713.5 591.5,713.5C 599.72,719.884 607.22,727.217 614,735.5C 616.814,741.166 615.648,745.666 610.5,749C 611.056,749.383 611.389,749.883 611.5,750.5C 609.938,750.267 608.605,749.6 607.5,748.5C 607.5,748.167 607.5,747.833 607.5,747.5C 610.961,747.204 612.961,745.371 613.5,742C 612.673,738.512 611.173,735.346 609,732.5C 604.468,727.633 599.634,723.133 594.5,719C 591.46,716.78 588.127,715.28 584.5,714.5 Z"/></g>
<g><path style="opacity:0.118" fill="#b5bfe5" d="M 714.5,726.5 C 716.175,729.507 716.841,732.84 716.5,736.5C 715.419,733.373 714.753,730.04 714.5,726.5 Z"/></g>
<g><path style="opacity:1" fill="#555d61" d="M 571.5,738.5 C 570.833,738.5 570.167,738.5 569.5,738.5C 562.239,735.402 554.572,734.236 546.5,735C 541.061,735.887 538.727,738.72 539.5,743.5C 539.5,744.5 539.5,745.5 539.5,746.5C 538.21,745.942 537.377,744.942 537,743.5C 537.1,738.704 539.6,735.538 544.5,734C 549.833,733.333 555.167,733.333 560.5,734C 564.719,734.452 568.386,735.952 571.5,738.5 Z"/></g>
<g><path style="opacity:1" fill="#e6eef2" d="M 569.5,738.5 C 559.28,737.748 549.613,739.414 540.5,743.5C 540.167,743.5 539.833,743.5 539.5,743.5C 538.727,738.72 541.061,735.887 546.5,735C 554.572,734.236 562.239,735.402 569.5,738.5 Z"/></g>
<g><path style="opacity:1" fill="#4b4e50" d="M 433.5,761.5 C 433.5,761.833 433.5,762.167 433.5,762.5C 423.161,752.329 410.828,745.829 396.5,743C 383.542,741.456 370.542,741.123 357.5,742C 344.953,742.637 332.953,745.47 321.5,750.5C 320.304,750.154 320.304,749.654 321.5,749C 324.823,747.861 327.49,746.027 329.5,743.5C 335.688,743.243 341.688,742.577 347.5,741.5C 363.811,739.13 380.144,738.963 396.5,741C 411.262,743.709 423.595,750.542 433.5,761.5 Z"/></g>
<g><path style="opacity:1" fill="#3557d0" d="M 610.5,767.5 C 605.434,767.66 600.434,767.16 595.5,766C 586.732,762.038 577.732,758.871 568.5,756.5C 565.482,756.296 562.482,755.963 559.5,755.5C 558.694,754.272 557.694,753.272 556.5,752.5C 556.063,750.926 555.063,749.759 553.5,749C 551.377,748.185 549.377,747.185 547.5,746C 551.299,744.267 554.965,742.267 558.5,740C 564.296,739.209 569.963,739.709 575.5,741.5C 575.5,742.5 575.5,743.5 575.5,744.5C 576.833,744.5 578.167,744.5 579.5,744.5C 579.238,745.978 579.571,747.311 580.5,748.5C 583.304,750.138 585.971,751.971 588.5,754C 593.638,755.916 598.971,756.916 604.5,757C 607.6,759.919 609.6,763.419 610.5,767.5 Z"/></g>
<g><path style="opacity:1" fill="#3b4c73" d="M 539.5,743.5 C 539.833,743.5 540.167,743.5 540.5,743.5C 540.511,745.017 541.177,746.184 542.5,747C 547.076,749.124 551.743,750.957 556.5,752.5C 557.694,753.272 558.694,754.272 559.5,755.5C 552.459,753.267 545.792,750.267 539.5,746.5C 539.5,745.5 539.5,744.5 539.5,743.5 Z"/></g>
<g><path style="opacity:1" fill="#3a58bf" d="M 569.5,738.5 C 570.167,738.5 570.833,738.5 571.5,738.5C 576.478,740.991 581.145,743.991 585.5,747.5C 589.932,753.377 595.932,756.044 603.5,755.5C 603.993,753.194 604.326,750.861 604.5,748.5C 605.5,748.5 606.5,748.5 607.5,748.5C 608.605,749.6 609.938,750.267 611.5,750.5C 614.55,752.549 616.883,755.216 618.5,758.5C 618.5,759.167 618.5,759.833 618.5,760.5C 617.599,764.648 614.932,766.981 610.5,767.5C 609.6,763.419 607.6,759.919 604.5,757C 598.971,756.916 593.638,755.916 588.5,754C 585.971,751.971 583.304,750.138 580.5,748.5C 579.571,747.311 579.238,745.978 579.5,744.5C 578.167,744.5 576.833,744.5 575.5,744.5C 575.5,743.5 575.5,742.5 575.5,741.5C 569.963,739.709 564.296,739.209 558.5,740C 554.965,742.267 551.299,744.267 547.5,746C 549.377,747.185 551.377,748.185 553.5,749C 555.063,749.759 556.063,750.926 556.5,752.5C 551.743,750.957 547.076,749.124 542.5,747C 541.177,746.184 540.511,745.017 540.5,743.5C 549.613,739.414 559.28,737.748 569.5,738.5 Z"/></g>
<g><path style="opacity:1" fill="#33466b" d="M 604.5,746.5 C 605.209,747.404 606.209,747.737 607.5,747.5C 607.5,747.833 607.5,748.167 607.5,748.5C 606.5,748.5 605.5,748.5 604.5,748.5C 604.326,750.861 603.993,753.194 603.5,755.5C 595.932,756.044 589.932,753.377 585.5,747.5C 588.465,749.645 591.798,750.645 595.5,750.5C 598.611,750.988 600.944,749.988 602.5,747.5C 603.167,747.167 603.833,746.833 604.5,746.5 Z"/></g>
<g><path style="opacity:1" fill="#293c7b" d="M 559.5,755.5 C 562.482,755.963 565.482,756.296 568.5,756.5C 569.329,761.453 569.663,766.453 569.5,771.5C 568.448,771.351 567.448,771.517 566.5,772C 579.468,773.269 592.468,773.769 605.5,773.5C 591.557,774.987 577.557,774.654 563.5,772.5C 567.252,770.251 568.419,766.918 567,762.5C 564.985,759.588 562.485,757.255 559.5,755.5 Z"/></g>
<g><path style="opacity:1" fill="#3a3f41" d="M 505.5,761.5 C 492.167,761.5 478.833,761.5 465.5,761.5C 476.664,760.479 487.997,759.646 499.5,759C 498,757.5 496.5,756 495,754.5C 494.312,753.668 494.479,753.002 495.5,752.5C 498.488,755.976 501.821,758.976 505.5,761.5 Z"/></g>
<g><path style="opacity:0.004" fill="#dceff2" d="M 618.5,758.5 C 622.735,759.436 627.069,759.769 631.5,759.5C 627.702,760.483 623.702,760.817 619.5,760.5C 619.167,760.5 618.833,760.5 618.5,760.5C 618.5,759.833 618.5,759.167 618.5,758.5 Z"/></g>
<g><path style="opacity:0.154" fill="#595a5b" d="M 772.5,758.5 C 802.264,759.159 831.931,759.826 861.5,760.5C 832.167,760.5 802.833,760.5 773.5,760.5C 772.662,760.158 772.328,759.492 772.5,758.5 Z"/></g>
<g><path style="opacity:1" fill="#444a5e" d="M 55.5,759.5 C 65.0838,760.473 74.7504,760.806 84.5,760.5C 84.5,760.833 84.5,761.167 84.5,761.5C 65.9924,761.83 47.6591,761.497 29.5,760.5C 37.9956,760.803 46.6623,760.469 55.5,759.5 Z"/></g>
<g><path style="opacity:1" fill="#2e3b69" d="M 147.5,759.5 C 148.5,759.833 149.167,760.5 149.5,761.5C 127.833,761.5 106.167,761.5 84.5,761.5C 84.5,761.167 84.5,760.833 84.5,760.5C 105.673,760.831 126.673,760.497 147.5,759.5 Z"/></g>
<g><path style="opacity:1" fill="#010102" d="M 631.5,759.5 C 660.833,759.5 690.167,759.5 719.5,759.5C 720.268,760.263 720.768,761.263 721,762.5C 722.757,773.819 724.257,785.152 725.5,796.5C 712.496,796.333 699.496,796.5 686.5,797C 680.75,797.434 675.083,798.268 669.5,799.5C 657.451,801.342 645.451,803.508 633.5,806C 630.325,806.493 627.659,807.66 625.5,809.5C 625.5,811.5 625.5,813.5 625.5,815.5C 658.331,816.664 691.331,816.831 724.5,816C 740.852,812.129 757.185,808.129 773.5,804C 776.414,799.998 778.081,795.498 778.5,790.5C 776.573,780.531 774.906,770.531 773.5,760.5C 802.833,760.5 832.167,760.5 861.5,760.5C 861.5,784.167 861.5,807.833 861.5,831.5C 583.5,831.5 305.5,831.5 27.5,831.5C 26.8433,807.476 27.51,783.81 29.5,760.5C 47.6591,761.497 65.9924,761.83 84.5,761.5C 106.167,761.5 127.833,761.5 149.5,761.5C 157.487,766.496 165.821,770.996 174.5,775C 212.599,788.518 251.933,795.684 292.5,796.5C 296.167,797.167 299.833,797.833 303.5,798.5C 303.5,802.833 303.5,807.167 303.5,811.5C 306.167,811.5 308.833,811.5 311.5,811.5C 328.772,813.94 346.105,815.94 363.5,817.5C 372.95,819.207 382.617,820.207 392.5,820.5C 399.275,822.239 406.275,822.739 413.5,822C 469.449,810.51 525.449,799.343 581.5,788.5C 581.5,784.833 581.5,781.167 581.5,777.5C 571.5,777.5 561.5,777.5 551.5,777.5C 534.97,776.023 518.303,774.69 501.5,773.5C 495.347,772.347 489.014,772.18 482.5,773C 469.837,774.611 457.17,776.111 444.5,777.5C 441.22,772.219 437.553,767.219 433.5,762.5C 433.5,762.167 433.5,761.833 433.5,761.5C 444.167,761.5 454.833,761.5 465.5,761.5C 478.833,761.5 492.167,761.5 505.5,761.5C 507.593,762.045 509.593,762.878 511.5,764C 524.298,766.033 536.964,768.699 549.5,772C 554.155,772.499 558.821,772.666 563.5,772.5C 577.557,774.654 591.557,774.987 605.5,773.5C 614.595,773.659 619.262,769.326 619.5,760.5C 623.702,760.817 627.702,760.483 631.5,759.5 Z"/></g>
<g><path style="opacity:1" fill="#494c50" d="M 444.5,783.5 C 444.167,784.167 443.833,784.833 443.5,785.5C 440.5,785.5 437.5,785.5 434.5,785.5C 434.5,787.833 434.5,790.167 434.5,792.5C 434.5,792.833 434.5,793.167 434.5,793.5C 430.742,795.254 426.742,795.921 422.5,795.5C 422.657,794.127 422.49,792.793 422,791.5C 413.179,774.853 399.679,763.853 381.5,758.5C 401.909,762.202 416.242,773.868 424.5,793.5C 431.293,795.706 434.127,793.372 433,786.5C 425.113,769.611 412.446,757.945 395,751.5C 393.392,751.026 393.226,750.359 394.5,749.5C 403.063,752.113 410.729,756.28 417.5,762C 423.75,769.189 429.75,776.522 435.5,784C 438.555,784.634 441.555,784.468 444.5,783.5 Z"/></g>
<g><path style="opacity:1" fill="#2946a1" d="M 568.5,756.5 C 577.732,758.871 586.732,762.038 595.5,766C 600.434,767.16 605.434,767.66 610.5,767.5C 614.932,766.981 617.599,764.648 618.5,760.5C 618.833,760.5 619.167,760.5 619.5,760.5C 619.262,769.326 614.595,773.659 605.5,773.5C 592.468,773.769 579.468,773.269 566.5,772C 567.448,771.517 568.448,771.351 569.5,771.5C 569.663,766.453 569.329,761.453 568.5,756.5 Z"/></g>
<g><path style="opacity:1" fill="#152054" d="M 501.5,773.5 C 495.31,773.177 489.31,773.51 483.5,774.5C 470.705,776.763 457.705,778.096 444.5,778.5C 444.5,778.167 444.5,777.833 444.5,777.5C 457.17,776.111 469.837,774.611 482.5,773C 489.014,772.18 495.347,772.347 501.5,773.5 Z"/></g>
<g><path style="opacity:1" fill="#474d57" d="M 420.5,796.5 C 415.119,798.193 410.119,797.193 405.5,793.5C 404.866,795.567 403.866,797.4 402.5,799C 397.693,800.158 393.36,799.324 389.5,796.5C 388.449,795.778 387.782,794.778 387.5,793.5C 390.022,795.172 392.688,796.672 395.5,798C 403.921,798.468 405.755,794.968 401,787.5C 393.775,777.801 384.275,771.468 372.5,768.5C 380.148,768.633 387.148,771.133 393.5,776C 398.544,781.376 403.211,787.042 407.5,793C 411.38,795.863 415.713,797.03 420.5,796.5 Z"/></g>
<g><path style="opacity:1" fill="#5b94e3" d="M 483.5,774.5 C 489.509,774.334 495.509,774.501 501.5,775C 482.574,778.407 463.574,781.24 444.5,783.5C 444.5,781.833 444.5,780.167 444.5,778.5C 457.705,778.096 470.705,776.763 483.5,774.5 Z"/></g>
<g><path style="opacity:1" fill="#3d62c4" d="M 483.5,774.5 C 489.31,773.51 495.31,773.177 501.5,773.5C 518.303,774.69 534.97,776.023 551.5,777.5C 550.833,777.5 550.5,777.833 550.5,778.5C 549.167,778.5 547.833,778.5 546.5,778.5C 537.975,777.338 529.308,777.505 520.5,779C 495.615,783.079 470.948,787.579 446.5,792.5C 442.466,792.505 438.466,792.838 434.5,793.5C 434.5,793.167 434.5,792.833 434.5,792.5C 463.773,787.232 493.106,782.065 522.5,777C 514.5,776.333 506.5,776.333 498.5,777C 480.328,780.905 461.995,783.739 443.5,785.5C 443.833,784.833 444.167,784.167 444.5,783.5C 463.574,781.24 482.574,778.407 501.5,775C 495.509,774.501 489.509,774.334 483.5,774.5 Z"/></g>
<g><path style="opacity:1" fill="#5f9deb" d="M 434.5,792.5 C 434.5,790.167 434.5,787.833 434.5,785.5C 437.5,785.5 440.5,785.5 443.5,785.5C 461.995,783.739 480.328,780.905 498.5,777C 506.5,776.333 514.5,776.333 522.5,777C 493.106,782.065 463.773,787.232 434.5,792.5 Z"/></g>
<g><path style="opacity:1" fill="#5c98ea" d="M 546.5,778.5 C 522.184,782.796 497.85,787.296 473.5,792C 464.506,792.5 455.506,792.666 446.5,792.5C 470.948,787.579 495.615,783.079 520.5,779C 529.308,777.505 537.975,777.338 546.5,778.5 Z"/></g>
<g><path style="opacity:1" fill="#16181c" d="M 382.5,789.5 C 371.461,790.507 360.461,791.84 349.5,793.5C 348.494,793.062 348.494,792.396 349.5,791.5C 351.674,789.919 354.007,788.419 356.5,787C 365.907,781.658 374.574,782.491 382.5,789.5 Z"/></g>
<g><path style="opacity:1" fill="#3458c8" d="M 554.5,783.5 C 506.199,792.627 457.866,801.627 409.5,810.5C 409.5,814.167 409.5,817.833 409.5,821.5C 403.839,821.093 398.172,820.76 392.5,820.5C 382.617,820.207 372.95,819.207 363.5,817.5C 370.841,817.334 378.174,817.5 385.5,818C 392.653,819.242 399.653,820.076 406.5,820.5C 406.833,820.333 407.167,820.167 407.5,820C 406.167,819 404.833,818 403.5,817C 404.449,816.383 405.282,816.549 406,817.5C 406.251,815.567 406.751,813.734 407.5,812C 405.845,810.556 405.178,808.722 405.5,806.5C 444.385,799.463 483.385,792.63 522.5,786C 533.273,782.594 544.273,780.594 555.5,780C 554.663,781.011 554.33,782.178 554.5,783.5 Z"/></g>
<g><path style="opacity:1" fill="#3c63ba" d="M 382.5,789.5 C 384.754,790.124 386.421,791.457 387.5,793.5C 387.782,794.778 388.449,795.778 389.5,796.5C 380.576,797.012 371.909,798.345 363.5,800.5C 361.784,800.371 360.117,800.038 358.5,799.5C 367.268,797.44 376.268,795.94 385.5,795C 386.458,793.853 386.125,792.853 384.5,792C 383.271,791.219 381.938,790.719 380.5,790.5C 378.309,791.743 375.976,792.576 373.5,793C 362.801,793.97 352.135,795.136 341.5,796.5C 344.087,795.251 346.754,794.251 349.5,793.5C 360.461,791.84 371.461,790.507 382.5,789.5 Z"/></g>
<g><path style="opacity:1" fill="#293345" d="M 349.5,791.5 C 348.494,792.396 348.494,793.062 349.5,793.5C 346.754,794.251 344.087,795.251 341.5,796.5C 339.708,796.366 338.042,796.699 336.5,797.5C 325.551,798.455 314.551,798.789 303.5,798.5C 299.833,797.833 296.167,797.167 292.5,796.5C 298.842,796.666 305.175,796.5 311.5,796C 308.439,794.627 306.606,792.46 306,789.5C 309.293,792.787 313.127,795.287 317.5,797C 328.662,798.043 339.328,796.21 349.5,791.5 Z"/></g>
<g><path style="opacity:1" fill="#6599f1" d="M 358.5,799.5 C 350.937,799.772 343.603,799.105 336.5,797.5C 338.042,796.699 339.708,796.366 341.5,796.5C 352.135,795.136 362.801,793.97 373.5,793C 375.976,792.576 378.309,791.743 380.5,790.5C 381.938,790.719 383.271,791.219 384.5,792C 386.125,792.853 386.458,793.853 385.5,795C 376.268,795.94 367.268,797.44 358.5,799.5 Z"/></g>
<g><path style="opacity:1" fill="#5b92e5" d="M 446.5,792.5 C 450.353,793.166 454.353,793.833 458.5,794.5C 447.993,796.927 437.326,798.093 426.5,798C 427.624,798.249 428.624,798.749 429.5,799.5C 423.837,800.666 418.17,801.833 412.5,803C 396.15,802.737 379.816,801.904 363.5,800.5C 371.909,798.345 380.576,797.012 389.5,796.5C 393.36,799.324 397.693,800.158 402.5,799C 403.866,797.4 404.866,795.567 405.5,793.5C 410.119,797.193 415.119,798.193 420.5,796.5C 421.167,796.167 421.833,795.833 422.5,795.5C 426.742,795.921 430.742,795.254 434.5,793.5C 438.466,792.838 442.466,792.505 446.5,792.5 Z"/></g>
<g><path style="opacity:1" fill="#2949b2" d="M 546.5,778.5 C 547.833,778.5 549.167,778.5 550.5,778.5C 558.507,778.334 566.507,778.5 574.5,779C 567.843,780.609 561.176,782.109 554.5,783.5C 554.33,782.178 554.663,781.011 555.5,780C 544.273,780.594 533.273,782.594 522.5,786C 483.385,792.63 444.385,799.463 405.5,806.5C 371.893,803.306 338.226,800.973 304.5,799.5C 304.5,803.167 304.5,806.833 304.5,810.5C 307.059,810.198 309.393,810.532 311.5,811.5C 308.833,811.5 306.167,811.5 303.5,811.5C 303.5,807.167 303.5,802.833 303.5,798.5C 314.551,798.789 325.551,798.455 336.5,797.5C 343.603,799.105 350.937,799.772 358.5,799.5C 360.117,800.038 361.784,800.371 363.5,800.5C 379.816,801.904 396.15,802.737 412.5,803C 418.17,801.833 423.837,800.666 429.5,799.5C 428.624,798.749 427.624,798.249 426.5,798C 437.326,798.093 447.993,796.927 458.5,794.5C 454.353,793.833 450.353,793.166 446.5,792.5C 455.506,792.666 464.506,792.5 473.5,792C 497.85,787.296 522.184,782.796 546.5,778.5 Z"/></g>
<g><path style="opacity:1" fill="#385dd9" d="M 405.5,806.5 C 405.178,808.722 405.845,810.556 407.5,812C 406.751,813.734 406.251,815.567 406,817.5C 405.282,816.549 404.449,816.383 403.5,817C 404.833,818 406.167,819 407.5,820C 407.167,820.167 406.833,820.333 406.5,820.5C 399.653,820.076 392.653,819.242 385.5,818C 378.174,817.5 370.841,817.334 363.5,817.5C 346.105,815.94 328.772,813.94 311.5,811.5C 309.393,810.532 307.059,810.198 304.5,810.5C 304.5,806.833 304.5,803.167 304.5,799.5C 338.226,800.973 371.893,803.306 405.5,806.5 Z"/></g>
<g><path style="opacity:1" fill="#274ab3" d="M 669.5,799.5 C 666.639,800.583 663.972,802.083 661.5,804C 662.551,805.385 663.884,806.385 665.5,807C 683.167,807.333 700.833,807.667 718.5,808C 718.167,808.333 717.833,808.667 717.5,809C 686.835,809.5 656.168,809.667 625.5,809.5C 627.659,807.66 630.325,806.493 633.5,806C 645.451,803.508 657.451,801.342 669.5,799.5 Z"/></g>
<g><path style="opacity:1" fill="#365ad2" d="M 700.5,603.5 C 709.753,662.263 719.586,720.93 730,779.5C 730.919,784.961 731.419,790.461 731.5,796C 732.893,804.18 730.227,810.513 723.5,815C 690.835,815.5 658.168,815.667 625.5,815.5C 625.5,813.5 625.5,811.5 625.5,809.5C 656.168,809.667 686.835,809.5 717.5,809C 717.833,808.667 718.167,808.333 718.5,808C 700.833,807.667 683.167,807.333 665.5,807C 663.884,806.385 662.551,805.385 661.5,804C 663.972,802.083 666.639,800.583 669.5,799.5C 675.083,798.268 680.75,797.434 686.5,797C 699.496,796.5 712.496,796.333 725.5,796.5C 724.257,785.152 722.757,773.819 721,762.5C 720.768,761.263 720.268,760.263 719.5,759.5C 718.609,751.819 717.609,744.152 716.5,736.5C 716.841,732.84 716.175,729.507 714.5,726.5C 713.573,718.825 712.573,711.159 711.5,703.5C 711.232,700.881 711.565,698.381 712.5,696C 710.835,692.359 709.668,688.525 709,684.5C 703.606,658.03 699.44,631.363 696.5,604.5C 695.5,604.5 694.5,604.5 693.5,604.5C 695.736,603.018 698.069,602.685 700.5,603.5 Z"/></g>
<g><path style="opacity:1" fill="#27449f" d="M 550.5,778.5 C 550.5,777.833 550.833,777.5 551.5,777.5C 561.5,777.5 571.5,777.5 581.5,777.5C 581.5,781.167 581.5,784.833 581.5,788.5C 525.449,799.343 469.449,810.51 413.5,822C 406.275,822.739 399.275,822.239 392.5,820.5C 398.172,820.76 403.839,821.093 409.5,821.5C 409.5,817.833 409.5,814.167 409.5,810.5C 457.866,801.627 506.199,792.627 554.5,783.5C 561.176,782.109 567.843,780.609 574.5,779C 566.507,778.5 558.507,778.334 550.5,778.5 Z"/></g>
<g><path style="opacity:1" fill="#232e30" d="M 27.5,831.5 C 305.5,831.5 583.5,831.5 861.5,831.5C 861.5,837.167 861.5,842.833 861.5,848.5C 583.5,848.5 305.5,848.5 27.5,848.5C 27.5,842.833 27.5,837.167 27.5,831.5 Z"/></g>
</svg>
