<svg id="visual" viewBox="0 0 540 960" width="540" height="960" xmlns="http://www.w3.org/2000/svg" xmlns:xlink="http://www.w3.org/1999/xlink" version="1.1"><g stroke-width="1" stroke-linejoin="bevel"><path d="M301.5 489L349.5 506L308.5 469Z" fill="#205a7a" stroke="#205a7a"></path><path d="M349.5 506L335.7 459L308.5 469Z" fill="#15384f" stroke="#15384f"></path><path d="M384.7 491L340.7 447L335.7 459Z" fill="#277297" stroke="#277297"></path><path d="M335.7 459L294.6 445L308.5 469Z" fill="#205a7a" stroke="#205a7a"></path><path d="M353.5 428L340.6 438L340.7 447Z" fill="#00101c" stroke="#00101c"></path><path d="M340.7 447L294.6 445L335.7 459Z" fill="#205a7a" stroke="#205a7a"></path><path d="M340.6 438L294.6 445L340.7 447Z" fill="#297ea6" stroke="#297ea6"></path><path d="M308.5 469L294.6 445L301.5 489Z" fill="#00101c" stroke="#00101c"></path><path d="M349.5 506L384.7 491L335.7 459Z" fill="#205a7a" stroke="#205a7a"></path><path d="M384.7 491L353.5 428L340.7 447Z" fill="#00101c" stroke="#00101c"></path><path d="M340.6 438L312.5 415L294.6 445Z" fill="#19435d" stroke="#19435d"></path><path d="M287.6 569L376.8 532L349.5 506Z" fill="#0c2435" stroke="#0c2435"></path><path d="M349.5 506L376.8 532L384.7 491Z" fill="#081a28" stroke="#081a28"></path><path d="M353.5 428L312.5 415L340.6 438Z" fill="#19435d" stroke="#19435d"></path><path d="M265.5 557L287.6 569L301.5 489Z" fill="#0c2435" stroke="#0c2435"></path><path d="M301.5 489L287.6 569L349.5 506Z" fill="#00101c" stroke="#00101c"></path><path d="M236.5 553L265.5 557L301.5 489Z" fill="#15384f" stroke="#15384f"></path><path d="M376.8 532L423.9 484L384.7 491Z" fill="#081a28" stroke="#081a28"></path><path d="M384.7 491L422.9 446L353.5 428Z" fill="#246688" stroke="#246688"></path><path d="M422.9 446L376.6 399L353.5 428Z" fill="#246688" stroke="#246688"></path><path d="M353.5 428L368.6 391L312.5 415Z" fill="#246688" stroke="#246688"></path><path d="M423.9 484L422.9 446L384.7 491Z" fill="#0c2435" stroke="#0c2435"></path><path d="M376.6 399L368.6 391L353.5 428Z" fill="#205a7a" stroke="#205a7a"></path><path d="M458.9 509L433.7 486L448.8 548Z" fill="#1d4e6b" stroke="#1d4e6b"></path><path d="M423.9 484L433.7 486L422.9 446Z" fill="#112e42" stroke="#112e42"></path><path d="M208.5 509L236.5 553L301.5 489Z" fill="#081a28" stroke="#081a28"></path><path d="M265.5 557L286.6 593L287.6 569Z" fill="#081a28" stroke="#081a28"></path><path d="M236.5 553L286.6 593L265.5 557Z" fill="#0c2435" stroke="#0c2435"></path><path d="M287.6 569L396.6 589L376.8 532Z" fill="#0c2435" stroke="#0c2435"></path><path d="M258.4 379L220.4 450L294.6 445Z" fill="#205a7a" stroke="#205a7a"></path><path d="M294.6 445L220.4 450L301.5 489Z" fill="#00101c" stroke="#00101c"></path><path d="M258.4 379L294.6 445L312.5 415Z" fill="#112e42" stroke="#112e42"></path><path d="M473.8 480L431.9 431L422.9 446Z" fill="#19435d" stroke="#19435d"></path><path d="M422.9 446L431.9 431L376.6 399Z" fill="#205a7a" stroke="#205a7a"></path><path d="M376.6 399L457.8 333L368.6 391Z" fill="#15384f" stroke="#15384f"></path><path d="M286.6 593L396.6 589L287.6 569Z" fill="#1d4e6b" stroke="#1d4e6b"></path><path d="M448.8 548L433.7 486L423.9 484Z" fill="#277297" stroke="#277297"></path><path d="M220.4 450L208.5 509L301.5 489Z" fill="#297ea6" stroke="#297ea6"></path><path d="M368.6 391L314.5 365L312.5 415Z" fill="#15384f" stroke="#15384f"></path><path d="M220.4 450L202.5 469L208.5 509Z" fill="#0c2435" stroke="#0c2435"></path><path d="M314.5 365L258.4 379L312.5 415Z" fill="#081a28" stroke="#081a28"></path><path d="M220.4 450L183.5 450L202.5 469Z" fill="#1d4e6b" stroke="#1d4e6b"></path><path d="M448.8 548L423.9 484L376.8 532Z" fill="#205a7a" stroke="#205a7a"></path><path d="M433.7 486L473.8 480L422.9 446Z" fill="#0c2435" stroke="#0c2435"></path><path d="M396.6 589L448.8 548L376.8 532Z" fill="#205a7a" stroke="#205a7a"></path><path d="M202.5 469L194.4 505L208.5 509Z" fill="#15384f" stroke="#15384f"></path><path d="M208.5 509L180.3 519L236.5 553Z" fill="#00101c" stroke="#00101c"></path><path d="M396.6 589L442.7 577L448.8 548Z" fill="#00101c" stroke="#00101c"></path><path d="M540 531L473.8 480L458.9 509Z" fill="#246688" stroke="#246688"></path><path d="M493.9 562L458.9 509L448.8 548Z" fill="#081a28" stroke="#081a28"></path><path d="M458.9 509L473.8 480L433.7 486Z" fill="#15384f" stroke="#15384f"></path><path d="M238.4 642L287.5 629L286.6 593Z" fill="#19435d" stroke="#19435d"></path><path d="M286.6 593L287.5 629L396.6 589Z" fill="#0c2435" stroke="#0c2435"></path><path d="M396.6 589L417.7 647L442.7 577Z" fill="#00101c" stroke="#00101c"></path><path d="M238.4 642L286.6 593L236.5 553Z" fill="#0c2435" stroke="#0c2435"></path><path d="M193.3 374L183.5 450L220.4 450Z" fill="#1d4e6b" stroke="#1d4e6b"></path><path d="M202.5 469L177.3 472L194.4 505Z" fill="#277297" stroke="#277297"></path><path d="M177.3 472L180.3 519L194.4 505Z" fill="#0c2435" stroke="#0c2435"></path><path d="M194.4 505L180.3 519L208.5 509Z" fill="#19435d" stroke="#19435d"></path><path d="M183.5 450L177.3 472L202.5 469Z" fill="#112e42" stroke="#112e42"></path><path d="M325.7 283L301.6 335L354.5 278Z" fill="#297ea6" stroke="#297ea6"></path><path d="M314.5 365L301.6 335L258.4 379Z" fill="#0c2435" stroke="#0c2435"></path><path d="M258.4 379L193.3 374L220.4 450Z" fill="#205a7a" stroke="#205a7a"></path><path d="M404.8 298L314.5 365L368.6 391Z" fill="#112e42" stroke="#112e42"></path><path d="M301.6 335L246.4 348L258.4 379Z" fill="#19435d" stroke="#19435d"></path><path d="M473.8 480L479.8 408L431.9 431Z" fill="#15384f" stroke="#15384f"></path><path d="M431.9 431L468.8 378L376.6 399Z" fill="#1d4e6b" stroke="#1d4e6b"></path><path d="M246.4 348L193.3 374L258.4 379Z" fill="#15384f" stroke="#15384f"></path><path d="M183.5 450L150.4 481L177.3 472Z" fill="#15384f" stroke="#15384f"></path><path d="M479.8 408L468.8 378L431.9 431Z" fill="#00101c" stroke="#00101c"></path><path d="M118.2 482L150.4 481L183.5 450Z" fill="#112e42" stroke="#112e42"></path><path d="M177.3 472L150.4 481L180.3 519Z" fill="#297ea6" stroke="#297ea6"></path><path d="M242.4 673L238.4 642L148.3 691Z" fill="#00101c" stroke="#00101c"></path><path d="M150.4 612L238.4 642L236.5 553Z" fill="#297ea6" stroke="#297ea6"></path><path d="M510.8 617L493.9 562L442.7 577Z" fill="#246688" stroke="#246688"></path><path d="M442.7 577L493.9 562L448.8 548Z" fill="#277297" stroke="#277297"></path><path d="M540 405L498.9 370L479.8 408Z" fill="#15384f" stroke="#15384f"></path><path d="M339.5 693L396.6 589L287.5 629Z" fill="#246688" stroke="#246688"></path><path d="M339.5 693L417.7 647L396.6 589Z" fill="#277297" stroke="#277297"></path><path d="M258.5 681L304.6 679L287.5 629Z" fill="#205a7a" stroke="#205a7a"></path><path d="M242.4 673L250.5 669L238.4 642Z" fill="#112e42" stroke="#112e42"></path><path d="M238.4 642L250.5 669L287.5 629Z" fill="#081a28" stroke="#081a28"></path><path d="M498.9 370L457.8 333L468.8 378Z" fill="#0c2435" stroke="#0c2435"></path><path d="M468.8 378L457.8 333L376.6 399Z" fill="#15384f" stroke="#15384f"></path><path d="M301.6 335L235.4 307L246.4 348Z" fill="#112e42" stroke="#112e42"></path><path d="M246.4 348L207.5 323L193.3 374Z" fill="#1d4e6b" stroke="#1d4e6b"></path><path d="M253.5 276L235.4 307L301.6 335Z" fill="#15384f" stroke="#15384f"></path><path d="M457.8 333L404.8 298L368.6 391Z" fill="#19435d" stroke="#19435d"></path><path d="M354.5 278L301.6 335L314.5 365Z" fill="#081a28" stroke="#081a28"></path><path d="M235.4 307L207.5 323L246.4 348Z" fill="#112e42" stroke="#112e42"></path><path d="M118.2 482L124.3 501L150.4 481Z" fill="#246688" stroke="#246688"></path><path d="M457.8 333L456.7 327L404.8 298Z" fill="#277297" stroke="#277297"></path><path d="M540 308L456.7 327L457.8 333Z" fill="#277297" stroke="#277297"></path><path d="M150.4 612L236.5 553L180.3 519Z" fill="#297ea6" stroke="#297ea6"></path><path d="M250.5 669L258.5 681L287.5 629Z" fill="#19435d" stroke="#19435d"></path><path d="M118.2 482L183.5 450L85.2 460Z" fill="#1d4e6b" stroke="#1d4e6b"></path><path d="M150.4 481L124.3 501L180.3 519Z" fill="#00101c" stroke="#00101c"></path><path d="M281.6 702L339.5 693L304.6 679Z" fill="#246688" stroke="#246688"></path><path d="M304.6 679L339.5 693L287.5 629Z" fill="#205a7a" stroke="#205a7a"></path><path d="M242.4 673L258.5 681L250.5 669Z" fill="#081a28" stroke="#081a28"></path><path d="M540 474L479.8 408L473.8 480Z" fill="#112e42" stroke="#112e42"></path><path d="M479.8 408L498.9 370L468.8 378Z" fill="#19435d" stroke="#19435d"></path><path d="M404.8 298L354.5 278L314.5 365Z" fill="#1d4e6b" stroke="#1d4e6b"></path><path d="M97.1 480L118.2 482L85.2 460Z" fill="#15384f" stroke="#15384f"></path><path d="M540 531L540 474L473.8 480Z" fill="#00101c" stroke="#00101c"></path><path d="M540 578L540 531L493.9 562Z" fill="#15384f" stroke="#15384f"></path><path d="M493.9 562L540 531L458.9 509Z" fill="#246688" stroke="#246688"></path><path d="M150.4 612L180.3 519L123.2 580Z" fill="#297ea6" stroke="#297ea6"></path><path d="M141.3 607L150.4 612L123.2 580Z" fill="#205a7a" stroke="#205a7a"></path><path d="M221.5 712L258.5 681L242.4 673Z" fill="#246688" stroke="#246688"></path><path d="M265.5 734L281.6 702L258.5 681Z" fill="#19435d" stroke="#19435d"></path><path d="M258.5 681L281.6 702L304.6 679Z" fill="#15384f" stroke="#15384f"></path><path d="M281.6 702L346.7 707L339.5 693Z" fill="#297ea6" stroke="#297ea6"></path><path d="M339.5 693L366.7 708L417.7 647Z" fill="#081a28" stroke="#081a28"></path><path d="M123.2 580L180.3 519L124.3 501Z" fill="#081a28" stroke="#081a28"></path><path d="M150.4 612L148.3 691L238.4 642Z" fill="#081a28" stroke="#081a28"></path><path d="M485.9 710L510.8 617L417.7 647Z" fill="#1d4e6b" stroke="#1d4e6b"></path><path d="M417.7 647L510.8 617L442.7 577Z" fill="#1d4e6b" stroke="#1d4e6b"></path><path d="M346.7 707L366.7 708L339.5 693Z" fill="#081a28" stroke="#081a28"></path><path d="M456.7 327L423.8 284L404.8 298Z" fill="#246688" stroke="#246688"></path><path d="M404.8 298L423.8 284L354.5 278Z" fill="#1d4e6b" stroke="#1d4e6b"></path><path d="M462.9 277L423.8 284L456.7 327Z" fill="#277297" stroke="#277297"></path><path d="M366.7 708L411.8 696L417.7 647Z" fill="#081a28" stroke="#081a28"></path><path d="M204.3 229L147.4 271L207.5 323Z" fill="#277297" stroke="#277297"></path><path d="M325.7 283L253.5 276L301.6 335Z" fill="#205a7a" stroke="#205a7a"></path><path d="M266.5 241L253.5 276L325.7 283Z" fill="#15384f" stroke="#15384f"></path><path d="M80.3 578L123.2 580L124.3 501Z" fill="#246688" stroke="#246688"></path><path d="M540 474L540 405L479.8 408Z" fill="#1d4e6b" stroke="#1d4e6b"></path><path d="M540 308L462.9 277L456.7 327Z" fill="#0c2435" stroke="#0c2435"></path><path d="M510.8 617L540 578L493.9 562Z" fill="#15384f" stroke="#15384f"></path><path d="M85.2 460L183.5 450L193.3 374Z" fill="#205a7a" stroke="#205a7a"></path><path d="M118.2 482L97.1 480L124.3 501Z" fill="#15384f" stroke="#15384f"></path><path d="M540 405L540 372L498.9 370Z" fill="#0c2435" stroke="#0c2435"></path><path d="M89.1 332L85.2 460L193.3 374Z" fill="#15384f" stroke="#15384f"></path><path d="M97.1 480L80.3 578L124.3 501Z" fill="#0c2435" stroke="#0c2435"></path><path d="M87.2 607L141.3 607L123.2 580Z" fill="#081a28" stroke="#081a28"></path><path d="M87.2 607L132.4 635L141.3 607Z" fill="#15384f" stroke="#15384f"></path><path d="M141.3 607L132.4 635L150.4 612Z" fill="#19435d" stroke="#19435d"></path><path d="M148.3 691L221.5 712L242.4 673Z" fill="#112e42" stroke="#112e42"></path><path d="M281.6 702L265.5 734L346.7 707Z" fill="#19435d" stroke="#19435d"></path><path d="M346.7 707L358.5 747L366.7 708Z" fill="#205a7a" stroke="#205a7a"></path><path d="M540 308L457.8 333L498.9 370Z" fill="#081a28" stroke="#081a28"></path><path d="M423.8 284L399.6 205L354.5 278Z" fill="#277297" stroke="#277297"></path><path d="M273.6 191L266.5 241L338.5 175Z" fill="#15384f" stroke="#15384f"></path><path d="M540 654L540 623L510.8 617Z" fill="#15384f" stroke="#15384f"></path><path d="M510.8 617L540 623L540 578Z" fill="#246688" stroke="#246688"></path><path d="M266.5 241L325.7 283L338.5 175Z" fill="#246688" stroke="#246688"></path><path d="M147.4 271L135.2 319L207.5 323Z" fill="#081a28" stroke="#081a28"></path><path d="M207.5 323L135.2 319L193.3 374Z" fill="#112e42" stroke="#112e42"></path><path d="M221.5 712L265.5 734L258.5 681Z" fill="#19435d" stroke="#19435d"></path><path d="M207.5 323L235.4 307L204.3 229Z" fill="#19435d" stroke="#19435d"></path><path d="M382.8 755L451.8 713L411.8 696Z" fill="#277297" stroke="#277297"></path><path d="M411.8 696L451.8 713L417.7 647Z" fill="#297ea6" stroke="#297ea6"></path><path d="M382.8 755L411.8 696L366.7 708Z" fill="#0c2435" stroke="#0c2435"></path><path d="M556.9 627L550.9 622L540 623Z" fill="#081a28" stroke="#081a28"></path><path d="M540 623L550.9 622L540 578Z" fill="#205a7a" stroke="#205a7a"></path><path d="M540 578L556.9 627L540 531Z" fill="#00101c" stroke="#00101c"></path><path d="M540 531L556.9 627L540 474Z" fill="#112e42" stroke="#112e42"></path><path d="M540 474L556.9 627L540 405Z" fill="#0c2435" stroke="#0c2435"></path><path d="M540 405L556.9 627L540 372Z" fill="#112e42" stroke="#112e42"></path><path d="M265.5 734L358.5 747L346.7 707Z" fill="#205a7a" stroke="#205a7a"></path><path d="M12.1 494L80.3 578L97.1 480Z" fill="#0c2435" stroke="#0c2435"></path><path d="M461.9 252L451.7 251L462.9 277Z" fill="#081a28" stroke="#081a28"></path><path d="M462.9 277L451.7 251L423.8 284Z" fill="#15384f" stroke="#15384f"></path><path d="M458.7 743L458.9 720L451.8 713Z" fill="#205a7a" stroke="#205a7a"></path><path d="M485.9 710L540 654L510.8 617Z" fill="#246688" stroke="#246688"></path><path d="M540 654L556.9 627L540 623Z" fill="#1d4e6b" stroke="#1d4e6b"></path><path d="M550.9 622L556.9 627L540 578Z" fill="#1d4e6b" stroke="#1d4e6b"></path><path d="M485.9 710L417.7 647L451.8 713Z" fill="#15384f" stroke="#15384f"></path><path d="M80.3 578L87.2 607L123.2 580Z" fill="#19435d" stroke="#19435d"></path><path d="M132.4 635L148.3 691L150.4 612Z" fill="#297ea6" stroke="#297ea6"></path><path d="M503.8 248L461.9 252L462.9 277Z" fill="#277297" stroke="#277297"></path><path d="M458.9 720L485.9 710L451.8 713Z" fill="#246688" stroke="#246688"></path><path d="M86.1 667L148.3 691L132.4 635Z" fill="#277297" stroke="#277297"></path><path d="M233.5 799L298.6 786L265.5 734Z" fill="#297ea6" stroke="#297ea6"></path><path d="M345.5 786L382.8 755L358.5 747Z" fill="#205a7a" stroke="#205a7a"></path><path d="M358.5 747L382.8 755L366.7 708Z" fill="#297ea6" stroke="#297ea6"></path><path d="M458.9 720L458.7 743L485.9 710Z" fill="#0c2435" stroke="#0c2435"></path><path d="M273.6 191L245.5 227L266.5 241Z" fill="#1d4e6b" stroke="#1d4e6b"></path><path d="M266.5 241L245.5 227L253.5 276Z" fill="#00101c" stroke="#00101c"></path><path d="M399.6 205L423.8 284L451.7 251Z" fill="#15384f" stroke="#15384f"></path><path d="M556.9 627L540 308L540 372Z" fill="#277297" stroke="#277297"></path><path d="M540 372L540 308L498.9 370Z" fill="#0c2435" stroke="#0c2435"></path><path d="M204.3 229L235.4 307L253.5 276Z" fill="#277297" stroke="#277297"></path><path d="M135.2 319L89.1 332L193.3 374Z" fill="#1d4e6b" stroke="#1d4e6b"></path><path d="M97.1 255L89.1 332L135.2 319Z" fill="#00101c" stroke="#00101c"></path><path d="M85.2 460L44.2 452L97.1 480Z" fill="#15384f" stroke="#15384f"></path><path d="M382.8 755L458.7 743L451.8 713Z" fill="#0c2435" stroke="#0c2435"></path><path d="M485.9 710L540 764L540 654Z" fill="#0c2435" stroke="#0c2435"></path><path d="M245.5 227L204.3 229L253.5 276Z" fill="#112e42" stroke="#112e42"></path><path d="M36.1 435L44.2 452L85.2 460Z" fill="#1d4e6b" stroke="#1d4e6b"></path><path d="M68.1 698L86.1 667L40.2 685Z" fill="#205a7a" stroke="#205a7a"></path><path d="M472.9 223L451.7 251L461.9 252Z" fill="#277297" stroke="#277297"></path><path d="M448.8 182L399.6 205L451.7 251Z" fill="#19435d" stroke="#19435d"></path><path d="M245.5 227L244.4 187L204.3 229Z" fill="#1d4e6b" stroke="#1d4e6b"></path><path d="M97.1 255L79.3 335L89.1 332Z" fill="#15384f" stroke="#15384f"></path><path d="M89.1 332L38.2 392L85.2 460Z" fill="#297ea6" stroke="#297ea6"></path><path d="M540 308L503.8 248L462.9 277Z" fill="#246688" stroke="#246688"></path><path d="M38.2 392L36.1 435L85.2 460Z" fill="#00101c" stroke="#00101c"></path><path d="M44.2 452L12.1 494L97.1 480Z" fill="#1d4e6b" stroke="#1d4e6b"></path><path d="M298.6 786L345.5 786L358.5 747Z" fill="#081a28" stroke="#081a28"></path><path d="M382.8 755L407.8 826L458.7 743Z" fill="#15384f" stroke="#15384f"></path><path d="M298.6 786L358.5 747L265.5 734Z" fill="#0c2435" stroke="#0c2435"></path><path d="M233.5 799L265.5 734L221.5 712Z" fill="#15384f" stroke="#15384f"></path><path d="M503.8 248L472.9 223L461.9 252Z" fill="#246688" stroke="#246688"></path><path d="M338.5 175L325.7 283L354.5 278Z" fill="#1d4e6b" stroke="#1d4e6b"></path><path d="M204.3 229L130.2 260L147.4 271Z" fill="#297ea6" stroke="#297ea6"></path><path d="M147.4 271L130.2 260L135.2 319Z" fill="#0c2435" stroke="#0c2435"></path><path d="M97.1 255L130.2 260L92.2 219Z" fill="#081a28" stroke="#081a28"></path><path d="M3.1 571L87.2 607L80.3 578Z" fill="#205a7a" stroke="#205a7a"></path><path d="M87.2 607L86.1 667L132.4 635Z" fill="#277297" stroke="#277297"></path><path d="M148.3 691L149.2 747L221.5 712Z" fill="#00101c" stroke="#00101c"></path><path d="M540 308L540 268L503.8 248Z" fill="#081a28" stroke="#081a28"></path><path d="M540 208L448.8 182L472.9 223Z" fill="#246688" stroke="#246688"></path><path d="M554.9 58L540 268L540 308Z" fill="#246688" stroke="#246688"></path><path d="M79.3 335L38.2 392L89.1 332Z" fill="#112e42" stroke="#112e42"></path><path d="M0 380L38.2 392L0 346Z" fill="#246688" stroke="#246688"></path><path d="M68.1 698L87.2 678L86.1 667Z" fill="#00101c" stroke="#00101c"></path><path d="M86.1 667L87.2 678L148.3 691Z" fill="#246688" stroke="#246688"></path><path d="M302.6 808L349.5 797L345.5 786Z" fill="#00101c" stroke="#00101c"></path><path d="M345.5 786L349.5 797L382.8 755Z" fill="#277297" stroke="#277297"></path><path d="M277.5 154L244.4 187L273.6 191Z" fill="#1d4e6b" stroke="#1d4e6b"></path><path d="M273.6 191L244.4 187L245.5 227Z" fill="#00101c" stroke="#00101c"></path><path d="M419.8 155L338.5 175L399.6 205Z" fill="#205a7a" stroke="#205a7a"></path><path d="M399.6 205L338.5 175L354.5 278Z" fill="#246688" stroke="#246688"></path><path d="M105.1 738L149.2 747L148.3 691Z" fill="#00101c" stroke="#00101c"></path><path d="M0 499L12.1 494L-6.9 497Z" fill="#081a28" stroke="#081a28"></path><path d="M36.1 435L12.1 494L44.2 452Z" fill="#112e42" stroke="#112e42"></path><path d="M149.2 747L165.4 761L221.5 712Z" fill="#1d4e6b" stroke="#1d4e6b"></path><path d="M314.5 834L356.7 807L349.5 797Z" fill="#246688" stroke="#246688"></path><path d="M302.6 808L345.5 786L298.6 786Z" fill="#1d4e6b" stroke="#1d4e6b"></path><path d="M349.5 797L356.7 807L382.8 755Z" fill="#00101c" stroke="#00101c"></path><path d="M264.5 836L302.6 808L298.6 786Z" fill="#297ea6" stroke="#297ea6"></path><path d="M314.5 834L358.6 812L356.7 807Z" fill="#00101c" stroke="#00101c"></path><path d="M356.7 807L407.8 826L382.8 755Z" fill="#1d4e6b" stroke="#1d4e6b"></path><path d="M165.4 761L233.5 799L221.5 712Z" fill="#112e42" stroke="#112e42"></path><path d="M540 208L472.9 223L503.8 248Z" fill="#297ea6" stroke="#297ea6"></path><path d="M472.9 223L448.8 182L451.7 251Z" fill="#205a7a" stroke="#205a7a"></path><path d="M126.4 194L130.2 260L204.3 229Z" fill="#205a7a" stroke="#205a7a"></path><path d="M130.2 260L97.1 255L135.2 319Z" fill="#1d4e6b" stroke="#1d4e6b"></path><path d="M-6.9 497L12.1 494L36.1 435Z" fill="#246688" stroke="#246688"></path><path d="M12.1 494L0 525L80.3 578Z" fill="#19435d" stroke="#19435d"></path><path d="M448.8 182L422.7 170L399.6 205Z" fill="#0c2435" stroke="#0c2435"></path><path d="M0 499L0 525L12.1 494Z" fill="#081a28" stroke="#081a28"></path><path d="M540 268L540 230L503.8 248Z" fill="#15384f" stroke="#15384f"></path><path d="M554.9 58L540 230L540 268Z" fill="#297ea6" stroke="#297ea6"></path><path d="M338.5 175L283.6 157L273.6 191Z" fill="#00101c" stroke="#00101c"></path><path d="M124.3 185L126.4 194L161.2 138Z" fill="#0c2435" stroke="#0c2435"></path><path d="M329.6 137L283.6 157L338.5 175Z" fill="#081a28" stroke="#081a28"></path><path d="M40.2 685L86.1 667L0 637Z" fill="#205a7a" stroke="#205a7a"></path><path d="M87.2 678L105.1 738L148.3 691Z" fill="#277297" stroke="#277297"></path><path d="M149.2 747L149.4 775L165.4 761Z" fill="#15384f" stroke="#15384f"></path><path d="M0 499L-6.9 497L0 525Z" fill="#0c2435" stroke="#0c2435"></path><path d="M0 380L-6.9 497L36.1 435Z" fill="#1d4e6b" stroke="#1d4e6b"></path><path d="M68.1 698L105.1 738L87.2 678Z" fill="#297ea6" stroke="#297ea6"></path><path d="M165.4 761L178.3 837L233.5 799Z" fill="#00101c" stroke="#00101c"></path><path d="M-6.9 497L-2.9 542L0 525Z" fill="#297ea6" stroke="#297ea6"></path><path d="M0 525L-2.9 542L80.3 578Z" fill="#205a7a" stroke="#205a7a"></path><path d="M0 560L3.1 571L80.3 578Z" fill="#00101c" stroke="#00101c"></path><path d="M-2.9 542L0 560L80.3 578Z" fill="#205a7a" stroke="#205a7a"></path><path d="M294.5 129L277.5 154L283.6 157Z" fill="#1d4e6b" stroke="#1d4e6b"></path><path d="M283.6 157L277.5 154L273.6 191Z" fill="#277297" stroke="#277297"></path><path d="M129.2 773L149.4 775L149.2 747Z" fill="#19435d" stroke="#19435d"></path><path d="M540 95L441.9 165L448.8 182Z" fill="#277297" stroke="#277297"></path><path d="M448.8 182L441.9 165L422.7 170Z" fill="#0c2435" stroke="#0c2435"></path><path d="M422.7 170L419.8 155L399.6 205Z" fill="#277297" stroke="#277297"></path><path d="M441.9 165L419.8 155L422.7 170Z" fill="#246688" stroke="#246688"></path><path d="M0 346L38.2 392L79.3 335Z" fill="#15384f" stroke="#15384f"></path><path d="M38.2 392L0 380L36.1 435Z" fill="#15384f" stroke="#15384f"></path><path d="M264.5 836L298.6 786L233.5 799Z" fill="#297ea6" stroke="#297ea6"></path><path d="M264.5 836L314.5 834L302.6 808Z" fill="#297ea6" stroke="#297ea6"></path><path d="M302.6 808L314.5 834L349.5 797Z" fill="#00101c" stroke="#00101c"></path><path d="M422.9 842L407.8 826L356.7 855Z" fill="#112e42" stroke="#112e42"></path><path d="M358.6 812L407.8 826L356.7 807Z" fill="#297ea6" stroke="#297ea6"></path><path d="M458.7 743L540 764L485.9 710Z" fill="#297ea6" stroke="#297ea6"></path><path d="M540 779L540 764L458.7 743Z" fill="#0c2435" stroke="#0c2435"></path><path d="M540 654L540 764L556.9 627Z" fill="#205a7a" stroke="#205a7a"></path><path d="M108.3 759L129.2 773L149.2 747Z" fill="#00101c" stroke="#00101c"></path><path d="M208.4 859L264.5 836L233.5 799Z" fill="#081a28" stroke="#081a28"></path><path d="M108.3 759L149.2 747L105.1 738Z" fill="#15384f" stroke="#15384f"></path><path d="M540 230L540 208L503.8 248Z" fill="#15384f" stroke="#15384f"></path><path d="M441.9 165L408.7 128L419.8 155Z" fill="#112e42" stroke="#112e42"></path><path d="M554.9 58L540 208L540 230Z" fill="#297ea6" stroke="#297ea6"></path><path d="M0 637L86.1 667L87.2 607Z" fill="#297ea6" stroke="#297ea6"></path><path d="M89.1 802L108.3 759L0 749Z" fill="#297ea6" stroke="#297ea6"></path><path d="M108.3 759L105.1 738L0 749Z" fill="#1d4e6b" stroke="#1d4e6b"></path><path d="M341.5 129L329.6 137L338.5 175Z" fill="#1d4e6b" stroke="#1d4e6b"></path><path d="M178.3 837L165.4 761L149.4 775Z" fill="#297ea6" stroke="#297ea6"></path><path d="M126.4 194L204.3 229L161.2 138Z" fill="#15384f" stroke="#15384f"></path><path d="M0 313L0 346L79.3 335Z" fill="#297ea6" stroke="#297ea6"></path><path d="M204.3 229L244.4 187L161.2 138Z" fill="#277297" stroke="#277297"></path><path d="M126.4 194L92.2 219L130.2 260Z" fill="#205a7a" stroke="#205a7a"></path><path d="M92.2 219L81.3 229L97.1 255Z" fill="#1d4e6b" stroke="#1d4e6b"></path><path d="M12.1 292L79.3 335L97.1 255Z" fill="#0c2435" stroke="#0c2435"></path><path d="M0 380L-14.9 218L-6.9 497Z" fill="#081a28" stroke="#081a28"></path><path d="M408.7 128L341.5 129L338.5 175Z" fill="#081a28" stroke="#081a28"></path><path d="M329.6 137L294.5 129L283.6 157Z" fill="#297ea6" stroke="#297ea6"></path><path d="M473.9 836L540 779L458.7 743Z" fill="#277297" stroke="#277297"></path><path d="M540 764L540 779L556.9 627Z" fill="#112e42" stroke="#112e42"></path><path d="M341.5 129L294.5 129L329.6 137Z" fill="#0c2435" stroke="#0c2435"></path><path d="M3.1 571L0 637L87.2 607Z" fill="#246688" stroke="#246688"></path><path d="M0 560L0 637L3.1 571Z" fill="#246688" stroke="#246688"></path><path d="M-2.9 542L0 637L0 560Z" fill="#246688" stroke="#246688"></path><path d="M-6.9 497L0 637L-2.9 542Z" fill="#081a28" stroke="#081a28"></path><path d="M92.2 219L73.2 226L81.3 229Z" fill="#112e42" stroke="#112e42"></path><path d="M126.4 194L103.3 179L92.2 219Z" fill="#112e42" stroke="#112e42"></path><path d="M161.2 138L244.4 187L246.5 107Z" fill="#112e42" stroke="#112e42"></path><path d="M103.3 179L73.2 226L92.2 219Z" fill="#112e42" stroke="#112e42"></path><path d="M81.3 229L73.2 226L97.1 255Z" fill="#15384f" stroke="#15384f"></path><path d="M356.7 855L407.8 826L358.6 812Z" fill="#00101c" stroke="#00101c"></path><path d="M407.8 826L455.8 833L458.7 743Z" fill="#19435d" stroke="#19435d"></path><path d="M356.7 855L358.6 812L314.5 834Z" fill="#1d4e6b" stroke="#1d4e6b"></path><path d="M419.8 155L408.7 128L338.5 175Z" fill="#112e42" stroke="#112e42"></path><path d="M265.5 103L277.5 154L294.5 129Z" fill="#00101c" stroke="#00101c"></path><path d="M403.7 93L408.7 128L454.9 77Z" fill="#15384f" stroke="#15384f"></path><path d="M422.9 842L455.8 833L407.8 826Z" fill="#1d4e6b" stroke="#1d4e6b"></path><path d="M301.6 871L356.7 855L314.5 834Z" fill="#00101c" stroke="#00101c"></path><path d="M73.2 226L12.1 292L97.1 255Z" fill="#19435d" stroke="#19435d"></path><path d="M12.1 292L0 313L79.3 335Z" fill="#297ea6" stroke="#297ea6"></path><path d="M0 346L-14.9 218L0 380Z" fill="#205a7a" stroke="#205a7a"></path><path d="M436.7 854L473.9 836L455.8 833Z" fill="#081a28" stroke="#081a28"></path><path d="M455.8 833L473.9 836L458.7 743Z" fill="#277297" stroke="#277297"></path><path d="M436.7 854L455.8 833L422.9 842Z" fill="#277297" stroke="#277297"></path><path d="M-14.9 218L0 299L12.1 292Z" fill="#19435d" stroke="#19435d"></path><path d="M12.1 292L0 299L0 313Z" fill="#15384f" stroke="#15384f"></path><path d="M0 313L-14.9 218L0 346Z" fill="#19435d" stroke="#19435d"></path><path d="M132.2 818L149.4 775L129.2 773Z" fill="#297ea6" stroke="#297ea6"></path><path d="M132.2 818L178.3 837L149.4 775Z" fill="#0c2435" stroke="#0c2435"></path><path d="M264.5 836L301.6 871L314.5 834Z" fill="#00101c" stroke="#00101c"></path><path d="M132.2 818L129.2 773L123.3 821Z" fill="#1d4e6b" stroke="#1d4e6b"></path><path d="M356.7 855L436.7 854L422.9 842Z" fill="#15384f" stroke="#15384f"></path><path d="M124.3 185L103.3 179L126.4 194Z" fill="#00101c" stroke="#00101c"></path><path d="M73.2 226L0 205L12.1 292Z" fill="#081a28" stroke="#081a28"></path><path d="M161.2 138L103.3 179L124.3 185Z" fill="#15384f" stroke="#15384f"></path><path d="M252.5 914L301.6 871L264.5 836Z" fill="#205a7a" stroke="#205a7a"></path><path d="M421.7 960L457.8 882L436.7 854Z" fill="#112e42" stroke="#112e42"></path><path d="M123.3 821L129.2 773L89.1 802Z" fill="#00101c" stroke="#00101c"></path><path d="M129.2 773L108.3 759L89.1 802Z" fill="#0c2435" stroke="#0c2435"></path><path d="M540 841L540 811L473.9 836Z" fill="#112e42" stroke="#112e42"></path><path d="M473.9 836L540 811L540 779Z" fill="#297ea6" stroke="#297ea6"></path><path d="M540 779L540 811L556.9 627Z" fill="#0c2435" stroke="#0c2435"></path><path d="M246.5 107L244.4 187L277.5 154Z" fill="#112e42" stroke="#112e42"></path><path d="M265.5 103L294.5 129L287.6 44Z" fill="#19435d" stroke="#19435d"></path><path d="M265.5 103L246.5 107L277.5 154Z" fill="#0c2435" stroke="#0c2435"></path><path d="M256.4 54L265.5 103L287.6 44Z" fill="#0c2435" stroke="#0c2435"></path><path d="M178.3 837L208.4 859L233.5 799Z" fill="#112e42" stroke="#112e42"></path><path d="M194.3 864L208.4 859L178.3 837Z" fill="#15384f" stroke="#15384f"></path><path d="M105.1 738L68.1 698L0 749Z" fill="#00101c" stroke="#00101c"></path><path d="M132.2 818L169.3 867L178.3 837Z" fill="#081a28" stroke="#081a28"></path><path d="M0 734L68.1 698L40.2 685Z" fill="#00101c" stroke="#00101c"></path><path d="M169.3 867L132.2 818L123.3 821Z" fill="#297ea6" stroke="#297ea6"></path><path d="M169.3 867L194.3 864L178.3 837Z" fill="#15384f" stroke="#15384f"></path><path d="M208.4 859L252.5 914L264.5 836Z" fill="#00101c" stroke="#00101c"></path><path d="M454.9 77L408.7 128L441.9 165Z" fill="#112e42" stroke="#112e42"></path><path d="M408.7 128L403.7 93L341.5 129Z" fill="#297ea6" stroke="#297ea6"></path><path d="M-6.9 497L0 734L0 637Z" fill="#19435d" stroke="#19435d"></path><path d="M0 637L0 734L40.2 685Z" fill="#081a28" stroke="#081a28"></path><path d="M540 850L540 841L473.9 836Z" fill="#277297" stroke="#277297"></path><path d="M540 811L540 841L556.9 627Z" fill="#081a28" stroke="#081a28"></path><path d="M105.1 897L123.3 821L73.2 886Z" fill="#112e42" stroke="#112e42"></path><path d="M105.1 897L169.3 867L123.3 821Z" fill="#081a28" stroke="#081a28"></path><path d="M194.3 864L252.5 914L208.4 859Z" fill="#15384f" stroke="#15384f"></path><path d="M421.7 960L436.7 854L356.7 855Z" fill="#19435d" stroke="#19435d"></path><path d="M436.7 854L457.8 882L473.9 836Z" fill="#205a7a" stroke="#205a7a"></path><path d="M316.5 960L356.7 855L301.6 871Z" fill="#297ea6" stroke="#297ea6"></path><path d="M457.8 882L540 850L473.9 836Z" fill="#112e42" stroke="#112e42"></path><path d="M540 841L540 850L556.9 627Z" fill="#0c2435" stroke="#0c2435"></path><path d="M-6.9 497L0 749L0 734Z" fill="#297ea6" stroke="#297ea6"></path><path d="M0 734L0 749L68.1 698Z" fill="#277297" stroke="#277297"></path><path d="M256.4 54L246.5 107L265.5 103Z" fill="#19435d" stroke="#19435d"></path><path d="M256.4 54L221.4 72L246.5 107Z" fill="#246688" stroke="#246688"></path><path d="M246.5 107L212.3 71L161.2 138Z" fill="#15384f" stroke="#15384f"></path><path d="M65.2 142L73.2 226L103.3 179Z" fill="#112e42" stroke="#112e42"></path><path d="M540 95L454.9 77L441.9 165Z" fill="#081a28" stroke="#081a28"></path><path d="M287.6 44L294.5 129L341.5 129Z" fill="#0c2435" stroke="#0c2435"></path><path d="M192.3 26L212.3 71L221.4 72Z" fill="#0c2435" stroke="#0c2435"></path><path d="M221.4 72L212.3 71L246.5 107Z" fill="#277297" stroke="#277297"></path><path d="M215.5 955L252.5 914L194.3 864Z" fill="#246688" stroke="#246688"></path><path d="M0 177L0 205L73.2 226Z" fill="#1d4e6b" stroke="#1d4e6b"></path><path d="M0 299L-14.9 218L0 313Z" fill="#0c2435" stroke="#0c2435"></path><path d="M65.2 142L103.3 179L161.2 138Z" fill="#205a7a" stroke="#205a7a"></path><path d="M56.1 60L65.2 142L94.2 34Z" fill="#00101c" stroke="#00101c"></path><path d="M0 177L-14.9 218L0 205Z" fill="#15384f" stroke="#15384f"></path><path d="M0 205L-14.9 218L12.1 292Z" fill="#1d4e6b" stroke="#1d4e6b"></path><path d="M-6.9 497L0 795L0 749Z" fill="#1d4e6b" stroke="#1d4e6b"></path><path d="M287.6 44L341.5 129L383.8 26Z" fill="#00101c" stroke="#00101c"></path><path d="M383.8 26L341.5 129L403.7 93Z" fill="#081a28" stroke="#081a28"></path><path d="M554.9 58L540 95L540 208Z" fill="#15384f" stroke="#15384f"></path><path d="M540 208L540 95L448.8 182Z" fill="#112e42" stroke="#112e42"></path><path d="M554.9 58L540 93L540 95Z" fill="#297ea6" stroke="#297ea6"></path><path d="M540 95L540 93L454.9 77Z" fill="#277297" stroke="#277297"></path><path d="M390.7 19L383.8 26L403.7 93Z" fill="#1d4e6b" stroke="#1d4e6b"></path><path d="M0 806L0 795L-6.9 497Z" fill="#1d4e6b" stroke="#1d4e6b"></path><path d="M0 749L0 795L89.1 802Z" fill="#19435d" stroke="#19435d"></path><path d="M215.5 955L255.4 960L252.5 914Z" fill="#1d4e6b" stroke="#1d4e6b"></path><path d="M0 120L37.1 142L10.1 71Z" fill="#246688" stroke="#246688"></path><path d="M65.2 142L37.1 142L73.2 226Z" fill="#19435d" stroke="#19435d"></path><path d="M37.1 142L0 177L73.2 226Z" fill="#15384f" stroke="#15384f"></path><path d="M0 894L0 806L-6.9 497Z" fill="#297ea6" stroke="#297ea6"></path><path d="M0 795L0 806L89.1 802Z" fill="#112e42" stroke="#112e42"></path><path d="M390.7 19L403.7 93L454.9 77Z" fill="#19435d" stroke="#19435d"></path><path d="M73.2 886L123.3 821L89.1 802Z" fill="#205a7a" stroke="#205a7a"></path><path d="M441.7 0L390.7 19L454.9 77Z" fill="#15384f" stroke="#15384f"></path><path d="M383.8 26L324.5 0L287.6 44Z" fill="#246688" stroke="#246688"></path><path d="M255.4 960L316.5 960L252.5 914Z" fill="#246688" stroke="#246688"></path><path d="M252.5 914L316.5 960L301.6 871Z" fill="#00101c" stroke="#00101c"></path><path d="M457.8 882L528.9 926L540 850Z" fill="#205a7a" stroke="#205a7a"></path><path d="M0 806L73.2 886L89.1 802Z" fill="#15384f" stroke="#15384f"></path><path d="M316.5 960L369.6 960L356.7 855Z" fill="#00101c" stroke="#00101c"></path><path d="M0 120L0 142L37.1 142Z" fill="#246688" stroke="#246688"></path><path d="M37.1 142L0 142L0 177Z" fill="#0c2435" stroke="#0c2435"></path><path d="M0 177L0 142L-14.9 218Z" fill="#081a28" stroke="#081a28"></path><path d="M94.2 34L161.2 138L212.3 71Z" fill="#0c2435" stroke="#0c2435"></path><path d="M215.5 955L194.3 864L169.3 867Z" fill="#1d4e6b" stroke="#1d4e6b"></path><path d="M215.5 955L206.5 960L207.3 960Z" fill="#112e42" stroke="#112e42"></path><path d="M263.4 0L192.3 26L256.4 54Z" fill="#19435d" stroke="#19435d"></path><path d="M256.4 54L192.3 26L221.4 72Z" fill="#297ea6" stroke="#297ea6"></path><path d="M263.4 0L256.4 54L287.6 44Z" fill="#0c2435" stroke="#0c2435"></path><path d="M215.5 955L169.3 867L206.5 960Z" fill="#112e42" stroke="#112e42"></path><path d="M369.6 960L421.7 960L356.7 855Z" fill="#277297" stroke="#277297"></path><path d="M440.8 960L528.9 926L457.8 882Z" fill="#1d4e6b" stroke="#1d4e6b"></path><path d="M421.7 960L424.9 960L457.8 882Z" fill="#205a7a" stroke="#205a7a"></path><path d="M556.9 627L554.9 58L540 308Z" fill="#297ea6" stroke="#297ea6"></path><path d="M540 93L554.9 58L454.9 77Z" fill="#00101c" stroke="#00101c"></path><path d="M424.9 960L440.8 960L457.8 882Z" fill="#205a7a" stroke="#205a7a"></path><path d="M381.6 0L324.5 0L383.8 26Z" fill="#15384f" stroke="#15384f"></path><path d="M381.6 0L383.8 26L390.7 19Z" fill="#00101c" stroke="#00101c"></path><path d="M206.5 960L169.3 867L161.4 969Z" fill="#00101c" stroke="#00101c"></path><path d="M215.5 955L207.3 960L255.4 960Z" fill="#277297" stroke="#277297"></path><path d="M161.4 969L169.3 867L105.1 897Z" fill="#15384f" stroke="#15384f"></path><path d="M441.7 0L381.6 0L390.7 19Z" fill="#19435d" stroke="#19435d"></path><path d="M324.5 0L263.4 0L287.6 44Z" fill="#081a28" stroke="#081a28"></path><path d="M56.1 60L37.1 142L65.2 142Z" fill="#15384f" stroke="#15384f"></path><path d="M0 142L0 120L-14.9 218Z" fill="#277297" stroke="#277297"></path><path d="M479.8 0L441.7 0L454.9 77Z" fill="#112e42" stroke="#112e42"></path><path d="M0 894L65.1 915L73.2 886Z" fill="#112e42" stroke="#112e42"></path><path d="M73.2 886L65.1 915L105.1 897Z" fill="#19435d" stroke="#19435d"></path><path d="M94.2 34L65.2 142L161.2 138Z" fill="#0c2435" stroke="#0c2435"></path><path d="M94.2 34L212.3 71L192.3 26Z" fill="#0c2435" stroke="#0c2435"></path><path d="M217.5 -22L187.5 0L192.3 26Z" fill="#00101c" stroke="#00101c"></path><path d="M81.2 960L161.4 969L105.1 897Z" fill="#081a28" stroke="#081a28"></path><path d="M206.5 960L161.4 969L207.3 960Z" fill="#205a7a" stroke="#205a7a"></path><path d="M207.3 960L161.4 969L255.4 960Z" fill="#246688" stroke="#246688"></path><path d="M255.4 960L161.4 969L316.5 960Z" fill="#205a7a" stroke="#205a7a"></path><path d="M316.5 960L161.4 969L369.6 960Z" fill="#0c2435" stroke="#0c2435"></path><path d="M369.6 960L161.4 969L421.7 960Z" fill="#297ea6" stroke="#297ea6"></path><path d="M421.7 960L161.4 969L424.9 960Z" fill="#0c2435" stroke="#0c2435"></path><path d="M424.9 960L161.4 969L440.8 960Z" fill="#112e42" stroke="#112e42"></path><path d="M480.9 0L479.8 0L454.9 77Z" fill="#00101c" stroke="#00101c"></path><path d="M554.9 58L480.9 0L454.9 77Z" fill="#205a7a" stroke="#205a7a"></path><path d="M129.2 0L94.2 34L192.3 26Z" fill="#277297" stroke="#277297"></path><path d="M187.5 0L162.3 0L192.3 26Z" fill="#1d4e6b" stroke="#1d4e6b"></path><path d="M263.4 0L217.5 -22L192.3 26Z" fill="#112e42" stroke="#112e42"></path><path d="M187.5 0L217.5 -22L162.3 0Z" fill="#297ea6" stroke="#297ea6"></path><path d="M324.5 0L246.5 -22L263.4 0Z" fill="#00101c" stroke="#00101c"></path><path d="M381.6 0L246.5 -22L324.5 0Z" fill="#297ea6" stroke="#297ea6"></path><path d="M441.7 0L246.5 -22L381.6 0Z" fill="#297ea6" stroke="#297ea6"></path><path d="M540 -8L246.5 -22L441.7 0Z" fill="#277297" stroke="#277297"></path><path d="M540 -8L441.7 0L479.8 0Z" fill="#246688" stroke="#246688"></path><path d="M440.8 960L540 960L528.9 926Z" fill="#081a28" stroke="#081a28"></path><path d="M528.9 926L540 960L540 850Z" fill="#0c2435" stroke="#0c2435"></path><path d="M540 850L540 960L556.9 627Z" fill="#277297" stroke="#277297"></path><path d="M161.4 969L540 960L440.8 960Z" fill="#246688" stroke="#246688"></path><path d="M246.5 -22L217.5 -22L263.4 0Z" fill="#081a28" stroke="#081a28"></path><path d="M65.1 915L81.2 960L105.1 897Z" fill="#277297" stroke="#277297"></path><path d="M0 806L0 894L73.2 886Z" fill="#246688" stroke="#246688"></path><path d="M0 907L0 894L-6.9 497Z" fill="#15384f" stroke="#15384f"></path><path d="M10.1 71L56.1 60L11.1 0Z" fill="#277297" stroke="#277297"></path><path d="M0 65L10.1 71L11.1 0Z" fill="#246688" stroke="#246688"></path><path d="M56.1 60L10.1 71L37.1 142Z" fill="#205a7a" stroke="#205a7a"></path><path d="M217.5 -22L129.2 0L162.3 0Z" fill="#15384f" stroke="#15384f"></path><path d="M162.3 0L129.2 0L192.3 26Z" fill="#1d4e6b" stroke="#1d4e6b"></path><path d="M554.9 58L540 0L480.9 0Z" fill="#112e42" stroke="#112e42"></path><path d="M480.9 0L540 -8L479.8 0Z" fill="#246688" stroke="#246688"></path><path d="M0 960L0 907L-6.9 497Z" fill="#15384f" stroke="#15384f"></path><path d="M0 894L0 907L65.1 915Z" fill="#112e42" stroke="#112e42"></path><path d="M48.1 960L81.2 960L65.1 915Z" fill="#081a28" stroke="#081a28"></path><path d="M11.1 0L56.1 60L94.2 34Z" fill="#081a28" stroke="#081a28"></path><path d="M10.1 71L0 65L0 120Z" fill="#205a7a" stroke="#205a7a"></path><path d="M0 120L0 65L-14.9 218Z" fill="#297ea6" stroke="#297ea6"></path><path d="M554.9 58L540 -8L540 0Z" fill="#15384f" stroke="#15384f"></path><path d="M540 0L540 -8L480.9 0Z" fill="#246688" stroke="#246688"></path><path d="M0 907L48.1 960L65.1 915Z" fill="#205a7a" stroke="#205a7a"></path><path d="M81.2 960L48.1 960L161.4 969Z" fill="#081a28" stroke="#081a28"></path><path d="M-14.9 218L0 960L-6.9 497Z" fill="#277297" stroke="#277297"></path><path d="M0 907L0 960L48.1 960Z" fill="#0c2435" stroke="#0c2435"></path><path d="M48.1 960L0 960L161.4 969Z" fill="#00101c" stroke="#00101c"></path><path d="M217.5 -22L11.1 0L129.2 0Z" fill="#00101c" stroke="#00101c"></path><path d="M129.2 0L11.1 0L94.2 34Z" fill="#112e42" stroke="#112e42"></path><path d="M217.5 -22L0 0L11.1 0Z" fill="#1d4e6b" stroke="#1d4e6b"></path><path d="M11.1 0L0 0L0 65Z" fill="#15384f" stroke="#15384f"></path><path d="M0 65L0 0L-14.9 218Z" fill="#15384f" stroke="#15384f"></path></g></svg>