<?xml version="1.0" standalone="no"?>
<!DOCTYPE svg PUBLIC "-//W3C//DTD SVG 20010904//EN"
 "http://www.w3.org/TR/2001/REC-SVG-20010904/DTD/svg10.dtd">
<svg version="1.0" xmlns="http://www.w3.org/2000/svg"
 width="823.000000pt" height="463.000000pt" viewBox="0 0 823.000000 463.000000"
 preserveAspectRatio="xMidYMid meet">

<g transform="translate(0.000000,463.000000) scale(0.100000,-0.100000)"
fill="#000000" stroke="none">
<path d="M4547 4405 c-24 -12 -37 -13 -74 -4 -56 15 -134 7 -198 -20 l-50 -21
30 25 c17 14 25 25 18 25 -7 0 -45 -28 -85 -63 -40 -34 -107 -89 -148 -121
-41 -33 -88 -73 -105 -88 -58 -56 -164 -134 -260 -193 -26 -16 -27 -19 -10
-25 17 -6 17 -7 1 -13 -10 -4 -27 -7 -39 -8 -12 0 -1 -7 24 -14 26 -7 52 -15
58 -19 20 -13 12 -26 -16 -26 -16 0 -35 -5 -43 -11 -12 -9 -11 -10 8 -6 12 3
22 1 22 -5 0 -5 5 -6 10 -3 6 3 10 1 10 -4 0 -6 3 -10 8 -9 4 0 15 -2 26 -7
10 -4 21 -4 25 1 16 23 83 74 97 74 10 0 1 -19 -28 -60 -23 -33 -46 -60 -50
-60 -10 0 -2 -61 17 -140 8 -30 16 -67 20 -82 3 -16 11 -28 17 -28 7 0 25 -12
40 -27 l29 -28 25 33 c31 40 83 70 80 47 -1 -9 -8 -21 -14 -27 -16 -16 -15
-28 2 -28 8 0 18 -4 21 -10 4 -6 -3 -6 -21 0 -24 9 -31 7 -57 -17 -29 -28 -29
-29 -23 -106 6 -85 13 -107 27 -86 6 9 9 1 9 -25 0 -23 -7 -47 -17 -58 -15
-17 -15 -20 -1 -34 14 -15 20 -14 62 11 25 15 51 25 58 22 9 -3 8 -7 -4 -12
-15 -6 -14 -10 7 -41 13 -19 25 -40 27 -46 5 -14 94 17 124 44 22 20 64 24 64
7 0 -6 6 -9 13 -6 21 8 37 -6 27 -23 -7 -12 -12 -12 -22 -2 -20 20 -82 15
-104 -10 -17 -19 -17 -21 -1 -15 25 9 21 -1 -14 -34 l-31 -29 37 0 c35 0 36
-1 30 -29 -3 -16 -1 -48 6 -70 18 -62 93 -89 161 -58 15 7 85 66 155 131 70
66 114 104 97 85 -17 -19 -49 -58 -72 -88 -52 -67 -56 -86 -12 -59 16 10 29 7
82 -21 35 -19 72 -40 82 -47 18 -12 18 -14 2 -20 -10 -4 -33 0 -52 9 -19 9
-34 14 -34 12 0 -3 14 -32 30 -65 34 -68 38 -86 10 -50 -10 14 -20 23 -22 20
-2 -3 -12 -22 -21 -44 -10 -21 -20 -36 -23 -33 -3 3 -1 14 5 25 6 12 11 29 11
39 0 14 -7 10 -26 -15 -17 -21 -32 -31 -42 -27 -19 7 -107 -21 -122 -41 -10
-12 -8 -14 17 -14 16 0 56 -8 89 -19 74 -23 174 -42 185 -35 15 9 10 -9 -9
-38 l-18 -28 -20 23 c-17 19 -39 25 -117 36 -53 8 -97 17 -97 22 0 5 -15 9
-32 9 -28 0 -41 -10 -83 -60 -27 -33 -57 -60 -66 -60 -8 0 -28 -14 -45 -31
-16 -17 -38 -35 -49 -41 -11 -6 5 16 35 48 l55 59 -28 3 c-55 7 -155 -85 -202
-185 -14 -28 -30 -55 -35 -58 -9 -6 -40 -70 -40 -83 0 -3 9 3 20 13 20 18 20
17 -1 -41 -15 -42 -22 -86 -23 -149 -1 -87 0 -90 22 -93 13 -2 34 4 47 12 16
11 26 12 31 5 7 -12 -85 -111 -96 -104 -9 5 -39 -27 -74 -80 -27 -41 -33 -61
-16 -50 14 9 13 4 -11 -60 -11 -30 -28 -60 -37 -67 -9 -7 -30 -30 -46 -51 -15
-21 -31 -36 -34 -32 -6 6 -82 -108 -82 -122 0 -4 25 -19 56 -32 56 -24 104
-57 104 -70 0 -4 -27 6 -60 22 -42 21 -79 31 -129 35 l-69 5 3 -27 c3 -23 0
-26 -25 -26 -40 0 -82 -21 -76 -37 3 -7 -1 -13 -10 -13 -8 0 -12 -5 -9 -10 4
-6 -5 -10 -21 -10 -25 0 -26 -2 -19 -38 4 -20 9 -50 12 -65 l6 -29 -26 26
c-31 31 -43 32 -70 8 -20 -16 -20 -16 -13 2 5 15 1 14 -20 -7 -23 -24 -98 -65
-146 -81 -10 -3 -18 -14 -18 -24 0 -19 -18 -42 -33 -42 -5 0 -6 7 -3 16 5 14
4 15 -9 4 -19 -16 -19 -54 0 -70 19 -16 19 -30 1 -30 -22 0 -46 40 -46 75 0
41 50 89 121 116 60 23 99 54 99 80 0 9 7 22 15 29 8 7 15 15 15 19 0 11 -133
35 -187 33 -29 -1 -68 -9 -85 -18 -30 -16 -32 -16 -19 -1 9 11 10 17 2 17 -6
0 -39 -27 -73 -60 -33 -33 -56 -60 -50 -60 20 0 14 -16 -19 -51 -28 -30 -31
-38 -27 -86 3 -29 1 -53 -4 -53 -4 0 -8 -18 -8 -40 0 -33 3 -40 16 -38 26 5
28 -19 2 -25 -12 -4 -23 -5 -24 -4 -1 1 -6 58 -11 126 -9 137 -13 126 67 226
22 28 40 54 40 58 0 18 -104 -82 -163 -156 -40 -51 -63 -73 -65 -63 -2 9 7 33
19 53 24 39 8 36 -25 -5 -10 -12 -21 -21 -23 -18 -3 3 -12 -2 -21 -10 -13 -14
-10 -26 26 -112 51 -119 102 -259 101 -275 0 -16 -44 79 -79 173 -16 41 -49
125 -75 185 -25 61 -62 151 -81 200 -20 50 -56 142 -81 205 -93 239 -116 296
-128 325 -7 17 -25 61 -40 98 -15 37 -29 66 -32 64 -2 -3 21 -68 52 -145 30
-77 55 -143 55 -147 0 -3 19 -50 41 -103 23 -53 74 -182 114 -287 223 -586
333 -863 346 -871 17 -10 8 42 -17 101 -50 118 -74 179 -71 182 5 5 63 -126
97 -218 35 -95 37 -120 9 -145 -20 -18 -22 -18 -117 15 -350 118 -922 295
-930 287 -9 -10 15 -53 55 -97 43 -48 71 -62 261 -129 75 -26 187 -66 247 -88
192 -69 300 -100 510 -147 117 -27 124 -27 255 -16 153 13 211 27 217 52 6 22
58 34 218 53 257 31 835 86 900 86 46 0 121 34 139 64 19 29 31 70 19 63 -6
-4 -111 -11 -234 -17 -123 -6 -280 -15 -349 -20 -124 -10 -722 -45 -976 -57
-88 -4 -137 -2 -150 5 -15 9 -7 12 46 12 36 0 160 7 275 15 116 8 325 21 465
30 647 39 754 46 768 54 21 12 -23 24 -203 55 -153 27 -302 53 -480 86 -55 10
-117 21 -137 25 -41 6 -71 41 -44 51 8 3 27 24 42 47 15 23 34 46 42 51 8 5
32 24 52 42 35 32 42 34 108 34 63 0 79 -4 137 -36 36 -20 63 -40 59 -45 -3
-5 1 -9 9 -9 7 0 51 -25 97 -55 97 -64 155 -84 260 -92 57 -4 85 -1 114 11 44
18 70 21 61 6 -5 -9 74 -16 125 -11 15 1 252 -51 521 -114 199 -47 257 -51
482 -29 47 4 72 3 82 -6 16 -13 110 -8 170 9 27 7 23 10 -52 26 -46 10 -83 22
-83 27 0 6 14 6 33 1 17 -4 106 -7 198 -7 145 1 171 4 213 22 26 12 71 24 99
28 130 15 178 47 206 138 22 72 40 220 19 156 -8 -24 -13 -30 -15 -17 -5 21
25 117 37 117 5 0 14 17 19 38 11 40 61 290 61 305 0 5 -14 -3 -31 -17 -29
-25 -49 -33 -49 -20 0 4 25 40 56 81 71 94 94 154 101 263 8 131 -16 262 -72
395 -28 65 -29 66 -93 44 -78 -27 -85 -19 -21 23 65 44 83 72 99 161 17 94 1
196 -50 302 -36 76 -97 171 -105 163 -3 -2 2 -26 10 -52 18 -58 24 -164 10
-168 -5 -2 -13 20 -16 47 -19 151 -88 275 -168 300 -15 4 -19 10 -12 14 25 16
-68 81 -115 81 -11 0 -35 7 -51 15 -33 16 -196 26 -209 12 -4 -4 0 -21 10 -37
l17 -30 -26 0 c-14 0 -38 8 -52 18 -38 24 -193 24 -244 0 -52 -25 -116 -100
-152 -176 -30 -64 -32 -66 -35 -35 -4 43 38 131 88 182 36 37 38 41 17 41 -44
0 -105 -23 -262 -100 -88 -44 -220 -99 -294 -124 -74 -26 -146 -53 -159 -62
-24 -16 -24 -16 -3 -30 20 -14 16 -19 -98 -132 -126 -124 -158 -173 -199 -302
-18 -58 -27 -114 -48 -317 -8 -88 14 -149 81 -221 53 -57 54 -58 142 -75 50
-9 105 -18 124 -18 26 -1 20 -4 -21 -10 -31 -4 -85 -4 -124 2 -96 13 -145 51
-203 154 -26 47 -28 57 -27 165 2 198 37 360 105 485 18 33 73 101 121 151 48
50 88 94 88 97 0 4 -9 7 -20 7 -26 0 -25 7 6 72 19 39 24 45 21 23 -3 -16 -9
-39 -13 -50 -7 -17 -2 -16 29 8 21 16 94 48 163 73 190 66 290 109 358 153 86
57 137 72 226 70 51 -1 89 4 120 16 25 10 78 18 120 20 64 2 84 7 133 35 56
31 57 33 40 52 -30 33 -133 97 -168 104 -18 3 -42 1 -52 -5 -11 -5 -30 -7 -42
-4 -17 4 -21 11 -17 28 7 29 -14 48 -58 50 -19 1 -94 32 -167 69 -94 48 -139
66 -156 61 -13 -3 -22 -1 -21 5 4 12 -146 142 -150 130 -2 -5 2 -19 8 -31 7
-12 8 -19 2 -15 -5 3 -15 19 -22 36 -20 48 -27 35 -18 -32 10 -83 19 -218 12
-193 -45 170 -118 345 -143 345 -5 0 -7 9 -4 20 3 12 -11 47 -36 91 -44 76
-46 83 -32 138 5 20 15 68 22 108 11 65 10 73 -6 90 -10 10 -23 18 -29 18 -6
0 -14 19 -19 41 -6 31 -24 59 -68 107 -33 36 -69 69 -80 72 -11 4 -43 22 -72
41 -28 19 -59 32 -68 29 -8 -3 -26 4 -39 15 -13 11 -19 20 -14 20 6 0 15 -5
20 -10 13 -13 44 -2 44 15 0 34 -71 53 -113 30z m-547 -260 c-14 -8 -29 -14
-35 -14 -5 0 1 6 15 14 14 8 30 14 35 14 6 0 -1 -6 -15 -14z m898 -107 c-7
-19 -38 -22 -38 -4 0 10 9 16 21 16 12 0 19 -5 17 -12z m-763 -28 c3 -5 4 -14
0 -20 -8 -13 -35 -1 -35 16 0 16 26 19 35 4z m321 -110 c32 0 31 -22 -4 -61
l-27 -31 -28 22 c-45 35 -29 88 21 74 8 -2 25 -4 38 -4z m480 -16 c-4 -9 -9
-15 -11 -12 -3 3 -3 13 1 22 4 9 9 15 11 12 3 -3 3 -13 -1 -22z m-175 -13 c52
-33 75 -74 91 -161 9 -53 8 -67 -12 -123 -28 -80 -40 -96 -81 -107 -31 -9 -32
-8 -15 5 11 8 23 15 27 15 9 0 46 105 53 151 11 67 -12 139 -59 187 -69 69
-128 55 -168 -38 -15 -35 -15 -35 -16 -7 -1 34 22 82 46 96 33 19 87 12 134
-18z m-361 -82 c0 -14 -30 -38 -47 -39 -16 0 -17 22 -1 38 15 15 48 16 48 1z
m53 -24 c1 -5 -11 -12 -27 -13 -27 -3 -28 -2 -16 13 14 17 40 17 43 0z m242 9
c13 -5 11 -9 -11 -20 -38 -20 -50 -17 -29 6 21 23 18 22 40 14z m55 -53 c18
-34 12 -72 -16 -98 -32 -30 -36 -26 -24 17 8 26 6 37 -5 50 -8 9 -15 24 -15
33 0 24 47 22 60 -2z m-274 -7 c-3 -9 -6 -19 -6 -24 0 -15 -51 -70 -66 -70 -7
0 -17 12 -20 27 -6 22 -1 32 25 55 35 31 77 39 67 12z m208 -92 l-7 -27 -7 30
c-3 17 -2 36 4 44 9 12 12 11 14 -3 2 -10 0 -30 -4 -44z m-203 -35 c-16 -16
-26 0 -10 19 9 11 15 12 17 4 2 -6 -1 -17 -7 -23z m407 -29 c-4 -27 -28 -36
-28 -10 0 20 8 32 22 32 5 0 8 -10 6 -22z m98 -6 c18 -12 34 -49 34 -77 0 -31
-35 -85 -55 -85 -33 0 -73 116 -54 152 10 18 54 24 75 10z m-106 -219 c0 -46
-3 -83 -7 -83 -5 0 -17 20 -28 43 -15 31 -19 60 -18 110 2 88 12 102 35 52 12
-28 18 -65 18 -122z m-814 119 c-17 -16 -18 -16 -5 5 7 12 15 20 18 17 3 -2
-3 -12 -13 -22z m734 -54 c0 -67 -13 -107 -23 -72 -11 38 -18 114 -12 124 3 5
13 10 21 10 11 0 14 -15 14 -62z m240 -21 c0 -12 9 -42 20 -66 28 -61 35 -115
20 -151 -14 -33 -25 -38 -34 -15 -3 9 0 15 9 15 27 0 16 31 -15 42 -50 17 -63
70 -39 147 7 20 13 42 15 49 6 20 24 4 24 -21z m-321 -94 c1 -13 -3 -23 -9
-23 -5 0 -10 19 -9 43 0 32 2 37 9 22 5 -11 9 -30 9 -42z m-225 -130 c8 -19
-12 -25 -49 -15 -34 9 -46 38 -18 44 23 5 60 -11 67 -29z m-521 7 c-3 -11 -12
-20 -19 -20 -17 0 -18 12 -2 28 18 18 27 15 21 -8z m949 -16 c4 -16 9 -93 11
-171 1 -103 5 -144 15 -148 9 -3 12 30 12 145 0 148 8 182 31 138 6 -13 29
-46 50 -74 40 -53 48 -83 27 -106 -23 -24 -86 -123 -92 -145 -9 -28 -44 -73
-58 -73 -6 0 -8 12 -4 32 6 30 5 31 -8 13 -12 -17 -15 -17 -20 -5 -21 61 -26
391 -6 415 18 21 32 14 42 -21z m813 18 c-3 -3 -11 0 -18 7 -9 10 -8 11 6 5
10 -3 15 -9 12 -12z m-955 -38 c0 -8 -4 -14 -10 -14 -5 0 -10 9 -10 21 0 11 5
17 10 14 6 -3 10 -13 10 -21z m60 -59 c0 -33 -4 -45 -15 -45 -16 0 -21 43 -9
74 12 31 24 16 24 -29z m-95 15 c3 -11 11 -20 16 -20 5 0 9 -13 9 -30 0 -26
-5 -31 -41 -40 -60 -16 -85 -10 -81 19 3 34 49 91 72 91 10 0 22 -9 25 -20z
m95 -223 c0 -170 -6 -185 -69 -179 -42 4 -52 15 -27 29 24 14 44 78 51 169 4
49 12 97 17 107 21 41 28 11 28 -126z m-65 91 c15 -87 -37 -125 -81 -60 -25
37 -22 65 9 80 44 21 66 15 72 -20z m498 -16 c45 -46 34 -102 -19 -102 -8 0
-24 -10 -35 -21 -16 -16 -29 -20 -54 -16 -31 5 -32 4 -29 -24 3 -26 -1 -32
-29 -43 -17 -8 -53 -17 -80 -20 -55 -8 -69 7 -47 52 14 28 17 35 19 53 0 5 5
8 10 5 5 -3 16 6 26 20 9 14 22 23 30 20 19 -7 25 3 15 29 -5 14 -5 26 3 34
17 17 35 13 42 -8 8 -27 58 -23 63 4 10 51 45 58 85 17z m943 -137 l34 -23
-43 -36 c-32 -26 -54 -36 -78 -36 -33 1 -69 19 -69 35 0 5 -7 17 -16 26 -16
17 -15 20 15 36 17 10 31 20 31 23 0 14 96 -5 126 -25z m-1785 -238 c-10 -9
-11 -8 -5 6 3 10 9 15 12 12 3 -3 0 -11 -7 -18z m-18 -34 c-4 -10 -41 -63 -83
-118 -84 -110 -148 -221 -176 -305 -16 -46 -19 -84 -18 -225 0 -191 8 -224 77
-322 41 -59 43 -63 24 -63 -20 0 -61 48 -96 111 -28 49 -32 70 -42 185 -21
257 5 356 153 572 42 61 151 182 165 182 1 0 -1 -8 -4 -17z m1065 -176 c2 -26
-2 -45 -14 -58 -21 -24 -44 -13 -69 35 -19 35 -19 36 0 51 11 8 34 14 50 12
27 -2 30 -6 33 -40z m-181 -184 c-59 -66 -62 32 -3 106 9 11 12 4 17 -35 5
-41 3 -53 -14 -71z m133 76 c0 -6 -4 -7 -10 -4 -5 3 -10 11 -10 16 0 6 5 7 10
4 6 -3 10 -11 10 -16z m168 -80 c-5 -16 -48 28 -48 50 0 11 7 8 26 -11 15 -14
24 -32 22 -39z m-46 -10 c30 -19 48 -38 48 -50 0 -18 2 -18 23 -4 22 14 26 13
64 -20 23 -20 47 -51 53 -70 12 -37 5 -58 -48 -138 -20 -29 -28 -35 -38 -26
-8 6 -14 15 -14 20 0 5 -13 28 -30 51 -16 22 -30 52 -30 65 0 12 -6 23 -13 23
-7 0 -18 10 -26 21 -12 20 -61 143 -61 154 0 12 27 2 72 -26z m318 -138 l55
-36 -56 -3 -55 -3 -28 -57 c-16 -31 -35 -82 -42 -112 -21 -84 -29 -257 -14
-321 9 -42 49 -183 55 -196 1 -2 35 4 76 13 144 31 395 1 449 -54 13 -13 13
-14 -3 -9 -79 28 -153 41 -232 41 -93 -1 -245 -28 -245 -45 0 -5 -9 -9 -20 -9
-22 0 -138 -34 -188 -56 -18 -8 -35 -20 -38 -28 -3 -8 -14 -11 -29 -9 -15 3
-71 -19 -167 -67 l-143 -72 69 7 c38 4 77 10 85 13 14 5 14 3 3 -11 -8 -9 -28
-21 -45 -26 -38 -13 -238 -10 -230 3 3 4 -25 6 -63 2 -38 -3 -127 -8 -199 -11
-71 -3 -138 -8 -147 -11 -15 -4 -15 -7 4 -26 30 -30 7 -35 -31 -8 -25 17 -48
21 -123 24 -78 3 -115 10 -233 49 -77 26 -171 58 -208 72 -77 29 -150 32 -203
10 -32 -13 -126 -30 -274 -50 -35 -4 -50 -12 -65 -34 -11 -16 -42 -59 -68 -95
-51 -70 -80 -154 -78 -230 1 -32 -1 -36 -13 -27 -11 9 -12 20 -5 44 6 18 11
58 12 89 2 42 9 66 26 88 12 18 20 34 17 37 -3 3 13 38 34 78 22 39 40 80 40
91 0 10 5 26 11 34 8 12 9 10 4 -9 -4 -13 -3 -22 1 -20 5 2 32 16 59 30 28 15
76 34 108 43 33 10 80 31 105 47 26 17 40 29 32 26 -75 -23 -198 -63 -258 -84
-72 -25 -75 -27 -144 -117 -64 -84 -108 -169 -123 -237 -5 -21 -2 -29 13 -33
11 -4 26 -5 33 -4 21 4 25 -80 5 -88 -9 -3 -62 5 -118 18 -86 19 -129 23 -260
22 -160 -1 -173 2 -144 35 18 22 36 78 36 115 0 55 9 60 86 45 116 -21 151
-17 220 24 73 43 140 62 152 41 5 -9 31 17 86 91 75 99 80 104 130 116 28 6
111 31 184 55 73 24 145 44 160 44 15 0 61 -20 103 -44 130 -74 410 -197 484
-213 59 -12 96 -13 235 -4 91 6 235 16 320 21 85 5 173 16 196 23 22 8 83 39
135 69 91 53 262 131 314 144 30 7 30 10 5 68 -45 105 -62 304 -39 446 9 59
27 100 85 197 l19 32 -73 74 c-101 105 -94 124 16 40 48 -36 112 -83 142 -102z
m-430 79 c12 -7 12 -13 4 -27 -12 -20 -100 -31 -116 -15 -16 16 3 41 35 45 57
7 62 7 77 -3z m1090 -155 c0 -9 -7 -30 -16 -47 -22 -43 -39 -22 -19 25 16 38
35 49 35 22z m-710 -145 c0 -19 -11 -26 -23 -14 -8 8 3 34 14 34 5 0 9 -9 9
-20z m-240 -55 c0 -20 -68 -95 -86 -95 -8 0 -14 3 -14 7 0 7 91 103 97 103 2
0 3 -7 3 -15z m-88 -48 c-36 -37 -92 -73 -92 -58 0 13 100 89 119 91 3 0 -9
-15 -27 -33z m-325 -73 c-3 -3 -12 -4 -19 -1 -8 3 -5 6 6 6 11 1 17 -2 13 -5z
m-707 -88 c0 -2 -8 -10 -17 -17 -16 -13 -17 -12 -4 4 13 16 21 21 21 13z
m-163 -208 c-3 -8 -6 -5 -6 6 -1 11 2 17 5 13 3 -3 4 -12 1 -19z m163 -126 c0
-11 -51 -35 -58 -28 -2 3 -2 12 1 21 7 15 57 22 57 7z m2059 -128 c1 -21 -5
-34 -15 -38 -29 -11 -53 -6 -59 13 -6 19 3 51 14 51 4 0 15 15 26 33 l19 32 7
-30 c4 -16 7 -44 8 -61z m-2484 -83 c0 -16 -101 -44 -220 -61 l-82 -12 -65
-74 c-44 -50 -70 -89 -78 -119 -7 -25 -19 -50 -28 -57 -13 -11 -15 -10 -8 12
4 14 12 44 19 68 7 25 38 75 75 121 l63 78 92 13 c50 7 116 21 147 31 62 20
85 20 85 0z m45 -27 c0 -2 -7 -4 -15 -4 -8 0 -15 4 -15 10 0 5 7 7 15 4 8 -4
15 -8 15 -10z m540 -138 c0 -9 -30 -14 -35 -6 -4 6 3 10 14 10 12 0 21 -2 21
-4z m-1607 -153 c3 -5 -44 -8 -104 -9 -60 0 -109 3 -109 8 0 10 207 11 213 1z
m297 -60 c118 -24 152 -33 119 -33 -24 0 -323 61 -329 67 -7 7 57 -3 210 -34z
m-353 21 c-3 -3 -12 -4 -19 -1 -8 3 -5 6 6 6 11 1 17 -2 13 -5z m3430 -16 c-2
-32 -14 -38 -77 -38 -49 0 -52 1 -35 14 11 7 40 20 65 29 25 8 46 16 47 16 1
1 1 -9 0 -21z m-3517 2 c0 -5 -2 -10 -4 -10 -3 0 -8 5 -11 10 -3 6 -1 10 4 10
6 0 11 -4 11 -10z m623 -47 c-7 -2 -21 -2 -30 0 -10 3 -4 5 12 5 17 0 24 -2
18 -5z m44 -9 c-3 -3 -12 -4 -19 -1 -8 3 -5 6 6 6 11 1 17 -2 13 -5z m-560
-20 c-3 -3 -12 -4 -19 -1 -8 3 -5 6 6 6 11 1 17 -2 13 -5z m758 -20 c26 -9 29
-12 10 -8 -16 3 -54 10 -84 15 -29 4 -56 11 -59 14 -9 9 90 -7 133 -21z
m-1800 6 c8 -13 -15 -13 -35 0 -12 8 -11 10 7 10 12 0 25 -4 28 -10z m1132
-16 c-3 -3 -12 -4 -19 -1 -8 3 -5 6 6 6 11 1 17 -2 13 -5z m876 -19 c36 -4 55
-10 51 -17 -8 -13 -91 -4 -154 16 l-45 15 45 -4 c25 -2 71 -7 103 -10z m-278
-4 l-60 -6 40 -7 c22 -4 82 -8 133 -8 51 0 91 -4 88 -8 -7 -11 -152 -5 -241
10 -55 10 -65 14 -45 19 14 4 52 7 85 6 l60 0 -60 -6z m-97 -25 c40 -7 75 -16
79 -20 3 -3 -23 -6 -58 -6 -36 0 -69 4 -75 10 -5 5 -27 14 -49 19 l-40 9 35 0
c19 1 68 -5 108 -12z m-321 -22 c-3 -3 -12 -4 -19 -1 -8 3 -5 6 6 6 11 1 17
-2 13 -5z m226 -11 c-13 -2 -33 -2 -45 0 -13 2 -3 4 22 4 25 0 35 -2 23 -4z
m-370 -10 c-7 -2 -19 -2 -25 0 -7 3 -2 5 12 5 14 0 19 -2 13 -5z m120 -20 c-7
-2 -19 -2 -25 0 -7 3 -2 5 12 5 14 0 19 -2 13 -5z m1107 -63 c0 -5 -12 -10
-27 -10 -16 0 -45 -3 -65 -6 -24 -4 -38 -3 -38 4 0 10 31 16 103 20 15 1 27
-2 27 -8z m-1280 -106 c0 -6 -10 -20 -23 -32 l-23 -22 -22 23 c-24 25 -22 47
7 80 15 18 17 17 38 -10 13 -15 23 -33 23 -39z"/>
<path d="M5591 2044 c0 -11 3 -14 6 -6 3 7 2 16 -1 19 -3 4 -6 -2 -5 -13z"/>
<path d="M3895 1174 c-33 -14 -99 -38 -147 -54 -79 -26 -168 -65 -168 -74 0
-3 47 3 195 25 44 7 110 22 146 34 l66 23 123 -45 c133 -48 200 -56 79 -9
-106 40 -118 58 -22 31 10 -3 -27 17 -82 44 -55 28 -107 50 -115 50 -8 0 -42
-11 -75 -25z"/>
<path d="M4285 1030 c28 -12 37 -12 30 0 -3 6 -16 10 -28 9 -21 0 -21 -1 -2
-9z"/>
<path d="M4345 1012 c6 -6 24 -13 40 -17 21 -4 25 -3 15 3 -24 15 -67 26 -55
14z"/>
<path d="M3547 993 c-4 -3 -7 -11 -7 -17 0 -6 5 -5 12 2 6 6 9 14 7 17 -3 3
-9 2 -12 -2z"/>
<path d="M4095 4339 c-67 -48 -105 -81 -77 -65 6 4 12 5 12 2 0 -3 -15 -12
-32 -19 -36 -16 -218 -163 -218 -178 0 -11 45 6 84 33 57 40 301 231 308 242
10 14 10 36 0 36 -4 0 -39 -23 -77 -51z"/>
<path d="M4727 4353 c-3 -5 20 -20 51 -35 l57 -28 -37 35 c-36 34 -62 43 -71
28z"/>
<path d="M3590 3940 c0 -5 5 -10 10 -10 6 0 10 5 10 10 0 6 -4 10 -10 10 -5 0
-10 -4 -10 -10z"/>
<path d="M5012 3900 c0 -19 2 -27 5 -17 2 9 2 25 0 35 -3 9 -5 1 -5 -18z"/>
<path d="M3585 3860 c3 -5 8 -10 11 -10 2 0 4 5 4 10 0 6 -5 10 -11 10 -5 0
-7 -4 -4 -10z"/>
<path d="M5008 3774 c-13 -13 37 -134 55 -134 13 0 3 42 -22 93 -24 50 -24 50
-33 41z"/>
<path d="M1520 2059 c-74 -3 -142 -7 -151 -8 -22 -1 -64 -86 -63 -130 0 -35
118 -340 335 -866 125 -301 156 -364 186 -371 13 -4 23 -10 23 -16 0 -15 51
-78 74 -90 34 -19 900 -306 908 -302 8 5 -33 119 -126 349 -85 209 -288 723
-336 850 -21 55 -76 194 -123 308 -80 198 -87 211 -132 248 l-47 39 -207 -2
c-113 -1 -267 -5 -341 -9z m1046 -1284 c16 -39 18 -65 6 -65 -12 0 -32 47 -32
75 0 34 8 31 26 -10z m18 -200 c22 -31 36 -61 32 -70 -8 -22 -62 -19 -86 5
-41 41 -53 112 -23 129 22 12 29 6 77 -64z m-110 3 c15 -21 13 -38 -4 -38 -5
0 -16 14 -25 30 -13 26 -14 30 -1 30 8 0 22 -10 30 -22z"/>
<path d="M3308 1203 c7 -3 16 -2 19 1 4 3 -2 6 -13 5 -11 0 -14 -3 -6 -6z"/>
</g>
</svg>
